%TF.GenerationSoftware,KiCad,Pcbnew,8.0.2*%
%TF.CreationDate,2024-09-15T21:25:22+02:00*%
%TF.ProjectId,LED_Coaster,4c45445f-436f-4617-9374-65722e6b6963,rev?*%
%TF.SameCoordinates,Original*%
%TF.FileFunction,Legend,Top*%
%TF.FilePolarity,Positive*%
%FSLAX46Y46*%
G04 Gerber Fmt 4.6, Leading zero omitted, Abs format (unit mm)*
G04 Created by KiCad (PCBNEW 8.0.2) date 2024-09-15 21:25:22*
%MOMM*%
%LPD*%
G01*
G04 APERTURE LIST*
%ADD10C,0.150000*%
%ADD11C,0.120000*%
G04 APERTURE END LIST*
D10*
G36*
X170900616Y-48467942D02*
G01*
X170853581Y-48533179D01*
X170795764Y-48564071D01*
X170733322Y-48554456D01*
X170607147Y-48464132D01*
X170576378Y-48406549D01*
X170586025Y-48343897D01*
X170596439Y-48329161D01*
X170900616Y-48467942D01*
G37*
G36*
X173279981Y-49443191D02*
G01*
X172474257Y-50552175D01*
X172114006Y-50290437D01*
X172357294Y-50290437D01*
X172361872Y-50319339D01*
X172377162Y-50344291D01*
X172400837Y-50361492D01*
X172429292Y-50368323D01*
X172458194Y-50363745D01*
X172483146Y-50348455D01*
X172492912Y-50337465D01*
X173088132Y-49515763D01*
X173094963Y-49487308D01*
X173090385Y-49458405D01*
X173075096Y-49433454D01*
X173051420Y-49416253D01*
X173022965Y-49409422D01*
X172994063Y-49413999D01*
X172969111Y-49429289D01*
X172959345Y-49440280D01*
X172364125Y-50261982D01*
X172357294Y-50290437D01*
X172114006Y-50290437D01*
X171003690Y-49483745D01*
X171887748Y-49483745D01*
X171889874Y-49492905D01*
X171890683Y-49502275D01*
X171893933Y-49510397D01*
X171894364Y-49512251D01*
X171895071Y-49513240D01*
X171896146Y-49515925D01*
X171941136Y-49600125D01*
X171941407Y-49601831D01*
X171946418Y-49610009D01*
X171953227Y-49622752D01*
X171955288Y-49624485D01*
X171956696Y-49626783D01*
X171967687Y-49636549D01*
X172074885Y-49712945D01*
X172076017Y-49714528D01*
X172084700Y-49719940D01*
X172095944Y-49727953D01*
X172098566Y-49728582D01*
X172100852Y-49730007D01*
X172115049Y-49733827D01*
X172168156Y-49742004D01*
X172172554Y-49769769D01*
X172187844Y-49794721D01*
X172211519Y-49811922D01*
X172239974Y-49818753D01*
X172268876Y-49814175D01*
X172293828Y-49798885D01*
X172303594Y-49787895D01*
X172702886Y-49235867D01*
X172709717Y-49207411D01*
X172705139Y-49178509D01*
X172689849Y-49153557D01*
X172666174Y-49136356D01*
X172637719Y-49129525D01*
X172608816Y-49134103D01*
X172583865Y-49149393D01*
X172574099Y-49160383D01*
X172257638Y-49597895D01*
X172235207Y-49601853D01*
X172158660Y-49590066D01*
X172071006Y-49527599D01*
X172040314Y-49470161D01*
X172049906Y-49407867D01*
X172356165Y-48983958D01*
X172362996Y-48955503D01*
X172358418Y-48926601D01*
X172343128Y-48901649D01*
X172319453Y-48884448D01*
X172290998Y-48877617D01*
X172262096Y-48882195D01*
X172237144Y-48897485D01*
X172227378Y-48908475D01*
X171927489Y-49323566D01*
X171925480Y-49325004D01*
X171919373Y-49334801D01*
X171912055Y-49344931D01*
X171911425Y-49347552D01*
X171910001Y-49349838D01*
X171906181Y-49364036D01*
X171890538Y-49465625D01*
X171888166Y-49473119D01*
X171888603Y-49478188D01*
X171887748Y-49483745D01*
X171003690Y-49483745D01*
X170271722Y-48951939D01*
X171155780Y-48951939D01*
X171157906Y-48961099D01*
X171158715Y-48970469D01*
X171161965Y-48978591D01*
X171162396Y-48980445D01*
X171163103Y-48981434D01*
X171164178Y-48984119D01*
X171209168Y-49068318D01*
X171209439Y-49070026D01*
X171214450Y-49078204D01*
X171221259Y-49090946D01*
X171223321Y-49092680D01*
X171224729Y-49094977D01*
X171235719Y-49104743D01*
X171342917Y-49181138D01*
X171344050Y-49182722D01*
X171352740Y-49188138D01*
X171363978Y-49196147D01*
X171366599Y-49196776D01*
X171368885Y-49198201D01*
X171383082Y-49202021D01*
X171436187Y-49210197D01*
X171440586Y-49237964D01*
X171455876Y-49262916D01*
X171479551Y-49280117D01*
X171508006Y-49286948D01*
X171536908Y-49282370D01*
X171561860Y-49267080D01*
X171571626Y-49256090D01*
X171970918Y-48704060D01*
X171977749Y-48675605D01*
X171973171Y-48646703D01*
X171957881Y-48621751D01*
X171934206Y-48604550D01*
X171905751Y-48597719D01*
X171876849Y-48602297D01*
X171851897Y-48617587D01*
X171842131Y-48628577D01*
X171525671Y-49066089D01*
X171503239Y-49070047D01*
X171426693Y-49058260D01*
X171339038Y-48995793D01*
X171308346Y-48938355D01*
X171317938Y-48876061D01*
X171624197Y-48452152D01*
X171631028Y-48423697D01*
X171626450Y-48394795D01*
X171611160Y-48369843D01*
X171587485Y-48352642D01*
X171559030Y-48345811D01*
X171530128Y-48350389D01*
X171505176Y-48365679D01*
X171495410Y-48376669D01*
X171195521Y-48791760D01*
X171193512Y-48793198D01*
X171187405Y-48802995D01*
X171180087Y-48813125D01*
X171179457Y-48815746D01*
X171178033Y-48818032D01*
X171174213Y-48832230D01*
X171158570Y-48933819D01*
X171156198Y-48941313D01*
X171156635Y-48946382D01*
X171155780Y-48951939D01*
X170271722Y-48951939D01*
X169539754Y-48420133D01*
X170423812Y-48420133D01*
X170425938Y-48429293D01*
X170426747Y-48438663D01*
X170429997Y-48446785D01*
X170430428Y-48448639D01*
X170431135Y-48449628D01*
X170432210Y-48452313D01*
X170477200Y-48536513D01*
X170477471Y-48538219D01*
X170482480Y-48546393D01*
X170489291Y-48559140D01*
X170491354Y-48560875D01*
X170492761Y-48563171D01*
X170503751Y-48572937D01*
X170649374Y-48677183D01*
X170650606Y-48678906D01*
X170659686Y-48684565D01*
X170670534Y-48692331D01*
X170673155Y-48692960D01*
X170675441Y-48694385D01*
X170689638Y-48698205D01*
X170791223Y-48713846D01*
X170798721Y-48716220D01*
X170803794Y-48715782D01*
X170809347Y-48716637D01*
X170818503Y-48714512D01*
X170827877Y-48713703D01*
X170836000Y-48710451D01*
X170837853Y-48710022D01*
X170838842Y-48709314D01*
X170841527Y-48708240D01*
X170925729Y-48663250D01*
X170927435Y-48662980D01*
X170935607Y-48657972D01*
X170948355Y-48651161D01*
X170950090Y-48649097D01*
X170952387Y-48647690D01*
X170962153Y-48636700D01*
X171071582Y-48484923D01*
X171074158Y-48482538D01*
X171075663Y-48479264D01*
X171178136Y-48337136D01*
X171180081Y-48335746D01*
X171186090Y-48326103D01*
X171193506Y-48315819D01*
X171194135Y-48313196D01*
X171195560Y-48310911D01*
X171199380Y-48296714D01*
X171215021Y-48195128D01*
X171217395Y-48187630D01*
X171216957Y-48182557D01*
X171217812Y-48177005D01*
X171215687Y-48167848D01*
X171214878Y-48158475D01*
X171211626Y-48150350D01*
X171211197Y-48148499D01*
X171210489Y-48147510D01*
X171209415Y-48144824D01*
X171164425Y-48060627D01*
X171164155Y-48058918D01*
X171159134Y-48050724D01*
X171152334Y-48037998D01*
X171150274Y-48036265D01*
X171148865Y-48033966D01*
X171137874Y-48024200D01*
X170992248Y-47919951D01*
X170991018Y-47918231D01*
X170981943Y-47912574D01*
X170971091Y-47904806D01*
X170968469Y-47904176D01*
X170966184Y-47902752D01*
X170951986Y-47898932D01*
X170832277Y-47880499D01*
X170803771Y-47887115D01*
X170779967Y-47904135D01*
X170764488Y-47928970D01*
X170759690Y-47957838D01*
X170766306Y-47986344D01*
X170783326Y-48010148D01*
X170808161Y-48025627D01*
X170822358Y-48029447D01*
X170908301Y-48042680D01*
X171034477Y-48133004D01*
X171065246Y-48190588D01*
X171055648Y-48252915D01*
X170989230Y-48345035D01*
X170609299Y-48171691D01*
X170603610Y-48167558D01*
X170596496Y-48165850D01*
X170589642Y-48162723D01*
X170582299Y-48162442D01*
X170575154Y-48160727D01*
X170567819Y-48161888D01*
X170560400Y-48161605D01*
X170553508Y-48164155D01*
X170546252Y-48165305D01*
X170539920Y-48169184D01*
X170532956Y-48171762D01*
X170527566Y-48176754D01*
X170521300Y-48180594D01*
X170511534Y-48191585D01*
X170511492Y-48191644D01*
X170511488Y-48191648D01*
X170511485Y-48191653D01*
X170462871Y-48260442D01*
X170461544Y-48261392D01*
X170456635Y-48269267D01*
X170448119Y-48281318D01*
X170447489Y-48283940D01*
X170446065Y-48286226D01*
X170442245Y-48300424D01*
X170426602Y-48402013D01*
X170424230Y-48409507D01*
X170424667Y-48414576D01*
X170423812Y-48420133D01*
X169539754Y-48420133D01*
X169400516Y-48318971D01*
X169628266Y-48005500D01*
X169779450Y-48005500D01*
X169784027Y-48034403D01*
X169799317Y-48059355D01*
X169810308Y-48069121D01*
X169879163Y-48117781D01*
X169880114Y-48119111D01*
X169887995Y-48124023D01*
X169900041Y-48132536D01*
X169902663Y-48133165D01*
X169904949Y-48134590D01*
X169919146Y-48138410D01*
X170015446Y-48153237D01*
X170010597Y-48173440D01*
X170015175Y-48202342D01*
X170030465Y-48227294D01*
X170054140Y-48244495D01*
X170082595Y-48251326D01*
X170111497Y-48246748D01*
X170136449Y-48231458D01*
X170146215Y-48220468D01*
X170545507Y-47668438D01*
X170552338Y-47639983D01*
X170547760Y-47611081D01*
X170532470Y-47586129D01*
X170508795Y-47568928D01*
X170480340Y-47562097D01*
X170451438Y-47566675D01*
X170426486Y-47581965D01*
X170416720Y-47592955D01*
X170148898Y-47963223D01*
X170082189Y-47998868D01*
X170039303Y-48006436D01*
X169962619Y-47994628D01*
X169885792Y-47940334D01*
X169857337Y-47933503D01*
X169828434Y-47938080D01*
X169803482Y-47953370D01*
X169786281Y-47977045D01*
X169779450Y-48005500D01*
X169628266Y-48005500D01*
X170206240Y-47209987D01*
X173279981Y-49443191D01*
G37*
G36*
X181356645Y-58111346D02*
G01*
X181426397Y-58146510D01*
X181518486Y-58271405D01*
X181531824Y-58346161D01*
X181516640Y-58448407D01*
X181412595Y-58574301D01*
X181158719Y-58760363D01*
X181001453Y-58825040D01*
X180901913Y-58810258D01*
X180832162Y-58775095D01*
X180740073Y-58650201D01*
X180726735Y-58575443D01*
X180741919Y-58473197D01*
X180845963Y-58347305D01*
X181099838Y-58161242D01*
X181257107Y-58096565D01*
X181356645Y-58111346D01*
G37*
G36*
X179860195Y-56583827D02*
G01*
X179795303Y-56631336D01*
X179730771Y-56642850D01*
X179674355Y-56614410D01*
X179582266Y-56489515D01*
X179570799Y-56425245D01*
X179599335Y-56368639D01*
X179613793Y-56357843D01*
X179860195Y-56583827D01*
G37*
G36*
X181989677Y-58477756D02*
G01*
X180879526Y-59284328D01*
X180360705Y-58570231D01*
X180576374Y-58570231D01*
X180576625Y-58574001D01*
X180576395Y-58575552D01*
X180576856Y-58577476D01*
X180577352Y-58584902D01*
X180594120Y-58678881D01*
X180593850Y-58680590D01*
X180596091Y-58689925D01*
X180598627Y-58704138D01*
X180600051Y-58706423D01*
X180600681Y-58709045D01*
X180608116Y-58721730D01*
X180714399Y-58865877D01*
X180715038Y-58867894D01*
X180721920Y-58876077D01*
X180729841Y-58886820D01*
X180732138Y-58888228D01*
X180733873Y-58890290D01*
X180746196Y-58898310D01*
X180841164Y-58946184D01*
X180849296Y-58951168D01*
X180852931Y-58952116D01*
X180854350Y-58952832D01*
X180856324Y-58953002D01*
X180863522Y-58954881D01*
X180988666Y-58973465D01*
X180992964Y-58975293D01*
X181001511Y-58975373D01*
X181011228Y-58976816D01*
X181016648Y-58975514D01*
X181022227Y-58975567D01*
X181036336Y-58971430D01*
X181213699Y-58898487D01*
X181221771Y-58896550D01*
X181229672Y-58891918D01*
X181231454Y-58891186D01*
X181232241Y-58890412D01*
X181234456Y-58889115D01*
X181499367Y-58694965D01*
X181507025Y-58690973D01*
X181513590Y-58684541D01*
X181515119Y-58683421D01*
X181515697Y-58682477D01*
X181517528Y-58680684D01*
X181637241Y-58535832D01*
X181641227Y-58532937D01*
X181645793Y-58525485D01*
X181651931Y-58518059D01*
X181653604Y-58512738D01*
X181656517Y-58507986D01*
X181660230Y-58493760D01*
X181679935Y-58361066D01*
X181682185Y-58351373D01*
X181681934Y-58347607D01*
X181682165Y-58346054D01*
X181681702Y-58344127D01*
X181681208Y-58336703D01*
X181664439Y-58242723D01*
X181664710Y-58241015D01*
X181662468Y-58231679D01*
X181659933Y-58217467D01*
X181658508Y-58215181D01*
X181657879Y-58212560D01*
X181650444Y-58199875D01*
X181544161Y-58055731D01*
X181543523Y-58053713D01*
X181536633Y-58045521D01*
X181528719Y-58034787D01*
X181526423Y-58033380D01*
X181524688Y-58031317D01*
X181512365Y-58023296D01*
X181417398Y-57975421D01*
X181409264Y-57970436D01*
X181405627Y-57969487D01*
X181404211Y-57968773D01*
X181402237Y-57968602D01*
X181395037Y-57966724D01*
X181269893Y-57948140D01*
X181265596Y-57946313D01*
X181257048Y-57946232D01*
X181247331Y-57944790D01*
X181241911Y-57946091D01*
X181236334Y-57946039D01*
X181222225Y-57950175D01*
X181044856Y-58023118D01*
X181036788Y-58025055D01*
X181028891Y-58029683D01*
X181027106Y-58030418D01*
X181026315Y-58031193D01*
X181024104Y-58032490D01*
X180759195Y-58226638D01*
X180751534Y-58230633D01*
X180744967Y-58237065D01*
X180743441Y-58238185D01*
X180742863Y-58239128D01*
X180741031Y-58240923D01*
X180621317Y-58385772D01*
X180617333Y-58388668D01*
X180612766Y-58396119D01*
X180606629Y-58403546D01*
X180604955Y-58408866D01*
X180602043Y-58413619D01*
X180598330Y-58427846D01*
X180578626Y-58560526D01*
X180576374Y-58570231D01*
X180360705Y-58570231D01*
X179654771Y-57598596D01*
X180219757Y-57598596D01*
X180226588Y-57627051D01*
X180243789Y-57650726D01*
X180268741Y-57666016D01*
X180297643Y-57670594D01*
X180326098Y-57663763D01*
X180338783Y-57656328D01*
X180774953Y-57338019D01*
X180797508Y-57341186D01*
X180866667Y-57376051D01*
X180930730Y-57462549D01*
X180942169Y-57526658D01*
X180913795Y-57582941D01*
X180491533Y-57891463D01*
X180476243Y-57916414D01*
X180471665Y-57945317D01*
X180478496Y-57973772D01*
X180495697Y-57997447D01*
X180520648Y-58012737D01*
X180549551Y-58017315D01*
X180578006Y-58010484D01*
X180590691Y-58003049D01*
X181004169Y-57700946D01*
X181006526Y-57700200D01*
X181015368Y-57692763D01*
X181025452Y-57685396D01*
X181026859Y-57683099D01*
X181028923Y-57681364D01*
X181036943Y-57669042D01*
X181083216Y-57577252D01*
X181087785Y-57570862D01*
X181088934Y-57565908D01*
X181091466Y-57560887D01*
X181092275Y-57551511D01*
X181094400Y-57542356D01*
X181093818Y-57533631D01*
X181093983Y-57531731D01*
X181093614Y-57530568D01*
X181093423Y-57527686D01*
X181076654Y-57433705D01*
X181076925Y-57431997D01*
X181074683Y-57422658D01*
X181072148Y-57408450D01*
X181070723Y-57406164D01*
X181070094Y-57403542D01*
X181062659Y-57390858D01*
X180984313Y-57285075D01*
X180983727Y-57283221D01*
X180977139Y-57275387D01*
X180968923Y-57264294D01*
X180966625Y-57262886D01*
X180964892Y-57260825D01*
X180952569Y-57252804D01*
X180904588Y-57228615D01*
X180908986Y-57200851D01*
X180902155Y-57172396D01*
X180884954Y-57148721D01*
X180860002Y-57133431D01*
X180831100Y-57128853D01*
X180802645Y-57135684D01*
X180789960Y-57143119D01*
X180239625Y-57544742D01*
X180224335Y-57569694D01*
X180219757Y-57598596D01*
X179654771Y-57598596D01*
X179517223Y-57409278D01*
X179670187Y-57409278D01*
X179677018Y-57437733D01*
X179694219Y-57461408D01*
X179719171Y-57476698D01*
X179748073Y-57481276D01*
X179776528Y-57474445D01*
X179789213Y-57467010D01*
X179998878Y-57314148D01*
X180047861Y-57381053D01*
X180072812Y-57396343D01*
X180101715Y-57400921D01*
X180130170Y-57394090D01*
X180153845Y-57376889D01*
X180169135Y-57351937D01*
X180173713Y-57323035D01*
X180166882Y-57294579D01*
X180159447Y-57281895D01*
X180118963Y-57226598D01*
X180472284Y-56969003D01*
X180474720Y-56968232D01*
X180483694Y-56960684D01*
X180493647Y-56953428D01*
X180495056Y-56951128D01*
X180497116Y-56949396D01*
X180505137Y-56937074D01*
X180551408Y-56845287D01*
X180555979Y-56838895D01*
X180557128Y-56833939D01*
X180559660Y-56828919D01*
X180560469Y-56819545D01*
X180562594Y-56810389D01*
X180562012Y-56801664D01*
X180562177Y-56799764D01*
X180561808Y-56798601D01*
X180561617Y-56795719D01*
X180544848Y-56701739D01*
X180545119Y-56700031D01*
X180542877Y-56690695D01*
X180540342Y-56676483D01*
X180538917Y-56674197D01*
X180538288Y-56671576D01*
X180530853Y-56658891D01*
X180465107Y-56570851D01*
X180440156Y-56555561D01*
X180411253Y-56550983D01*
X180382798Y-56557814D01*
X180359123Y-56575015D01*
X180343833Y-56599966D01*
X180339255Y-56628869D01*
X180346086Y-56657324D01*
X180353521Y-56670009D01*
X180398977Y-56730878D01*
X180410362Y-56794691D01*
X180382004Y-56850943D01*
X180031191Y-57106711D01*
X179925763Y-56962708D01*
X179900811Y-56947418D01*
X179871909Y-56942840D01*
X179843454Y-56949671D01*
X179819779Y-56966872D01*
X179804489Y-56991824D01*
X179799911Y-57020726D01*
X179806742Y-57049181D01*
X179814177Y-57061866D01*
X179911106Y-57194261D01*
X179690055Y-57355424D01*
X179674765Y-57380376D01*
X179670187Y-57409278D01*
X179517223Y-57409278D01*
X178790876Y-56409547D01*
X179418567Y-56409547D01*
X179419148Y-56418275D01*
X179418985Y-56420173D01*
X179419352Y-56421334D01*
X179419545Y-56424218D01*
X179436313Y-56518198D01*
X179436043Y-56519907D01*
X179438284Y-56529245D01*
X179440820Y-56543454D01*
X179442244Y-56545739D01*
X179442874Y-56548362D01*
X179450309Y-56561046D01*
X179556592Y-56705190D01*
X179557231Y-56707208D01*
X179564117Y-56715395D01*
X179572035Y-56726134D01*
X179574332Y-56727542D01*
X179576067Y-56729604D01*
X179588389Y-56737625D01*
X179680172Y-56783894D01*
X179686567Y-56788467D01*
X179691524Y-56789617D01*
X179696544Y-56792148D01*
X179705911Y-56792956D01*
X179715073Y-56795083D01*
X179723801Y-56794501D01*
X179725699Y-56794665D01*
X179726860Y-56794297D01*
X179729744Y-56794105D01*
X179823723Y-56777336D01*
X179825432Y-56777607D01*
X179834767Y-56775365D01*
X179848980Y-56772830D01*
X179851265Y-56771405D01*
X179853887Y-56770776D01*
X179866572Y-56763341D01*
X180017547Y-56652808D01*
X180020733Y-56651336D01*
X180023175Y-56648687D01*
X180164553Y-56545181D01*
X180166834Y-56544460D01*
X180175537Y-56537140D01*
X180185759Y-56529657D01*
X180187166Y-56527360D01*
X180189230Y-56525625D01*
X180197250Y-56513302D01*
X180243520Y-56421514D01*
X180248091Y-56415123D01*
X180249240Y-56410168D01*
X180251772Y-56405147D01*
X180252581Y-56395773D01*
X180254706Y-56386617D01*
X180254124Y-56377891D01*
X180254289Y-56375991D01*
X180253920Y-56374828D01*
X180253729Y-56371947D01*
X180236960Y-56277967D01*
X180237231Y-56276259D01*
X180234989Y-56266923D01*
X180232454Y-56252711D01*
X180231029Y-56250425D01*
X180230400Y-56247804D01*
X180222965Y-56235119D01*
X180116682Y-56090975D01*
X180116044Y-56088957D01*
X180109154Y-56080765D01*
X180101240Y-56070031D01*
X180098944Y-56068624D01*
X180097209Y-56066561D01*
X180084886Y-56058540D01*
X179976732Y-56004017D01*
X179947576Y-56001500D01*
X179919678Y-56010331D01*
X179897282Y-56029167D01*
X179883798Y-56055139D01*
X179881281Y-56084295D01*
X179890112Y-56112193D01*
X179908948Y-56134589D01*
X179921270Y-56142610D01*
X179998918Y-56181754D01*
X180091007Y-56306649D01*
X180102475Y-56370920D01*
X180074087Y-56427232D01*
X179982452Y-56494320D01*
X179674684Y-56212055D01*
X179670549Y-56206364D01*
X179664310Y-56202541D01*
X179658759Y-56197450D01*
X179651861Y-56194913D01*
X179645597Y-56191075D01*
X179638265Y-56189913D01*
X179631294Y-56187350D01*
X179623950Y-56187646D01*
X179616694Y-56186497D01*
X179609472Y-56188230D01*
X179602055Y-56188530D01*
X179595388Y-56191611D01*
X179588239Y-56193328D01*
X179575555Y-56200763D01*
X179575495Y-56200807D01*
X179575492Y-56200809D01*
X179575488Y-56200812D01*
X179507998Y-56251212D01*
X179506442Y-56251705D01*
X179499333Y-56257683D01*
X179487515Y-56266509D01*
X179486107Y-56268806D01*
X179484046Y-56270540D01*
X179476025Y-56282863D01*
X179429753Y-56374648D01*
X179425183Y-56381041D01*
X179424032Y-56385996D01*
X179421502Y-56391017D01*
X179420693Y-56400386D01*
X179418567Y-56409547D01*
X178790876Y-56409547D01*
X178478384Y-55979439D01*
X178688936Y-55826464D01*
X178932227Y-55826464D01*
X178939058Y-55854919D01*
X178946493Y-55867603D01*
X178996943Y-55935160D01*
X178997436Y-55936717D01*
X179003412Y-55943822D01*
X179012239Y-55955643D01*
X179014536Y-55957050D01*
X179016271Y-55959113D01*
X179028594Y-55967133D01*
X179115599Y-56010993D01*
X179104744Y-56028708D01*
X179100166Y-56057610D01*
X179106997Y-56086065D01*
X179124198Y-56109740D01*
X179149150Y-56125030D01*
X179178052Y-56129608D01*
X179206507Y-56122777D01*
X179219192Y-56115342D01*
X179769527Y-55713719D01*
X179784817Y-55688767D01*
X179789395Y-55659865D01*
X179782564Y-55631410D01*
X179765363Y-55607735D01*
X179740411Y-55592445D01*
X179711509Y-55587867D01*
X179683054Y-55594698D01*
X179670369Y-55602133D01*
X179301235Y-55871519D01*
X179226779Y-55884804D01*
X179183652Y-55878748D01*
X179114369Y-55843822D01*
X179058079Y-55768444D01*
X179033127Y-55753154D01*
X179004224Y-55748577D01*
X178975769Y-55755408D01*
X178952094Y-55772609D01*
X178936804Y-55797561D01*
X178932227Y-55826464D01*
X178688936Y-55826464D01*
X179588535Y-55172867D01*
X181989677Y-58477756D01*
G37*
X174466667Y-76677200D02*
X174609524Y-76724819D01*
X174609524Y-76724819D02*
X174847619Y-76724819D01*
X174847619Y-76724819D02*
X174942857Y-76677200D01*
X174942857Y-76677200D02*
X174990476Y-76629580D01*
X174990476Y-76629580D02*
X175038095Y-76534342D01*
X175038095Y-76534342D02*
X175038095Y-76439104D01*
X175038095Y-76439104D02*
X174990476Y-76343866D01*
X174990476Y-76343866D02*
X174942857Y-76296247D01*
X174942857Y-76296247D02*
X174847619Y-76248628D01*
X174847619Y-76248628D02*
X174657143Y-76201009D01*
X174657143Y-76201009D02*
X174561905Y-76153390D01*
X174561905Y-76153390D02*
X174514286Y-76105771D01*
X174514286Y-76105771D02*
X174466667Y-76010533D01*
X174466667Y-76010533D02*
X174466667Y-75915295D01*
X174466667Y-75915295D02*
X174514286Y-75820057D01*
X174514286Y-75820057D02*
X174561905Y-75772438D01*
X174561905Y-75772438D02*
X174657143Y-75724819D01*
X174657143Y-75724819D02*
X174895238Y-75724819D01*
X174895238Y-75724819D02*
X175038095Y-75772438D01*
X175371429Y-75724819D02*
X175609524Y-76724819D01*
X175609524Y-76724819D02*
X175800000Y-76010533D01*
X175800000Y-76010533D02*
X175990476Y-76724819D01*
X175990476Y-76724819D02*
X176228572Y-75724819D01*
X177133333Y-76724819D02*
X176561905Y-76724819D01*
X176847619Y-76724819D02*
X176847619Y-75724819D01*
X176847619Y-75724819D02*
X176752381Y-75867676D01*
X176752381Y-75867676D02*
X176657143Y-75962914D01*
X176657143Y-75962914D02*
X176561905Y-76010533D01*
X124053333Y-80382080D02*
X124005714Y-80429700D01*
X124005714Y-80429700D02*
X123862857Y-80477319D01*
X123862857Y-80477319D02*
X123767619Y-80477319D01*
X123767619Y-80477319D02*
X123624762Y-80429700D01*
X123624762Y-80429700D02*
X123529524Y-80334461D01*
X123529524Y-80334461D02*
X123481905Y-80239223D01*
X123481905Y-80239223D02*
X123434286Y-80048747D01*
X123434286Y-80048747D02*
X123434286Y-79905890D01*
X123434286Y-79905890D02*
X123481905Y-79715414D01*
X123481905Y-79715414D02*
X123529524Y-79620176D01*
X123529524Y-79620176D02*
X123624762Y-79524938D01*
X123624762Y-79524938D02*
X123767619Y-79477319D01*
X123767619Y-79477319D02*
X123862857Y-79477319D01*
X123862857Y-79477319D02*
X124005714Y-79524938D01*
X124005714Y-79524938D02*
X124053333Y-79572557D01*
X125005714Y-80477319D02*
X124434286Y-80477319D01*
X124720000Y-80477319D02*
X124720000Y-79477319D01*
X124720000Y-79477319D02*
X124624762Y-79620176D01*
X124624762Y-79620176D02*
X124529524Y-79715414D01*
X124529524Y-79715414D02*
X124434286Y-79763033D01*
X186954819Y-80936666D02*
X187669104Y-80936666D01*
X187669104Y-80936666D02*
X187811961Y-80984285D01*
X187811961Y-80984285D02*
X187907200Y-81079523D01*
X187907200Y-81079523D02*
X187954819Y-81222380D01*
X187954819Y-81222380D02*
X187954819Y-81317618D01*
X186954819Y-80603332D02*
X186954819Y-80031904D01*
X187954819Y-80317618D02*
X186954819Y-80317618D01*
X187669104Y-79746189D02*
X187669104Y-79269999D01*
X187954819Y-79841427D02*
X186954819Y-79508094D01*
X186954819Y-79508094D02*
X187954819Y-79174761D01*
X187002438Y-78317618D02*
X186954819Y-78412856D01*
X186954819Y-78412856D02*
X186954819Y-78555713D01*
X186954819Y-78555713D02*
X187002438Y-78698570D01*
X187002438Y-78698570D02*
X187097676Y-78793808D01*
X187097676Y-78793808D02*
X187192914Y-78841427D01*
X187192914Y-78841427D02*
X187383390Y-78889046D01*
X187383390Y-78889046D02*
X187526247Y-78889046D01*
X187526247Y-78889046D02*
X187716723Y-78841427D01*
X187716723Y-78841427D02*
X187811961Y-78793808D01*
X187811961Y-78793808D02*
X187907200Y-78698570D01*
X187907200Y-78698570D02*
X187954819Y-78555713D01*
X187954819Y-78555713D02*
X187954819Y-78460475D01*
X187954819Y-78460475D02*
X187907200Y-78317618D01*
X187907200Y-78317618D02*
X187859580Y-78269999D01*
X187859580Y-78269999D02*
X187526247Y-78269999D01*
X187526247Y-78269999D02*
X187526247Y-78460475D01*
X113356069Y-82318987D02*
X114165592Y-82318987D01*
X114165592Y-82318987D02*
X114260830Y-82271368D01*
X114260830Y-82271368D02*
X114308450Y-82223749D01*
X114308450Y-82223749D02*
X114356069Y-82128511D01*
X114356069Y-82128511D02*
X114356069Y-81938035D01*
X114356069Y-81938035D02*
X114308450Y-81842797D01*
X114308450Y-81842797D02*
X114260830Y-81795178D01*
X114260830Y-81795178D02*
X114165592Y-81747559D01*
X114165592Y-81747559D02*
X113356069Y-81747559D01*
X114070354Y-81318987D02*
X114070354Y-80842797D01*
X114356069Y-81414225D02*
X113356069Y-81080892D01*
X113356069Y-81080892D02*
X114356069Y-80747559D01*
X114356069Y-79842797D02*
X113879878Y-80176130D01*
X114356069Y-80414225D02*
X113356069Y-80414225D01*
X113356069Y-80414225D02*
X113356069Y-80033273D01*
X113356069Y-80033273D02*
X113403688Y-79938035D01*
X113403688Y-79938035D02*
X113451307Y-79890416D01*
X113451307Y-79890416D02*
X113546545Y-79842797D01*
X113546545Y-79842797D02*
X113689402Y-79842797D01*
X113689402Y-79842797D02*
X113784640Y-79890416D01*
X113784640Y-79890416D02*
X113832259Y-79938035D01*
X113832259Y-79938035D02*
X113879878Y-80033273D01*
X113879878Y-80033273D02*
X113879878Y-80414225D01*
X113356069Y-79557082D02*
X113356069Y-78985654D01*
X114356069Y-79271368D02*
X113356069Y-79271368D01*
X117587319Y-71985654D02*
X118396842Y-71985654D01*
X118396842Y-71985654D02*
X118492080Y-71938035D01*
X118492080Y-71938035D02*
X118539700Y-71890416D01*
X118539700Y-71890416D02*
X118587319Y-71795178D01*
X118587319Y-71795178D02*
X118587319Y-71604702D01*
X118587319Y-71604702D02*
X118539700Y-71509464D01*
X118539700Y-71509464D02*
X118492080Y-71461845D01*
X118492080Y-71461845D02*
X118396842Y-71414226D01*
X118396842Y-71414226D02*
X117587319Y-71414226D01*
X117682557Y-70985654D02*
X117634938Y-70938035D01*
X117634938Y-70938035D02*
X117587319Y-70842797D01*
X117587319Y-70842797D02*
X117587319Y-70604702D01*
X117587319Y-70604702D02*
X117634938Y-70509464D01*
X117634938Y-70509464D02*
X117682557Y-70461845D01*
X117682557Y-70461845D02*
X117777795Y-70414226D01*
X117777795Y-70414226D02*
X117873033Y-70414226D01*
X117873033Y-70414226D02*
X118015890Y-70461845D01*
X118015890Y-70461845D02*
X118587319Y-71033273D01*
X118587319Y-71033273D02*
X118587319Y-70414226D01*
X113881009Y-95794762D02*
X113928628Y-95651905D01*
X113928628Y-95651905D02*
X113976247Y-95604286D01*
X113976247Y-95604286D02*
X114071485Y-95556667D01*
X114071485Y-95556667D02*
X114214342Y-95556667D01*
X114214342Y-95556667D02*
X114309580Y-95604286D01*
X114309580Y-95604286D02*
X114357200Y-95651905D01*
X114357200Y-95651905D02*
X114404819Y-95747143D01*
X114404819Y-95747143D02*
X114404819Y-96128095D01*
X114404819Y-96128095D02*
X113404819Y-96128095D01*
X113404819Y-96128095D02*
X113404819Y-95794762D01*
X113404819Y-95794762D02*
X113452438Y-95699524D01*
X113452438Y-95699524D02*
X113500057Y-95651905D01*
X113500057Y-95651905D02*
X113595295Y-95604286D01*
X113595295Y-95604286D02*
X113690533Y-95604286D01*
X113690533Y-95604286D02*
X113785771Y-95651905D01*
X113785771Y-95651905D02*
X113833390Y-95699524D01*
X113833390Y-95699524D02*
X113881009Y-95794762D01*
X113881009Y-95794762D02*
X113881009Y-96128095D01*
X114404819Y-94985238D02*
X114357200Y-95080476D01*
X114357200Y-95080476D02*
X114309580Y-95128095D01*
X114309580Y-95128095D02*
X114214342Y-95175714D01*
X114214342Y-95175714D02*
X113928628Y-95175714D01*
X113928628Y-95175714D02*
X113833390Y-95128095D01*
X113833390Y-95128095D02*
X113785771Y-95080476D01*
X113785771Y-95080476D02*
X113738152Y-94985238D01*
X113738152Y-94985238D02*
X113738152Y-94842381D01*
X113738152Y-94842381D02*
X113785771Y-94747143D01*
X113785771Y-94747143D02*
X113833390Y-94699524D01*
X113833390Y-94699524D02*
X113928628Y-94651905D01*
X113928628Y-94651905D02*
X114214342Y-94651905D01*
X114214342Y-94651905D02*
X114309580Y-94699524D01*
X114309580Y-94699524D02*
X114357200Y-94747143D01*
X114357200Y-94747143D02*
X114404819Y-94842381D01*
X114404819Y-94842381D02*
X114404819Y-94985238D01*
X114404819Y-94080476D02*
X114357200Y-94175714D01*
X114357200Y-94175714D02*
X114309580Y-94223333D01*
X114309580Y-94223333D02*
X114214342Y-94270952D01*
X114214342Y-94270952D02*
X113928628Y-94270952D01*
X113928628Y-94270952D02*
X113833390Y-94223333D01*
X113833390Y-94223333D02*
X113785771Y-94175714D01*
X113785771Y-94175714D02*
X113738152Y-94080476D01*
X113738152Y-94080476D02*
X113738152Y-93937619D01*
X113738152Y-93937619D02*
X113785771Y-93842381D01*
X113785771Y-93842381D02*
X113833390Y-93794762D01*
X113833390Y-93794762D02*
X113928628Y-93747143D01*
X113928628Y-93747143D02*
X114214342Y-93747143D01*
X114214342Y-93747143D02*
X114309580Y-93794762D01*
X114309580Y-93794762D02*
X114357200Y-93842381D01*
X114357200Y-93842381D02*
X114404819Y-93937619D01*
X114404819Y-93937619D02*
X114404819Y-94080476D01*
X113738152Y-93461428D02*
X113738152Y-93080476D01*
X113404819Y-93318571D02*
X114261961Y-93318571D01*
X114261961Y-93318571D02*
X114357200Y-93270952D01*
X114357200Y-93270952D02*
X114404819Y-93175714D01*
X114404819Y-93175714D02*
X114404819Y-93080476D01*
X113404819Y-91794761D02*
X113404819Y-91604285D01*
X113404819Y-91604285D02*
X113452438Y-91509047D01*
X113452438Y-91509047D02*
X113547676Y-91413809D01*
X113547676Y-91413809D02*
X113738152Y-91366190D01*
X113738152Y-91366190D02*
X114071485Y-91366190D01*
X114071485Y-91366190D02*
X114261961Y-91413809D01*
X114261961Y-91413809D02*
X114357200Y-91509047D01*
X114357200Y-91509047D02*
X114404819Y-91604285D01*
X114404819Y-91604285D02*
X114404819Y-91794761D01*
X114404819Y-91794761D02*
X114357200Y-91889999D01*
X114357200Y-91889999D02*
X114261961Y-91985237D01*
X114261961Y-91985237D02*
X114071485Y-92032856D01*
X114071485Y-92032856D02*
X113738152Y-92032856D01*
X113738152Y-92032856D02*
X113547676Y-91985237D01*
X113547676Y-91985237D02*
X113452438Y-91889999D01*
X113452438Y-91889999D02*
X113404819Y-91794761D01*
X113738152Y-90937618D02*
X114738152Y-90937618D01*
X113785771Y-90937618D02*
X113738152Y-90842380D01*
X113738152Y-90842380D02*
X113738152Y-90651904D01*
X113738152Y-90651904D02*
X113785771Y-90556666D01*
X113785771Y-90556666D02*
X113833390Y-90509047D01*
X113833390Y-90509047D02*
X113928628Y-90461428D01*
X113928628Y-90461428D02*
X114214342Y-90461428D01*
X114214342Y-90461428D02*
X114309580Y-90509047D01*
X114309580Y-90509047D02*
X114357200Y-90556666D01*
X114357200Y-90556666D02*
X114404819Y-90651904D01*
X114404819Y-90651904D02*
X114404819Y-90842380D01*
X114404819Y-90842380D02*
X114357200Y-90937618D01*
X113738152Y-90175713D02*
X113738152Y-89794761D01*
X113404819Y-90032856D02*
X114261961Y-90032856D01*
X114261961Y-90032856D02*
X114357200Y-89985237D01*
X114357200Y-89985237D02*
X114404819Y-89889999D01*
X114404819Y-89889999D02*
X114404819Y-89794761D01*
X114404819Y-89461427D02*
X113738152Y-89461427D01*
X113404819Y-89461427D02*
X113452438Y-89509046D01*
X113452438Y-89509046D02*
X113500057Y-89461427D01*
X113500057Y-89461427D02*
X113452438Y-89413808D01*
X113452438Y-89413808D02*
X113404819Y-89461427D01*
X113404819Y-89461427D02*
X113500057Y-89461427D01*
X114404819Y-88842380D02*
X114357200Y-88937618D01*
X114357200Y-88937618D02*
X114309580Y-88985237D01*
X114309580Y-88985237D02*
X114214342Y-89032856D01*
X114214342Y-89032856D02*
X113928628Y-89032856D01*
X113928628Y-89032856D02*
X113833390Y-88985237D01*
X113833390Y-88985237D02*
X113785771Y-88937618D01*
X113785771Y-88937618D02*
X113738152Y-88842380D01*
X113738152Y-88842380D02*
X113738152Y-88699523D01*
X113738152Y-88699523D02*
X113785771Y-88604285D01*
X113785771Y-88604285D02*
X113833390Y-88556666D01*
X113833390Y-88556666D02*
X113928628Y-88509047D01*
X113928628Y-88509047D02*
X114214342Y-88509047D01*
X114214342Y-88509047D02*
X114309580Y-88556666D01*
X114309580Y-88556666D02*
X114357200Y-88604285D01*
X114357200Y-88604285D02*
X114404819Y-88699523D01*
X114404819Y-88699523D02*
X114404819Y-88842380D01*
X113738152Y-88080475D02*
X114404819Y-88080475D01*
X113833390Y-88080475D02*
X113785771Y-88032856D01*
X113785771Y-88032856D02*
X113738152Y-87937618D01*
X113738152Y-87937618D02*
X113738152Y-87794761D01*
X113738152Y-87794761D02*
X113785771Y-87699523D01*
X113785771Y-87699523D02*
X113881009Y-87651904D01*
X113881009Y-87651904D02*
X114404819Y-87651904D01*
X115199580Y-75336666D02*
X115247200Y-75384285D01*
X115247200Y-75384285D02*
X115294819Y-75527142D01*
X115294819Y-75527142D02*
X115294819Y-75622380D01*
X115294819Y-75622380D02*
X115247200Y-75765237D01*
X115247200Y-75765237D02*
X115151961Y-75860475D01*
X115151961Y-75860475D02*
X115056723Y-75908094D01*
X115056723Y-75908094D02*
X114866247Y-75955713D01*
X114866247Y-75955713D02*
X114723390Y-75955713D01*
X114723390Y-75955713D02*
X114532914Y-75908094D01*
X114532914Y-75908094D02*
X114437676Y-75860475D01*
X114437676Y-75860475D02*
X114342438Y-75765237D01*
X114342438Y-75765237D02*
X114294819Y-75622380D01*
X114294819Y-75622380D02*
X114294819Y-75527142D01*
X114294819Y-75527142D02*
X114342438Y-75384285D01*
X114342438Y-75384285D02*
X114390057Y-75336666D01*
X114628152Y-74479523D02*
X115294819Y-74479523D01*
X114247200Y-74717618D02*
X114961485Y-74955713D01*
X114961485Y-74955713D02*
X114961485Y-74336666D01*
X114356069Y-73555595D02*
X113356069Y-73555595D01*
X113689402Y-73079405D02*
X114356069Y-73079405D01*
X113784640Y-73079405D02*
X113737021Y-73031786D01*
X113737021Y-73031786D02*
X113689402Y-72936548D01*
X113689402Y-72936548D02*
X113689402Y-72793691D01*
X113689402Y-72793691D02*
X113737021Y-72698453D01*
X113737021Y-72698453D02*
X113832259Y-72650834D01*
X113832259Y-72650834D02*
X114356069Y-72650834D01*
X113689402Y-72174643D02*
X114689402Y-72174643D01*
X113737021Y-72174643D02*
X113689402Y-72079405D01*
X113689402Y-72079405D02*
X113689402Y-71888929D01*
X113689402Y-71888929D02*
X113737021Y-71793691D01*
X113737021Y-71793691D02*
X113784640Y-71746072D01*
X113784640Y-71746072D02*
X113879878Y-71698453D01*
X113879878Y-71698453D02*
X114165592Y-71698453D01*
X114165592Y-71698453D02*
X114260830Y-71746072D01*
X114260830Y-71746072D02*
X114308450Y-71793691D01*
X114308450Y-71793691D02*
X114356069Y-71888929D01*
X114356069Y-71888929D02*
X114356069Y-72079405D01*
X114356069Y-72079405D02*
X114308450Y-72174643D01*
X113689402Y-70841310D02*
X114356069Y-70841310D01*
X113689402Y-71269881D02*
X114213211Y-71269881D01*
X114213211Y-71269881D02*
X114308450Y-71222262D01*
X114308450Y-71222262D02*
X114356069Y-71127024D01*
X114356069Y-71127024D02*
X114356069Y-70984167D01*
X114356069Y-70984167D02*
X114308450Y-70888929D01*
X114308450Y-70888929D02*
X114260830Y-70841310D01*
X113689402Y-70507976D02*
X113689402Y-70127024D01*
X113356069Y-70365119D02*
X114213211Y-70365119D01*
X114213211Y-70365119D02*
X114308450Y-70317500D01*
X114308450Y-70317500D02*
X114356069Y-70222262D01*
X114356069Y-70222262D02*
X114356069Y-70127024D01*
X113689402Y-69127023D02*
X114356069Y-68888928D01*
X114356069Y-68888928D02*
X113689402Y-68650833D01*
X114356069Y-68127023D02*
X114308450Y-68222261D01*
X114308450Y-68222261D02*
X114260830Y-68269880D01*
X114260830Y-68269880D02*
X114165592Y-68317499D01*
X114165592Y-68317499D02*
X113879878Y-68317499D01*
X113879878Y-68317499D02*
X113784640Y-68269880D01*
X113784640Y-68269880D02*
X113737021Y-68222261D01*
X113737021Y-68222261D02*
X113689402Y-68127023D01*
X113689402Y-68127023D02*
X113689402Y-67984166D01*
X113689402Y-67984166D02*
X113737021Y-67888928D01*
X113737021Y-67888928D02*
X113784640Y-67841309D01*
X113784640Y-67841309D02*
X113879878Y-67793690D01*
X113879878Y-67793690D02*
X114165592Y-67793690D01*
X114165592Y-67793690D02*
X114260830Y-67841309D01*
X114260830Y-67841309D02*
X114308450Y-67888928D01*
X114308450Y-67888928D02*
X114356069Y-67984166D01*
X114356069Y-67984166D02*
X114356069Y-68127023D01*
X114356069Y-67222261D02*
X114308450Y-67317499D01*
X114308450Y-67317499D02*
X114213211Y-67365118D01*
X114213211Y-67365118D02*
X113356069Y-67365118D01*
X113689402Y-66984165D02*
X113689402Y-66603213D01*
X113356069Y-66841308D02*
X114213211Y-66841308D01*
X114213211Y-66841308D02*
X114308450Y-66793689D01*
X114308450Y-66793689D02*
X114356069Y-66698451D01*
X114356069Y-66698451D02*
X114356069Y-66603213D01*
X114356069Y-65841308D02*
X113832259Y-65841308D01*
X113832259Y-65841308D02*
X113737021Y-65888927D01*
X113737021Y-65888927D02*
X113689402Y-65984165D01*
X113689402Y-65984165D02*
X113689402Y-66174641D01*
X113689402Y-66174641D02*
X113737021Y-66269879D01*
X114308450Y-65841308D02*
X114356069Y-65936546D01*
X114356069Y-65936546D02*
X114356069Y-66174641D01*
X114356069Y-66174641D02*
X114308450Y-66269879D01*
X114308450Y-66269879D02*
X114213211Y-66317498D01*
X114213211Y-66317498D02*
X114117973Y-66317498D01*
X114117973Y-66317498D02*
X114022735Y-66269879D01*
X114022735Y-66269879D02*
X113975116Y-66174641D01*
X113975116Y-66174641D02*
X113975116Y-65936546D01*
X113975116Y-65936546D02*
X113927497Y-65841308D01*
X113689402Y-64936546D02*
X114498926Y-64936546D01*
X114498926Y-64936546D02*
X114594164Y-64984165D01*
X114594164Y-64984165D02*
X114641783Y-65031784D01*
X114641783Y-65031784D02*
X114689402Y-65127022D01*
X114689402Y-65127022D02*
X114689402Y-65269879D01*
X114689402Y-65269879D02*
X114641783Y-65365117D01*
X114308450Y-64936546D02*
X114356069Y-65031784D01*
X114356069Y-65031784D02*
X114356069Y-65222260D01*
X114356069Y-65222260D02*
X114308450Y-65317498D01*
X114308450Y-65317498D02*
X114260830Y-65365117D01*
X114260830Y-65365117D02*
X114165592Y-65412736D01*
X114165592Y-65412736D02*
X113879878Y-65412736D01*
X113879878Y-65412736D02*
X113784640Y-65365117D01*
X113784640Y-65365117D02*
X113737021Y-65317498D01*
X113737021Y-65317498D02*
X113689402Y-65222260D01*
X113689402Y-65222260D02*
X113689402Y-65031784D01*
X113689402Y-65031784D02*
X113737021Y-64936546D01*
X114308450Y-64079403D02*
X114356069Y-64174641D01*
X114356069Y-64174641D02*
X114356069Y-64365117D01*
X114356069Y-64365117D02*
X114308450Y-64460355D01*
X114308450Y-64460355D02*
X114213211Y-64507974D01*
X114213211Y-64507974D02*
X113832259Y-64507974D01*
X113832259Y-64507974D02*
X113737021Y-64460355D01*
X113737021Y-64460355D02*
X113689402Y-64365117D01*
X113689402Y-64365117D02*
X113689402Y-64174641D01*
X113689402Y-64174641D02*
X113737021Y-64079403D01*
X113737021Y-64079403D02*
X113832259Y-64031784D01*
X113832259Y-64031784D02*
X113927497Y-64031784D01*
X113927497Y-64031784D02*
X114022735Y-64507974D01*
X131022080Y-72952916D02*
X131069700Y-73000535D01*
X131069700Y-73000535D02*
X131117319Y-73143392D01*
X131117319Y-73143392D02*
X131117319Y-73238630D01*
X131117319Y-73238630D02*
X131069700Y-73381487D01*
X131069700Y-73381487D02*
X130974461Y-73476725D01*
X130974461Y-73476725D02*
X130879223Y-73524344D01*
X130879223Y-73524344D02*
X130688747Y-73571963D01*
X130688747Y-73571963D02*
X130545890Y-73571963D01*
X130545890Y-73571963D02*
X130355414Y-73524344D01*
X130355414Y-73524344D02*
X130260176Y-73476725D01*
X130260176Y-73476725D02*
X130164938Y-73381487D01*
X130164938Y-73381487D02*
X130117319Y-73238630D01*
X130117319Y-73238630D02*
X130117319Y-73143392D01*
X130117319Y-73143392D02*
X130164938Y-73000535D01*
X130164938Y-73000535D02*
X130212557Y-72952916D01*
X130117319Y-72048154D02*
X130117319Y-72524344D01*
X130117319Y-72524344D02*
X130593509Y-72571963D01*
X130593509Y-72571963D02*
X130545890Y-72524344D01*
X130545890Y-72524344D02*
X130498271Y-72429106D01*
X130498271Y-72429106D02*
X130498271Y-72191011D01*
X130498271Y-72191011D02*
X130545890Y-72095773D01*
X130545890Y-72095773D02*
X130593509Y-72048154D01*
X130593509Y-72048154D02*
X130688747Y-72000535D01*
X130688747Y-72000535D02*
X130926842Y-72000535D01*
X130926842Y-72000535D02*
X131022080Y-72048154D01*
X131022080Y-72048154D02*
X131069700Y-72095773D01*
X131069700Y-72095773D02*
X131117319Y-72191011D01*
X131117319Y-72191011D02*
X131117319Y-72429106D01*
X131117319Y-72429106D02*
X131069700Y-72524344D01*
X131069700Y-72524344D02*
X131022080Y-72571963D01*
X124053333Y-81784580D02*
X124005714Y-81832200D01*
X124005714Y-81832200D02*
X123862857Y-81879819D01*
X123862857Y-81879819D02*
X123767619Y-81879819D01*
X123767619Y-81879819D02*
X123624762Y-81832200D01*
X123624762Y-81832200D02*
X123529524Y-81736961D01*
X123529524Y-81736961D02*
X123481905Y-81641723D01*
X123481905Y-81641723D02*
X123434286Y-81451247D01*
X123434286Y-81451247D02*
X123434286Y-81308390D01*
X123434286Y-81308390D02*
X123481905Y-81117914D01*
X123481905Y-81117914D02*
X123529524Y-81022676D01*
X123529524Y-81022676D02*
X123624762Y-80927438D01*
X123624762Y-80927438D02*
X123767619Y-80879819D01*
X123767619Y-80879819D02*
X123862857Y-80879819D01*
X123862857Y-80879819D02*
X124005714Y-80927438D01*
X124005714Y-80927438D02*
X124053333Y-80975057D01*
X124434286Y-80975057D02*
X124481905Y-80927438D01*
X124481905Y-80927438D02*
X124577143Y-80879819D01*
X124577143Y-80879819D02*
X124815238Y-80879819D01*
X124815238Y-80879819D02*
X124910476Y-80927438D01*
X124910476Y-80927438D02*
X124958095Y-80975057D01*
X124958095Y-80975057D02*
X125005714Y-81070295D01*
X125005714Y-81070295D02*
X125005714Y-81165533D01*
X125005714Y-81165533D02*
X124958095Y-81308390D01*
X124958095Y-81308390D02*
X124386667Y-81879819D01*
X124386667Y-81879819D02*
X125005714Y-81879819D01*
D11*
%TO.C,SW1*%
X173080000Y-80910000D02*
X173080000Y-78830000D01*
X174350000Y-77150000D02*
X173860000Y-77640000D01*
X174350000Y-77150000D02*
X177250000Y-77150000D01*
X174350000Y-82590000D02*
X173860000Y-82100000D01*
X174350000Y-82590000D02*
X177250000Y-82590000D01*
X177250000Y-77150000D02*
X177740000Y-77640000D01*
X177250000Y-82590000D02*
X177740000Y-82100000D01*
X178520000Y-80910000D02*
X178520000Y-78830000D01*
%TO.C,D32*%
X179272871Y-51458291D02*
X180953937Y-49144502D01*
X179400624Y-48015955D02*
X177719558Y-50329743D01*
X180953937Y-49144502D02*
X179400624Y-48015955D01*
%TO.C,D31*%
X186713257Y-62371442D02*
X189027045Y-60690376D01*
X187898498Y-59137063D02*
X185584709Y-60818129D01*
X189027045Y-60690376D02*
X187898498Y-59137063D01*
%TO.C,D29*%
X150911363Y-94596706D02*
X157854076Y-92340883D01*
X152610956Y-99827515D02*
X159553669Y-97571692D01*
X159553669Y-97571692D02*
X159198299Y-96477976D01*
%TO.C,C1*%
X124481252Y-77607500D02*
X123958748Y-77607500D01*
X124481252Y-79077500D02*
X123958748Y-79077500D01*
%TO.C,SW2*%
X181682619Y-55089311D02*
X181565062Y-54927507D01*
X181966250Y-52349301D02*
X181327127Y-52813651D01*
X183445974Y-57516362D02*
X182446739Y-56141033D01*
X185382845Y-58395869D02*
X186021968Y-57931518D01*
X185634116Y-55679370D02*
X186677748Y-54921127D01*
X185913627Y-53869405D02*
X184869995Y-54627648D01*
X185913627Y-53869405D02*
X186201077Y-53907774D01*
X186486404Y-56852445D02*
X183136028Y-52241048D01*
X186677748Y-54921127D02*
X186730084Y-54635889D01*
X186730084Y-54635889D02*
X186201077Y-53907774D01*
%TO.C,D28*%
X140454480Y-97548333D02*
X147397193Y-99804156D01*
X142154073Y-92317524D02*
X149096786Y-94573347D01*
X147397193Y-99804156D02*
X147752562Y-98710442D01*
%TO.C,D25*%
X131978936Y-71418714D02*
X132909306Y-72094667D01*
X136269768Y-65512890D02*
X131978936Y-71418714D01*
X140719362Y-68745708D02*
X136428530Y-74651532D01*
%TO.C,D23*%
X152602697Y-60185382D02*
X152247328Y-61279096D01*
X157845817Y-67672014D02*
X150903104Y-65416191D01*
X159545410Y-62441205D02*
X152602697Y-60185382D01*
%TO.C,D24*%
X140449835Y-62443725D02*
X140805205Y-63537441D01*
X147392548Y-60187902D02*
X140449835Y-62443725D01*
X149092141Y-65418711D02*
X142149428Y-67674534D01*
%TO.C,D22*%
X163598578Y-74621380D02*
X159307746Y-68715556D01*
X163757340Y-65482738D02*
X162826970Y-66158691D01*
X168048172Y-71388562D02*
X163757340Y-65482738D01*
%TO.C,J3*%
X189080000Y-74450000D02*
X190410000Y-74450000D01*
X189080000Y-75780000D02*
X189080000Y-74450000D01*
X189080000Y-77050000D02*
X189080000Y-84730000D01*
X189080000Y-77050000D02*
X191740000Y-77050000D01*
X189080000Y-84730000D02*
X191740000Y-84730000D01*
X191740000Y-77050000D02*
X191740000Y-84730000D01*
%TO.C,J4*%
X109780000Y-83200000D02*
X109780000Y-75520000D01*
X112440000Y-75520000D02*
X109780000Y-75520000D01*
X112440000Y-83200000D02*
X109780000Y-83200000D01*
X112440000Y-83200000D02*
X112440000Y-75520000D01*
X112440000Y-84470000D02*
X112440000Y-85800000D01*
X112440000Y-85800000D02*
X111110000Y-85800000D01*
%TO.C,D27*%
X131950639Y-88605746D02*
X136241471Y-94511570D01*
X136241471Y-94511570D02*
X137171841Y-93835617D01*
X136400233Y-85372928D02*
X140691065Y-91278752D01*
%TO.C,R8*%
X175025676Y-53607092D02*
X174658279Y-53340163D01*
X175889721Y-52417837D02*
X175522324Y-52150908D01*
%TO.C,U2*%
X119222500Y-69313749D02*
X120482500Y-69313749D01*
X119222500Y-73073750D02*
X119222500Y-69313749D01*
X126042500Y-73073750D02*
X126042501Y-69313750D01*
X126042501Y-69313750D02*
X124782501Y-69313750D01*
X119322500Y-74353750D02*
X118992500Y-74593751D01*
X118992501Y-74113750D01*
X119322500Y-74353750D01*
G36*
X119322500Y-74353750D02*
G01*
X118992500Y-74593751D01*
X118992501Y-74113750D01*
X119322500Y-74353750D01*
G37*
%TO.C,J2*%
X109810000Y-89315000D02*
X111140000Y-89315000D01*
X109810000Y-90645000D02*
X109810000Y-89315000D01*
X109810000Y-91915000D02*
X109810000Y-94515000D01*
X109810000Y-91915000D02*
X112470000Y-91915000D01*
X109810000Y-94515000D02*
X112470000Y-94515000D01*
X112470000Y-91915000D02*
X112470000Y-94515000D01*
%TO.C,SW3*%
X171681657Y-43682200D02*
X171217306Y-44321323D01*
X172258617Y-46375751D02*
X172096813Y-46258194D01*
X174685668Y-48139106D02*
X173310339Y-47139872D01*
X175905573Y-43908098D02*
X175147330Y-44951730D01*
X175905573Y-43908098D02*
X176190811Y-43855762D01*
X176199052Y-45715851D02*
X176957295Y-44672219D01*
X176799524Y-48377041D02*
X177263874Y-47737918D01*
X176918927Y-44384768D02*
X176190811Y-43855762D01*
X176957295Y-44672219D02*
X176918927Y-44384768D01*
X177372127Y-46568140D02*
X172760730Y-43217764D01*
%TO.C,C4*%
X115547500Y-73047502D02*
X115547500Y-72524998D01*
X117017500Y-73047502D02*
X117017500Y-72524998D01*
%TO.C,D21*%
X164150000Y-83650000D02*
X164150000Y-76350000D01*
X169650000Y-76350000D02*
X168500000Y-76350000D01*
X169650000Y-83650000D02*
X169650000Y-76350000D01*
%TO.C,R7*%
X182480052Y-63353704D02*
X182213123Y-62986307D01*
X183669307Y-62489659D02*
X183402378Y-62122262D01*
%TO.C,J1*%
X109670000Y-69255000D02*
X109670000Y-66655000D01*
X112330000Y-66655000D02*
X109670000Y-66655000D01*
X112330000Y-69255000D02*
X109670000Y-69255000D01*
X112330000Y-69255000D02*
X112330000Y-66655000D01*
X112330000Y-70525000D02*
X112330000Y-71855000D01*
X112330000Y-71855000D02*
X111000000Y-71855000D01*
%TO.C,C5*%
X128247500Y-72524998D02*
X128247500Y-73047502D01*
X129717500Y-72524998D02*
X129717500Y-73047502D01*
%TO.C,D26*%
X130360886Y-76323211D02*
X130360886Y-83623211D01*
X130360886Y-83623211D02*
X131510886Y-83623211D01*
X135860886Y-76323211D02*
X135860886Y-83623211D01*
%TO.C,D30*%
X159303044Y-91254587D02*
X163593876Y-85348763D01*
X163752638Y-94487405D02*
X168043470Y-88581581D01*
X168043470Y-88581581D02*
X167113100Y-87905628D01*
%TO.C,C2*%
X123958748Y-82370000D02*
X124481252Y-82370000D01*
X123958748Y-83840000D02*
X124481252Y-83840000D01*
%TD*%
M02*
