%TF.GenerationSoftware,KiCad,Pcbnew,8.0.2*%
%TF.CreationDate,2024-09-15T21:25:22+02:00*%
%TF.ProjectId,LED_Coaster,4c45445f-436f-4617-9374-65722e6b6963,rev?*%
%TF.SameCoordinates,Original*%
%TF.FileFunction,Copper,L1,Top*%
%TF.FilePolarity,Positive*%
%FSLAX46Y46*%
G04 Gerber Fmt 4.6, Leading zero omitted, Abs format (unit mm)*
G04 Created by KiCad (PCBNEW 8.0.2) date 2024-09-15 21:25:22*
%MOMM*%
%LPD*%
G01*
G04 APERTURE LIST*
G04 Aperture macros list*
%AMRoundRect*
0 Rectangle with rounded corners*
0 $1 Rounding radius*
0 $2 $3 $4 $5 $6 $7 $8 $9 X,Y pos of 4 corners*
0 Add a 4 corners polygon primitive as box body*
4,1,4,$2,$3,$4,$5,$6,$7,$8,$9,$2,$3,0*
0 Add four circle primitives for the rounded corners*
1,1,$1+$1,$2,$3*
1,1,$1+$1,$4,$5*
1,1,$1+$1,$6,$7*
1,1,$1+$1,$8,$9*
0 Add four rect primitives between the rounded corners*
20,1,$1+$1,$2,$3,$4,$5,0*
20,1,$1+$1,$4,$5,$6,$7,0*
20,1,$1+$1,$6,$7,$8,$9,0*
20,1,$1+$1,$8,$9,$2,$3,0*%
%AMRotRect*
0 Rectangle, with rotation*
0 The origin of the aperture is its center*
0 $1 length*
0 $2 width*
0 $3 Rotation angle, in degrees counterclockwise*
0 Add horizontal line*
21,1,$1,$2,0,0,$3*%
G04 Aperture macros list end*
%TA.AperFunction,SMDPad,CuDef*%
%ADD10R,1.800000X1.100000*%
%TD*%
%TA.AperFunction,SMDPad,CuDef*%
%ADD11RoundRect,0.250000X-0.173027X0.527434X-0.555088X0.001573X0.173027X-0.527434X0.555088X-0.001573X0*%
%TD*%
%TA.AperFunction,SMDPad,CuDef*%
%ADD12RoundRect,0.250000X-0.001573X0.555088X-0.527434X0.173027X0.001573X-0.555088X0.527434X-0.173027X0*%
%TD*%
%TA.AperFunction,SMDPad,CuDef*%
%ADD13RotRect,1.500000X0.900000X18.000000*%
%TD*%
%TA.AperFunction,ComponentPad*%
%ADD14C,0.900000*%
%TD*%
%TA.AperFunction,ComponentPad*%
%ADD15C,8.600000*%
%TD*%
%TA.AperFunction,SMDPad,CuDef*%
%ADD16RoundRect,0.250000X0.337500X0.475000X-0.337500X0.475000X-0.337500X-0.475000X0.337500X-0.475000X0*%
%TD*%
%TA.AperFunction,SMDPad,CuDef*%
%ADD17RotRect,1.000000X0.800000X126.000000*%
%TD*%
%TA.AperFunction,SMDPad,CuDef*%
%ADD18RotRect,0.700000X1.500000X126.000000*%
%TD*%
%TA.AperFunction,SMDPad,CuDef*%
%ADD19RotRect,1.500000X0.900000X342.000000*%
%TD*%
%TA.AperFunction,SMDPad,CuDef*%
%ADD20RotRect,1.500000X0.900000X234.000000*%
%TD*%
%TA.AperFunction,SMDPad,CuDef*%
%ADD21RotRect,1.500000X0.900000X162.000000*%
%TD*%
%TA.AperFunction,SMDPad,CuDef*%
%ADD22RotRect,1.500000X0.900000X198.000000*%
%TD*%
%TA.AperFunction,SMDPad,CuDef*%
%ADD23RotRect,1.500000X0.900000X126.000000*%
%TD*%
%TA.AperFunction,ComponentPad*%
%ADD24R,1.700000X1.700000*%
%TD*%
%TA.AperFunction,ComponentPad*%
%ADD25O,1.700000X1.700000*%
%TD*%
%TA.AperFunction,SMDPad,CuDef*%
%ADD26RotRect,1.500000X0.900000X306.000000*%
%TD*%
%TA.AperFunction,SMDPad,CuDef*%
%ADD27RoundRect,0.250000X0.547659X0.158333X-0.018653X0.569782X-0.547659X-0.158333X0.018653X-0.569782X0*%
%TD*%
%TA.AperFunction,SMDPad,CuDef*%
%ADD28RoundRect,0.375000X0.375000X-0.625000X0.375000X0.625000X-0.375000X0.625000X-0.375000X-0.625000X0*%
%TD*%
%TA.AperFunction,SMDPad,CuDef*%
%ADD29RoundRect,0.500000X1.400000X-0.500000X1.400000X0.500000X-1.400000X0.500000X-1.400000X-0.500000X0*%
%TD*%
%TA.AperFunction,SMDPad,CuDef*%
%ADD30RotRect,1.000000X0.800000X144.000000*%
%TD*%
%TA.AperFunction,SMDPad,CuDef*%
%ADD31RotRect,0.700000X1.500000X144.000000*%
%TD*%
%TA.AperFunction,SMDPad,CuDef*%
%ADD32RoundRect,0.250000X0.475000X-0.337500X0.475000X0.337500X-0.475000X0.337500X-0.475000X-0.337500X0*%
%TD*%
%TA.AperFunction,SMDPad,CuDef*%
%ADD33R,0.900000X1.500000*%
%TD*%
%TA.AperFunction,SMDPad,CuDef*%
%ADD34RoundRect,0.250000X0.569782X-0.018653X0.158333X0.547659X-0.569782X0.018653X-0.158333X-0.547659X0*%
%TD*%
%TA.AperFunction,SMDPad,CuDef*%
%ADD35RoundRect,0.250000X-0.475000X0.337500X-0.475000X-0.337500X0.475000X-0.337500X0.475000X0.337500X0*%
%TD*%
%TA.AperFunction,SMDPad,CuDef*%
%ADD36RotRect,1.500000X0.900000X54.000000*%
%TD*%
%TA.AperFunction,SMDPad,CuDef*%
%ADD37RoundRect,0.250000X-0.337500X-0.475000X0.337500X-0.475000X0.337500X0.475000X-0.337500X0.475000X0*%
%TD*%
%TA.AperFunction,ComponentPad*%
%ADD38C,0.400000*%
%TD*%
%TA.AperFunction,ViaPad*%
%ADD39C,0.800000*%
%TD*%
%TA.AperFunction,Conductor*%
%ADD40C,0.250000*%
%TD*%
G04 APERTURE END LIST*
D10*
%TO.P,SW1,1,A*%
%TO.N,GND*%
X172700000Y-78020000D03*
X178900000Y-78020000D03*
%TO.P,SW1,2,B*%
%TO.N,Net-(SW1-B)*%
X172700000Y-81720000D03*
X178900000Y-81720000D03*
%TD*%
D11*
%TO.P,D32,1,K*%
%TO.N,GND*%
X179686480Y-49255758D03*
%TO.P,D32,2,A*%
%TO.N,Net-(D32-A)*%
X178481520Y-50914242D03*
%TD*%
D12*
%TO.P,D31,1,K*%
%TO.N,GND*%
X187787242Y-60404520D03*
%TO.P,D31,2,A*%
%TO.N,Net-(D31-A)*%
X186128758Y-61609480D03*
%TD*%
D13*
%TO.P,D29,1,VDD*%
%TO.N,Net-(D21-VDD)*%
X152392549Y-95272046D03*
%TO.P,D29,2,DOUT*%
%TO.N,Net-(D29-DOUT)*%
X153412306Y-98410534D03*
%TO.P,D29,3,VSS*%
%TO.N,GND*%
X158072483Y-96896352D03*
%TO.P,D29,4,DIN*%
%TO.N,Net-(D28-DOUT)*%
X157052726Y-93757864D03*
%TD*%
D14*
%TO.P,H3,1*%
%TO.N,N/C*%
X132480581Y-100686581D03*
X130200162Y-99742000D03*
X134761000Y-99742000D03*
X129255581Y-97461581D03*
D15*
X132480581Y-97461581D03*
D14*
X135705581Y-97461581D03*
X130200162Y-95181162D03*
X134761000Y-95181162D03*
X132480581Y-94236581D03*
%TD*%
D16*
%TO.P,C1,1*%
%TO.N,+3V3*%
X125257500Y-78342500D03*
%TO.P,C1,2*%
%TO.N,GND*%
X123182500Y-78342500D03*
%TD*%
D14*
%TO.P,H4,1*%
%TO.N,N/C*%
X167521419Y-100813581D03*
X165241000Y-99869000D03*
X169801838Y-99869000D03*
X164296419Y-97588581D03*
D15*
X167521419Y-97588581D03*
D14*
X170746419Y-97588581D03*
X165241000Y-95308162D03*
X169801838Y-95308162D03*
X167521419Y-94363581D03*
%TD*%
D17*
%TO.P,SW2,*%
%TO.N,*%
X184926000Y-58975000D03*
X186713927Y-57675994D03*
X180635168Y-53069175D03*
X182423095Y-51770170D03*
D18*
%TO.P,SW2,1*%
%TO.N,Net-(D1-VDD)*%
X183577240Y-58224436D03*
%TO.P,SW2,2*%
%TO.N,+3V3*%
X181813884Y-55797385D03*
%TO.P,SW2,3*%
%TO.N,N/C*%
X180932206Y-54583860D03*
%TD*%
D19*
%TO.P,D28,1,VDD*%
%TO.N,Net-(D21-VDD)*%
X142955423Y-93734505D03*
%TO.P,D28,2,DOUT*%
%TO.N,Net-(D28-DOUT)*%
X141935666Y-96872993D03*
%TO.P,D28,3,VSS*%
%TO.N,GND*%
X146595843Y-98387175D03*
%TO.P,D28,4,DIN*%
%TO.N,Net-(D27-DOUT)*%
X147615600Y-95248687D03*
%TD*%
D20*
%TO.P,D25,1,VDD*%
%TO.N,Net-(D21-VDD)*%
X139124101Y-69069965D03*
%TO.P,D25,2,DOUT*%
%TO.N,Net-(D25-DOUT)*%
X136454345Y-67130274D03*
%TO.P,D25,3,VSS*%
%TO.N,GND*%
X133574197Y-71094457D03*
%TO.P,D25,4,DIN*%
%TO.N,Net-(D24-DOUT)*%
X136243953Y-73034148D03*
%TD*%
D21*
%TO.P,D23,1,VDD*%
%TO.N,Net-(D21-VDD)*%
X157044467Y-66255033D03*
%TO.P,D23,2,DOUT*%
%TO.N,Net-(D23-DOUT)*%
X158064224Y-63116545D03*
%TO.P,D23,3,VSS*%
%TO.N,GND*%
X153404047Y-61602363D03*
%TO.P,D23,4,DIN*%
%TO.N,Net-(D22-DOUT)*%
X152384290Y-64740851D03*
%TD*%
D22*
%TO.P,D24,1,VDD*%
%TO.N,Net-(D21-VDD)*%
X147610955Y-64743371D03*
%TO.P,D24,2,DOUT*%
%TO.N,Net-(D24-DOUT)*%
X146591198Y-61604883D03*
%TO.P,D24,3,VSS*%
%TO.N,GND*%
X141931021Y-63119065D03*
%TO.P,D24,4,DIN*%
%TO.N,Net-(D23-DOUT)*%
X142950778Y-66257553D03*
%TD*%
D23*
%TO.P,D22,1,VDD*%
%TO.N,Net-(D21-VDD)*%
X163783155Y-73003996D03*
%TO.P,D22,2,DOUT*%
%TO.N,Net-(D22-DOUT)*%
X166452911Y-71064305D03*
%TO.P,D22,3,VSS*%
%TO.N,GND*%
X163572763Y-67100122D03*
%TO.P,D22,4,DIN*%
%TO.N,Net-(D21-DOUT)*%
X160903007Y-69039813D03*
%TD*%
D24*
%TO.P,J3,1,Pin_1*%
%TO.N,Net-(J3-Pin_1)*%
X190410000Y-75780000D03*
D25*
%TO.P,J3,2,Pin_2*%
%TO.N,Net-(J3-Pin_2)*%
X190410000Y-78320000D03*
%TO.P,J3,3,Pin_3*%
%TO.N,Net-(J3-Pin_3)*%
X190410000Y-80860000D03*
%TO.P,J3,4,Pin_4*%
%TO.N,Net-(J3-Pin_4)*%
X190410000Y-83400000D03*
%TD*%
D24*
%TO.P,J4,1,Pin_1*%
%TO.N,+3V3*%
X111110000Y-84470000D03*
D25*
%TO.P,J4,2,Pin_2*%
%TO.N,Net-(J4-Pin_2)*%
X111110000Y-81930000D03*
%TO.P,J4,3,Pin_3*%
%TO.N,Net-(J4-Pin_3)*%
X111110000Y-79390000D03*
%TO.P,J4,4,Pin_4*%
%TO.N,GND*%
X111110000Y-76850000D03*
%TD*%
D26*
%TO.P,D27,1,VDD*%
%TO.N,Net-(D21-VDD)*%
X136215656Y-86990312D03*
%TO.P,D27,2,DOUT*%
%TO.N,Net-(D27-DOUT)*%
X133545900Y-88930003D03*
%TO.P,D27,3,VSS*%
%TO.N,GND*%
X136426048Y-92894186D03*
%TO.P,D27,4,DIN*%
%TO.N,Net-(D26-DOUT)*%
X139095804Y-90954495D03*
%TD*%
D27*
%TO.P,R8,1*%
%TO.N,Net-(D32-A)*%
X176083017Y-53466785D03*
%TO.P,R8,2*%
%TO.N,Net-(D21-VDD)*%
X174464983Y-52291215D03*
%TD*%
D28*
%TO.P,U2,1,VI*%
%TO.N,+5V*%
X120332500Y-74373750D03*
%TO.P,U2,2,GND*%
%TO.N,GND*%
X122632500Y-74373750D03*
D29*
X122632500Y-68073750D03*
D28*
%TO.P,U2,3,VO*%
%TO.N,+3V3*%
X124932500Y-74373750D03*
%TD*%
D14*
%TO.P,H2,1*%
%TO.N,N/C*%
X167532581Y-65634581D03*
X165252162Y-64690000D03*
X169813000Y-64690000D03*
X164307581Y-62409581D03*
D15*
X167532581Y-62409581D03*
D14*
X170757581Y-62409581D03*
X165252162Y-60129162D03*
X169813000Y-60129162D03*
X167532581Y-59184581D03*
%TD*%
D24*
%TO.P,J2,1,Pin_1*%
%TO.N,GND*%
X111140000Y-90645000D03*
D25*
%TO.P,J2,2,Pin_2*%
%TO.N,Net-(J2-Pin_2)*%
X111140000Y-93185000D03*
%TD*%
D14*
%TO.P,H1,1*%
%TO.N,N/C*%
X132480581Y-65761581D03*
X130200162Y-64817000D03*
X134761000Y-64817000D03*
X129255581Y-62536581D03*
D15*
X132480581Y-62536581D03*
D14*
X135705581Y-62536581D03*
X130200162Y-60256162D03*
X134761000Y-60256162D03*
X132480581Y-59311581D03*
%TD*%
D30*
%TO.P,SW3,*%
%TO.N,*%
X176544000Y-49069000D03*
X177843005Y-47281073D03*
X170638175Y-44778168D03*
X171937181Y-42990241D03*
D31*
%TO.P,SW3,1*%
%TO.N,Net-(D21-VDD)*%
X175029315Y-48771962D03*
%TO.P,SW3,2*%
%TO.N,+3V3*%
X172602264Y-47008606D03*
%TO.P,SW3,3*%
%TO.N,N/C*%
X171388739Y-46126928D03*
%TD*%
D32*
%TO.P,C4,1*%
%TO.N,GND*%
X116282500Y-73823750D03*
%TO.P,C4,2*%
%TO.N,+5V*%
X116282500Y-71748750D03*
%TD*%
D33*
%TO.P,D21,1,VDD*%
%TO.N,Net-(D21-VDD)*%
X165250000Y-82450000D03*
%TO.P,D21,2,DOUT*%
%TO.N,Net-(D21-DOUT)*%
X168550000Y-82450000D03*
%TO.P,D21,3,VSS*%
%TO.N,GND*%
X168550000Y-77550000D03*
%TO.P,D21,4,DIN*%
%TO.N,/small_ring*%
X165250000Y-77550000D03*
%TD*%
D34*
%TO.P,R7,1*%
%TO.N,Net-(D31-A)*%
X183529000Y-63547000D03*
%TO.P,R7,2*%
%TO.N,Net-(D1-VDD)*%
X182353430Y-61928966D03*
%TD*%
D24*
%TO.P,J1,1,Pin_1*%
%TO.N,GND*%
X111000000Y-70525000D03*
D25*
%TO.P,J1,2,Pin_2*%
%TO.N,+5V*%
X111000000Y-67985000D03*
%TD*%
D35*
%TO.P,C5,1*%
%TO.N,GND*%
X128982500Y-71748750D03*
%TO.P,C5,2*%
%TO.N,+3V3*%
X128982500Y-73823750D03*
%TD*%
D33*
%TO.P,D26,1,VDD*%
%TO.N,Net-(D21-VDD)*%
X134760886Y-77523211D03*
%TO.P,D26,2,DOUT*%
%TO.N,Net-(D26-DOUT)*%
X131460886Y-77523211D03*
%TO.P,D26,3,VSS*%
%TO.N,GND*%
X131460886Y-82423211D03*
%TO.P,D26,4,DIN*%
%TO.N,Net-(D25-DOUT)*%
X134760886Y-82423211D03*
%TD*%
D36*
%TO.P,D30,1,VDD*%
%TO.N,Net-(D21-VDD)*%
X160898305Y-90930330D03*
%TO.P,D30,2,DOUT*%
%TO.N,unconnected-(D30-DOUT-Pad2)*%
X163568061Y-92870021D03*
%TO.P,D30,3,VSS*%
%TO.N,GND*%
X166448209Y-88905838D03*
%TO.P,D30,4,DIN*%
%TO.N,Net-(D29-DOUT)*%
X163778453Y-86966147D03*
%TD*%
D37*
%TO.P,C2,1*%
%TO.N,GND*%
X123182500Y-83105000D03*
%TO.P,C2,2*%
%TO.N,+3V3*%
X125257500Y-83105000D03*
%TD*%
D38*
%TO.P,U1,28,GND*%
%TO.N,GND*%
X149590000Y-89740000D03*
%TO.P,U1,29,GND*%
X148490000Y-89740000D03*
%TO.P,U1,30,GND*%
X150140000Y-90290000D03*
%TO.P,U1,31,GND*%
X149040000Y-90290000D03*
%TO.P,U1,32,GND*%
X147940000Y-90290000D03*
%TO.P,U1,33,GND*%
X149590000Y-90840000D03*
%TO.P,U1,34,GND*%
X148490000Y-90840000D03*
%TO.P,U1,35,GND*%
X150140000Y-91390000D03*
%TO.P,U1,36,GND*%
X149040000Y-91390000D03*
%TO.P,U1,37,GND*%
X147940000Y-91390000D03*
%TO.P,U1,38,GND*%
X149590000Y-91940000D03*
%TO.P,U1,39,GND*%
X148490000Y-91940000D03*
%TD*%
D39*
%TO.N,/small_ring*%
X149620000Y-84692500D03*
%TO.N,GND*%
X173020000Y-76180000D03*
X116290000Y-74990000D03*
X168670000Y-75961250D03*
X119320000Y-65150000D03*
X132157500Y-70405000D03*
X137960000Y-94950000D03*
X122632500Y-80723750D03*
X127395000Y-71992500D03*
X126410000Y-68150000D03*
X188690000Y-61700000D03*
X129450000Y-83020000D03*
X181260000Y-49800000D03*
X162320000Y-65642500D03*
X140095000Y-64055000D03*
X166110000Y-90630000D03*
X161526250Y-97392500D03*
X148032500Y-98980000D03*
X151207500Y-61673750D03*
X122632500Y-75961250D03*
%TO.N,/large_ring*%
X182163750Y-79930000D03*
X177401250Y-82311250D03*
X163113750Y-82311250D03*
X149620000Y-86280000D03*
%TO.N,/small_ring*%
X163058155Y-79930000D03*
X165495000Y-79930000D03*
%TO.N,Net-(D1-VDD)*%
X175560000Y-69370000D03*
%TO.N,Net-(D21-VDD)*%
X173540000Y-51010000D03*
X156310000Y-68600000D03*
X159990000Y-63780000D03*
X170580000Y-51240000D03*
%TO.N,+3V3*%
X168220000Y-73500000D03*
X131363750Y-74373750D03*
%TO.N,Net-(SW1-B)*%
X171380000Y-90630000D03*
%TO.N,Net-(J2-Pin_2)*%
X159938750Y-102155000D03*
X162500000Y-98030000D03*
X160290000Y-95100000D03*
%TO.N,Net-(J3-Pin_3)*%
X156763750Y-98980000D03*
X174226250Y-92630000D03*
X178988750Y-89455000D03*
X175020000Y-90248750D03*
%TO.N,Net-(J3-Pin_4)*%
X162343903Y-92043903D03*
%TO.N,Net-(J3-Pin_2)*%
X172638750Y-92630000D03*
X176607500Y-88661250D03*
X155763747Y-98980000D03*
%TO.N,Net-(J3-Pin_1)*%
X154763744Y-99135534D03*
%TO.N,Net-(J4-Pin_3)*%
X125013750Y-88661250D03*
%TO.N,Net-(J4-Pin_2)*%
X125013750Y-87073750D03*
%TD*%
D40*
%TO.N,GND*%
X172700000Y-76500000D02*
X173020000Y-76180000D01*
X172700000Y-78020000D02*
X172700000Y-76500000D01*
X178900000Y-78020000D02*
X172700000Y-78020000D01*
%TO.N,/large_ring*%
X182140000Y-79953750D02*
X182163750Y-79930000D01*
X182140000Y-83000000D02*
X182140000Y-79953750D01*
X181670000Y-83470000D02*
X182140000Y-83000000D01*
X178210000Y-83470000D02*
X181670000Y-83470000D01*
X177401250Y-82661250D02*
X178210000Y-83470000D01*
X177401250Y-82311250D02*
X177401250Y-82661250D01*
%TO.N,Net-(SW1-B)*%
X172833750Y-81586250D02*
X172700000Y-81720000D01*
X178766250Y-81586250D02*
X172833750Y-81586250D01*
X178900000Y-81720000D02*
X178766250Y-81586250D01*
X172700000Y-89310000D02*
X171380000Y-90630000D01*
X172700000Y-81720000D02*
X172700000Y-89310000D01*
%TO.N,+5V*%
X116282500Y-71748750D02*
X117626250Y-71748750D01*
X116282500Y-70405000D02*
X116282500Y-71748750D01*
X117626250Y-71748750D02*
X117870000Y-71992500D01*
X118663750Y-74373750D02*
X120332500Y-74373750D01*
X117870000Y-71992500D02*
X117870000Y-73580000D01*
X117870000Y-73580000D02*
X118663750Y-74373750D01*
X113862500Y-67985000D02*
X116282500Y-70405000D01*
X111000000Y-67985000D02*
X113862500Y-67985000D01*
%TO.N,GND*%
X116282500Y-73823750D02*
X116282500Y-74982500D01*
X116282500Y-73823750D02*
X116526250Y-73823750D01*
X180715758Y-49255758D02*
X181260000Y-49800000D01*
X187787242Y-60404520D02*
X187787242Y-60797242D01*
X136426048Y-92894186D02*
X137960000Y-94428138D01*
X116282500Y-74982500D02*
X116290000Y-74990000D01*
X123182500Y-80173750D02*
X122632500Y-80723750D01*
X168550000Y-76081250D02*
X168670000Y-75961250D01*
X130046789Y-82423211D02*
X129450000Y-83020000D01*
X147439675Y-98387175D02*
X148032500Y-98980000D01*
X163572763Y-67100122D02*
X163572763Y-66895263D01*
X166448209Y-90291791D02*
X166110000Y-90630000D01*
X158072483Y-96896352D02*
X161030102Y-96896352D01*
X141030935Y-63119065D02*
X140095000Y-64055000D01*
X166448209Y-88905838D02*
X166837912Y-88905838D01*
X137960000Y-94428138D02*
X137960000Y-94950000D01*
X123182500Y-78342500D02*
X123182500Y-80173750D01*
X122632500Y-68073750D02*
X119708750Y-65150000D01*
X187787242Y-60797242D02*
X188690000Y-61700000D01*
X126333750Y-68073750D02*
X126410000Y-68150000D01*
X128982500Y-71748750D02*
X127638750Y-71748750D01*
X122632500Y-74373750D02*
X122632500Y-75961250D01*
X161030102Y-96896352D02*
X161526250Y-97392500D01*
X153404047Y-61602363D02*
X151278887Y-61602363D01*
X168550000Y-77550000D02*
X168550000Y-76081250D01*
X166448209Y-88905838D02*
X166448209Y-90291791D01*
X146595843Y-98387175D02*
X147439675Y-98387175D01*
X141931021Y-63119065D02*
X141030935Y-63119065D01*
X151278887Y-61602363D02*
X151207500Y-61673750D01*
X119708750Y-65150000D02*
X119320000Y-65150000D01*
X131460886Y-82423211D02*
X130046789Y-82423211D01*
X179686480Y-49255758D02*
X180715758Y-49255758D01*
X133574197Y-71094457D02*
X132846957Y-71094457D01*
X122632500Y-68073750D02*
X126333750Y-68073750D01*
X127638750Y-71748750D02*
X127395000Y-71992500D01*
X123182500Y-83105000D02*
X123182500Y-81273750D01*
X123182500Y-81273750D02*
X122632500Y-80723750D01*
X163572763Y-66895263D02*
X162320000Y-65642500D01*
X132846957Y-71094457D02*
X132157500Y-70405000D01*
%TO.N,/large_ring*%
X163113750Y-82330673D02*
X163113750Y-82311250D01*
X149620000Y-86280000D02*
X159164423Y-86280000D01*
X159164423Y-86280000D02*
X163113750Y-82330673D01*
%TO.N,Net-(D21-DOUT)*%
X167775000Y-81675000D02*
X167775000Y-75355575D01*
X167775000Y-75355575D02*
X161459238Y-69039813D01*
X168550000Y-82450000D02*
X167775000Y-81675000D01*
X161459238Y-69039813D02*
X160903007Y-69039813D01*
%TO.N,/small_ring*%
X162320000Y-79930000D02*
X163058155Y-79930000D01*
X165495000Y-79930000D02*
X165495000Y-77795000D01*
X161526250Y-80723750D02*
X162320000Y-79930000D01*
X149620000Y-84692500D02*
X160115527Y-84692500D01*
X161526250Y-83281777D02*
X161526250Y-80723750D01*
X165495000Y-77795000D02*
X165250000Y-77550000D01*
X160115527Y-84692500D02*
X161526250Y-83281777D01*
%TO.N,Net-(D22-DOUT)*%
X157858150Y-64740851D02*
X152384290Y-64740851D01*
X164181604Y-71064305D02*
X157858150Y-64740851D01*
X166452911Y-71064305D02*
X164181604Y-71064305D01*
%TO.N,Net-(D23-DOUT)*%
X158064224Y-63116545D02*
X146091786Y-63116545D01*
X146091786Y-63116545D02*
X142950778Y-66257553D01*
%TO.N,Net-(D24-DOUT)*%
X146591198Y-61604883D02*
X145335078Y-61604883D01*
X145335078Y-61604883D02*
X136243953Y-70696008D01*
X136243953Y-70696008D02*
X136243953Y-73034148D01*
%TO.N,Net-(D25-DOUT)*%
X135793953Y-67790666D02*
X135793953Y-72324797D01*
X133985886Y-74132864D02*
X133985886Y-81648211D01*
X136454345Y-67130274D02*
X135793953Y-67790666D01*
X135793953Y-72324797D02*
X133985886Y-74132864D01*
X133985886Y-81648211D02*
X134760886Y-82423211D01*
%TO.N,Net-(D26-DOUT)*%
X132235886Y-86358386D02*
X136831995Y-90954495D01*
X131460886Y-77523211D02*
X132235886Y-78298211D01*
X132235886Y-78298211D02*
X132235886Y-86358386D01*
X136831995Y-90954495D02*
X139095804Y-90954495D01*
%TO.N,Net-(D27-DOUT)*%
X140332437Y-95248687D02*
X147615600Y-95248687D01*
X134013753Y-88930003D02*
X140332437Y-95248687D01*
X133545900Y-88930003D02*
X134013753Y-88930003D01*
%TO.N,Net-(D28-DOUT)*%
X141935666Y-96872993D02*
X153937597Y-96872993D01*
X153937597Y-96872993D02*
X157052726Y-93757864D01*
%TO.N,Net-(D29-DOUT)*%
X163778453Y-89584047D02*
X163778453Y-86966147D01*
X154951966Y-98410534D02*
X163778453Y-89584047D01*
X153412306Y-98410534D02*
X154951966Y-98410534D01*
%TO.N,Net-(D1-VDD)*%
X182353430Y-61928966D02*
X175560000Y-68722396D01*
X175560000Y-68722396D02*
X175560000Y-69370000D01*
X182353430Y-59448246D02*
X182353430Y-61928966D01*
X183577240Y-58224436D02*
X182353430Y-59448246D01*
%TO.N,Net-(D21-VDD)*%
X136215656Y-78977981D02*
X134760886Y-77523211D01*
X160898305Y-90930330D02*
X156734265Y-90930330D01*
X165250000Y-82450000D02*
X160898305Y-86801695D01*
X142955423Y-93734505D02*
X142955423Y-93261347D01*
X163783155Y-80983155D02*
X165250000Y-82450000D01*
X150855008Y-93734505D02*
X142955423Y-93734505D01*
X163320272Y-73003996D02*
X163783155Y-73003996D01*
X156310000Y-68600000D02*
X156310000Y-66989500D01*
X174464983Y-51934983D02*
X173540000Y-51010000D01*
X139124101Y-73159996D02*
X139124101Y-69069965D01*
X134760886Y-77523211D02*
X139124101Y-73159996D01*
X175029315Y-48771962D02*
X174464983Y-49336294D01*
X159990000Y-61830000D02*
X159990000Y-63780000D01*
X136215656Y-86990312D02*
X136215656Y-78977981D01*
X174464983Y-49336294D02*
X174464983Y-52291215D01*
X143284361Y-69069965D02*
X147610955Y-64743371D01*
X157044467Y-66255033D02*
X157044467Y-66728191D01*
X147610955Y-64743371D02*
X149122617Y-66255033D01*
X149122617Y-66255033D02*
X157044467Y-66255033D01*
X157044467Y-66728191D02*
X163320272Y-73003996D01*
X139124101Y-69069965D02*
X143284361Y-69069965D01*
X156734265Y-90930330D02*
X152392549Y-95272046D01*
X152392549Y-95272046D02*
X150855008Y-93734505D01*
X136684388Y-86990312D02*
X136215656Y-86990312D01*
X156310000Y-66989500D02*
X157044467Y-66255033D01*
X174464983Y-52291215D02*
X174464983Y-51934983D01*
X170580000Y-51240000D02*
X159990000Y-61830000D01*
X160898305Y-86801695D02*
X160898305Y-90930330D01*
X163783155Y-73003996D02*
X163783155Y-80983155D01*
X142955423Y-93261347D02*
X136684388Y-86990312D01*
%TO.N,Net-(D31-A)*%
X185466520Y-61609480D02*
X186128758Y-61609480D01*
X183529000Y-63547000D02*
X185466520Y-61609480D01*
%TO.N,Net-(D32-A)*%
X178481520Y-51068282D02*
X178481520Y-50914242D01*
X176083017Y-53466785D02*
X178481520Y-51068282D01*
%TO.N,+3V3*%
X125257500Y-78342500D02*
X125257500Y-74698750D01*
X172602264Y-47008606D02*
X172602264Y-52012264D01*
X125257500Y-74698750D02*
X124932500Y-74373750D01*
X125807500Y-87305305D02*
X125807500Y-83655000D01*
X176387385Y-55797385D02*
X181813884Y-55797385D01*
X130020000Y-73823750D02*
X128982500Y-73823750D01*
X114438750Y-87798750D02*
X125314055Y-87798750D01*
X125807500Y-83655000D02*
X125257500Y-83105000D01*
X176387385Y-55797385D02*
X176387385Y-65332615D01*
X125257500Y-83105000D02*
X125257500Y-78342500D01*
X125314055Y-87798750D02*
X125807500Y-87305305D01*
X128432500Y-74373750D02*
X128982500Y-73823750D01*
X124932500Y-74373750D02*
X128432500Y-74373750D01*
X176387385Y-65332615D02*
X168220000Y-73500000D01*
X172602264Y-52012264D02*
X176387385Y-55797385D01*
X130570000Y-74373750D02*
X130020000Y-73823750D01*
X131363750Y-74373750D02*
X130570000Y-74373750D01*
X111110000Y-84470000D02*
X114438750Y-87798750D01*
%TO.N,Net-(J2-Pin_2)*%
X120110000Y-102155000D02*
X111140000Y-93185000D01*
X160290000Y-95100000D02*
X162500000Y-97310000D01*
X162500000Y-97310000D02*
X162500000Y-98030000D01*
X159938750Y-102155000D02*
X120110000Y-102155000D01*
%TO.N,Net-(J3-Pin_3)*%
X174226250Y-92630000D02*
X174226250Y-97424488D01*
X169437157Y-102213581D02*
X165553581Y-102213581D01*
X178195000Y-90248750D02*
X175020000Y-90248750D01*
X161526250Y-98186250D02*
X160732500Y-98980000D01*
X160732500Y-98980000D02*
X156763750Y-98980000D01*
X165553581Y-102213581D02*
X161526250Y-98186250D01*
X178988750Y-89455000D02*
X178195000Y-90248750D01*
X174226250Y-97424488D02*
X169437157Y-102213581D01*
%TO.N,Net-(J3-Pin_4)*%
X162343903Y-92043903D02*
X163032806Y-91355000D01*
X163032806Y-91355000D02*
X182455000Y-91355000D01*
X182455000Y-91355000D02*
X190410000Y-83400000D01*
%TO.N,Net-(J3-Pin_2)*%
X155763747Y-99567497D02*
X155970000Y-99773750D01*
X177401250Y-87867500D02*
X180862500Y-87867500D01*
X180862500Y-87867500D02*
X190410000Y-78320000D01*
X174951250Y-92329695D02*
X174457805Y-91836250D01*
X170257500Y-102948750D02*
X174951250Y-98255000D01*
X174951250Y-98255000D02*
X174951250Y-92329695D01*
X155970000Y-99773750D02*
X161526250Y-99773750D01*
X164701250Y-102948750D02*
X170257500Y-102948750D01*
X174457805Y-91836250D02*
X173432500Y-91836250D01*
X155763747Y-98980000D02*
X155763747Y-99567497D01*
X161526250Y-99773750D02*
X164701250Y-102948750D01*
X176607500Y-88661250D02*
X177401250Y-87867500D01*
X173432500Y-91836250D02*
X172638750Y-92630000D01*
%TO.N,Net-(J3-Pin_1)*%
X156127354Y-100567500D02*
X161526250Y-100567500D01*
X192482500Y-77548750D02*
X191688750Y-76755000D01*
X161526250Y-100567500D02*
X164701250Y-103742500D01*
X164701250Y-103742500D02*
X171729201Y-103742500D01*
X171729201Y-103742500D02*
X189985451Y-85486250D01*
X191688750Y-76755000D02*
X191688750Y-75961250D01*
X189985451Y-85486250D02*
X192482500Y-85486250D01*
X191507500Y-75780000D02*
X190410000Y-75780000D01*
X192482500Y-85486250D02*
X192482500Y-77548750D01*
X154763744Y-99135534D02*
X154763744Y-99203890D01*
X191688750Y-75961250D02*
X191507500Y-75780000D01*
X154763744Y-99203890D02*
X156127354Y-100567500D01*
%TO.N,Net-(J4-Pin_3)*%
X111110000Y-79390000D02*
X108885000Y-79390000D01*
X109932500Y-87073750D02*
X110726250Y-87073750D01*
X112313750Y-87073750D02*
X113901250Y-88661250D01*
X108885000Y-79390000D02*
X108345000Y-79930000D01*
X113901250Y-88661250D02*
X125013750Y-88661250D01*
X110726250Y-87073750D02*
X112313750Y-87073750D01*
X108345000Y-79930000D02*
X108345000Y-85486250D01*
X108345000Y-85486250D02*
X109932500Y-87073750D01*
%TO.N,Net-(J4-Pin_2)*%
X116695000Y-81930000D02*
X111110000Y-81930000D01*
X125013750Y-87073750D02*
X121838750Y-87073750D01*
X121838750Y-87073750D02*
X116695000Y-81930000D01*
%TD*%
M02*
