M48
; DRILL file {KiCad 8.0.2} date 2024-09-15T21:25:20+0200
; FORMAT={-:-/ absolute / inch / decimal}
; #@! TF.CreationDate,2024-09-15T21:25:20+02:00
; #@! TF.GenerationSoftware,Kicad,Pcbnew,8.0.2
; #@! TF.FileFunction,Plated,1,2,PTH
FMAT,2
INCH
; #@! TA.AperFunction,Plated,PTH,ComponentDrill
T1C0.0118
; #@! TA.AperFunction,Plated,PTH,ViaDrill
T2C0.0157
; #@! TA.AperFunction,Plated,PTH,ComponentDrill
T3C0.0236
; #@! TA.AperFunction,Plated,PTH,ComponentDrill
T4C0.0394
; #@! TA.AperFunction,Plated,PTH,ComponentDrill
T5C0.1693
%
G90
G05
T1
X5.8244Y-3.5547
X5.8244Y-3.598
X5.8461Y-3.5331
X5.8461Y-3.5764
X5.8461Y-3.6197
X5.8677Y-3.5547
X5.8677Y-3.598
X5.8894Y-3.5331
X5.8894Y-3.5764
X5.8894Y-3.6197
X5.911Y-3.5547
X5.911Y-3.598
T2
X4.5783Y-2.9524
X4.6976Y-2.565
X4.8281Y-2.9906
X4.8281Y-3.1781
X4.9218Y-3.4281
X4.9218Y-3.4906
X4.9768Y-2.6831
X5.0156Y-2.8344
X5.0965Y-3.2685
X5.1718Y-2.9281
X5.2031Y-2.7719
X5.4315Y-3.7382
X5.5156Y-2.5219
X5.8281Y-3.8969
X5.8906Y-3.3344
X5.8906Y-3.3969
X5.9531Y-2.4281
X6.0931Y-3.903
X6.1324Y-3.8969
X6.1539Y-2.7008
X6.1718Y-3.8969
X6.2968Y-4.0219
X6.2988Y-2.511
X6.3106Y-3.7441
X6.3593Y-3.8344
X6.3906Y-2.5844
X6.3915Y-3.6238
X6.3976Y-3.8594
X6.4196Y-3.1469
X6.4218Y-3.2406
X6.5156Y-3.1469
X6.5398Y-3.5681
X6.6228Y-2.8937
X6.6406Y-2.9906
X6.7157Y-2.0173
X6.7472Y-3.5681
X6.7968Y-3.6469
X6.8118Y-2.9992
X6.8323Y-2.0083
X6.8593Y-3.6469
X6.8906Y-3.5531
X6.9118Y-2.7311
X6.9531Y-3.4906
X6.9843Y-3.2406
X7.0468Y-3.5219
X7.1362Y-1.9606
X7.1718Y-3.1469
X7.4287Y-2.4291
T3
X5.0888Y-2.4621
X5.0888Y-3.8371
X5.126Y-2.3723
X5.126Y-2.5519
X5.126Y-3.7473
X5.126Y-3.9269
X5.2158Y-2.3351
X5.2158Y-2.589
X5.2158Y-3.7101
X5.2158Y-3.964
X5.3056Y-2.3723
X5.3056Y-2.5519
X5.3056Y-3.7473
X5.3056Y-3.9269
X5.3427Y-2.4621
X5.3427Y-3.8371
X6.4684Y-3.8421
X6.4688Y-2.4571
X6.5056Y-3.7523
X6.5056Y-3.9319
X6.506Y-2.3673
X6.506Y-2.5469
X6.5953Y-3.7151
X6.5953Y-3.969
X6.5958Y-2.3301
X6.5958Y-2.584
X6.6851Y-3.7523
X6.6851Y-3.9319
X6.6856Y-2.3673
X6.6856Y-2.5469
X6.7223Y-3.8421
X6.7227Y-2.4571
T4
X4.3701Y-2.6766
X4.3701Y-2.7766
X4.3744Y-3.0256
X4.3744Y-3.1256
X4.3744Y-3.2256
X4.3744Y-3.3256
X4.3756Y-3.5687
X4.3756Y-3.6687
X7.4965Y-2.9835
X7.4965Y-3.0835
X7.4965Y-3.1835
X7.4965Y-3.2835
T5
X5.2158Y-2.4621
X5.2158Y-3.8371
X6.5953Y-3.8421
X6.5958Y-2.4571
M30
