%TF.GenerationSoftware,KiCad,Pcbnew,8.0.2*%
%TF.CreationDate,2024-09-15T21:25:22+02:00*%
%TF.ProjectId,LED_Coaster,4c45445f-436f-4617-9374-65722e6b6963,rev?*%
%TF.SameCoordinates,Original*%
%TF.FileFunction,Paste,Top*%
%TF.FilePolarity,Positive*%
%FSLAX46Y46*%
G04 Gerber Fmt 4.6, Leading zero omitted, Abs format (unit mm)*
G04 Created by KiCad (PCBNEW 8.0.2) date 2024-09-15 21:25:22*
%MOMM*%
%LPD*%
G01*
G04 APERTURE LIST*
G04 Aperture macros list*
%AMRoundRect*
0 Rectangle with rounded corners*
0 $1 Rounding radius*
0 $2 $3 $4 $5 $6 $7 $8 $9 X,Y pos of 4 corners*
0 Add a 4 corners polygon primitive as box body*
4,1,4,$2,$3,$4,$5,$6,$7,$8,$9,$2,$3,0*
0 Add four circle primitives for the rounded corners*
1,1,$1+$1,$2,$3*
1,1,$1+$1,$4,$5*
1,1,$1+$1,$6,$7*
1,1,$1+$1,$8,$9*
0 Add four rect primitives between the rounded corners*
20,1,$1+$1,$2,$3,$4,$5,0*
20,1,$1+$1,$4,$5,$6,$7,0*
20,1,$1+$1,$6,$7,$8,$9,0*
20,1,$1+$1,$8,$9,$2,$3,0*%
%AMRotRect*
0 Rectangle, with rotation*
0 The origin of the aperture is its center*
0 $1 length*
0 $2 width*
0 $3 Rotation angle, in degrees counterclockwise*
0 Add horizontal line*
21,1,$1,$2,0,0,$3*%
G04 Aperture macros list end*
%ADD10R,1.800000X1.100000*%
%ADD11RoundRect,0.250000X-0.173027X0.527434X-0.555088X0.001573X0.173027X-0.527434X0.555088X-0.001573X0*%
%ADD12RoundRect,0.250000X-0.001573X0.555088X-0.527434X0.173027X0.001573X-0.555088X0.527434X-0.173027X0*%
%ADD13RotRect,1.500000X0.900000X18.000000*%
%ADD14RoundRect,0.250000X0.337500X0.475000X-0.337500X0.475000X-0.337500X-0.475000X0.337500X-0.475000X0*%
%ADD15RotRect,1.000000X0.800000X126.000000*%
%ADD16RotRect,0.700000X1.500000X126.000000*%
%ADD17RotRect,1.500000X0.900000X342.000000*%
%ADD18RotRect,1.500000X0.900000X234.000000*%
%ADD19RotRect,1.500000X0.900000X162.000000*%
%ADD20RotRect,1.500000X0.900000X198.000000*%
%ADD21RotRect,1.500000X0.900000X126.000000*%
%ADD22RotRect,1.500000X0.900000X306.000000*%
%ADD23RoundRect,0.250000X0.547659X0.158333X-0.018653X0.569782X-0.547659X-0.158333X0.018653X-0.569782X0*%
%ADD24RoundRect,0.375000X0.375000X-0.625000X0.375000X0.625000X-0.375000X0.625000X-0.375000X-0.625000X0*%
%ADD25RoundRect,0.500000X1.400000X-0.500000X1.400000X0.500000X-1.400000X0.500000X-1.400000X-0.500000X0*%
%ADD26RotRect,1.000000X0.800000X144.000000*%
%ADD27RotRect,0.700000X1.500000X144.000000*%
%ADD28RoundRect,0.250000X0.475000X-0.337500X0.475000X0.337500X-0.475000X0.337500X-0.475000X-0.337500X0*%
%ADD29R,0.900000X1.500000*%
%ADD30RoundRect,0.250000X0.569782X-0.018653X0.158333X0.547659X-0.569782X0.018653X-0.158333X-0.547659X0*%
%ADD31RoundRect,0.250000X-0.475000X0.337500X-0.475000X-0.337500X0.475000X-0.337500X0.475000X0.337500X0*%
%ADD32RotRect,1.500000X0.900000X54.000000*%
%ADD33RoundRect,0.250000X-0.337500X-0.475000X0.337500X-0.475000X0.337500X0.475000X-0.337500X0.475000X0*%
G04 APERTURE END LIST*
D10*
%TO.C,SW1*%
X172700000Y-78020000D03*
X178900000Y-78020000D03*
X172700000Y-81720000D03*
X178900000Y-81720000D03*
%TD*%
D11*
%TO.C,D32*%
X179686480Y-49255758D03*
X178481520Y-50914242D03*
%TD*%
D12*
%TO.C,D31*%
X187787242Y-60404520D03*
X186128758Y-61609480D03*
%TD*%
D13*
%TO.C,D29*%
X152392549Y-95272046D03*
X153412306Y-98410534D03*
X158072483Y-96896352D03*
X157052726Y-93757864D03*
%TD*%
D14*
%TO.C,C1*%
X125257500Y-78342500D03*
X123182500Y-78342500D03*
%TD*%
D15*
%TO.C,SW2*%
X184926000Y-58975000D03*
X186713927Y-57675994D03*
X180635168Y-53069175D03*
X182423095Y-51770170D03*
D16*
X183577240Y-58224436D03*
X181813884Y-55797385D03*
X180932206Y-54583860D03*
%TD*%
D17*
%TO.C,D28*%
X142955423Y-93734505D03*
X141935666Y-96872993D03*
X146595843Y-98387175D03*
X147615600Y-95248687D03*
%TD*%
D18*
%TO.C,D25*%
X139124101Y-69069965D03*
X136454345Y-67130274D03*
X133574197Y-71094457D03*
X136243953Y-73034148D03*
%TD*%
D19*
%TO.C,D23*%
X157044467Y-66255033D03*
X158064224Y-63116545D03*
X153404047Y-61602363D03*
X152384290Y-64740851D03*
%TD*%
D20*
%TO.C,D24*%
X147610955Y-64743371D03*
X146591198Y-61604883D03*
X141931021Y-63119065D03*
X142950778Y-66257553D03*
%TD*%
D21*
%TO.C,D22*%
X163783155Y-73003996D03*
X166452911Y-71064305D03*
X163572763Y-67100122D03*
X160903007Y-69039813D03*
%TD*%
D22*
%TO.C,D27*%
X136215656Y-86990312D03*
X133545900Y-88930003D03*
X136426048Y-92894186D03*
X139095804Y-90954495D03*
%TD*%
D23*
%TO.C,R8*%
X176083017Y-53466785D03*
X174464983Y-52291215D03*
%TD*%
D24*
%TO.C,U2*%
X120332500Y-74373750D03*
X122632500Y-74373750D03*
D25*
X122632500Y-68073750D03*
D24*
X124932500Y-74373750D03*
%TD*%
D26*
%TO.C,SW3*%
X176544000Y-49069000D03*
X177843005Y-47281073D03*
X170638175Y-44778168D03*
X171937181Y-42990241D03*
D27*
X175029315Y-48771962D03*
X172602264Y-47008606D03*
X171388739Y-46126928D03*
%TD*%
D28*
%TO.C,C4*%
X116282500Y-73823750D03*
X116282500Y-71748750D03*
%TD*%
D29*
%TO.C,D21*%
X165250000Y-82450000D03*
X168550000Y-82450000D03*
X168550000Y-77550000D03*
X165250000Y-77550000D03*
%TD*%
D30*
%TO.C,R7*%
X183529000Y-63547000D03*
X182353430Y-61928966D03*
%TD*%
D31*
%TO.C,C5*%
X128982500Y-71748750D03*
X128982500Y-73823750D03*
%TD*%
D29*
%TO.C,D26*%
X134760886Y-77523211D03*
X131460886Y-77523211D03*
X131460886Y-82423211D03*
X134760886Y-82423211D03*
%TD*%
D32*
%TO.C,D30*%
X160898305Y-90930330D03*
X163568061Y-92870021D03*
X166448209Y-88905838D03*
X163778453Y-86966147D03*
%TD*%
D33*
%TO.C,C2*%
X123182500Y-83105000D03*
X125257500Y-83105000D03*
%TD*%
M02*
