%TF.GenerationSoftware,KiCad,Pcbnew,8.0.2*%
%TF.CreationDate,2025-09-10T20:02:56+02:00*%
%TF.ProjectId,LED_Coaster,4c45445f-436f-4617-9374-65722e6b6963,rev?*%
%TF.SameCoordinates,Original*%
%TF.FileFunction,Legend,Bot*%
%TF.FilePolarity,Positive*%
%FSLAX46Y46*%
G04 Gerber Fmt 4.6, Leading zero omitted, Abs format (unit mm)*
G04 Created by KiCad (PCBNEW 8.0.2) date 2025-09-10 20:02:56*
%MOMM*%
%LPD*%
G01*
G04 APERTURE LIST*
%ADD10C,0.150000*%
%ADD11C,0.120000*%
G04 APERTURE END LIST*
D10*
X163766666Y-89524819D02*
X164099999Y-89048628D01*
X164338094Y-89524819D02*
X164338094Y-88524819D01*
X164338094Y-88524819D02*
X163957142Y-88524819D01*
X163957142Y-88524819D02*
X163861904Y-88572438D01*
X163861904Y-88572438D02*
X163814285Y-88620057D01*
X163814285Y-88620057D02*
X163766666Y-88715295D01*
X163766666Y-88715295D02*
X163766666Y-88858152D01*
X163766666Y-88858152D02*
X163814285Y-88953390D01*
X163814285Y-88953390D02*
X163861904Y-89001009D01*
X163861904Y-89001009D02*
X163957142Y-89048628D01*
X163957142Y-89048628D02*
X164338094Y-89048628D01*
X162814285Y-89524819D02*
X163385713Y-89524819D01*
X163099999Y-89524819D02*
X163099999Y-88524819D01*
X163099999Y-88524819D02*
X163195237Y-88667676D01*
X163195237Y-88667676D02*
X163290475Y-88762914D01*
X163290475Y-88762914D02*
X163385713Y-88810533D01*
X168656666Y-92749580D02*
X168704285Y-92797200D01*
X168704285Y-92797200D02*
X168847142Y-92844819D01*
X168847142Y-92844819D02*
X168942380Y-92844819D01*
X168942380Y-92844819D02*
X169085237Y-92797200D01*
X169085237Y-92797200D02*
X169180475Y-92701961D01*
X169180475Y-92701961D02*
X169228094Y-92606723D01*
X169228094Y-92606723D02*
X169275713Y-92416247D01*
X169275713Y-92416247D02*
X169275713Y-92273390D01*
X169275713Y-92273390D02*
X169228094Y-92082914D01*
X169228094Y-92082914D02*
X169180475Y-91987676D01*
X169180475Y-91987676D02*
X169085237Y-91892438D01*
X169085237Y-91892438D02*
X168942380Y-91844819D01*
X168942380Y-91844819D02*
X168847142Y-91844819D01*
X168847142Y-91844819D02*
X168704285Y-91892438D01*
X168704285Y-91892438D02*
X168656666Y-91940057D01*
X168323332Y-91844819D02*
X167704285Y-91844819D01*
X167704285Y-91844819D02*
X168037618Y-92225771D01*
X168037618Y-92225771D02*
X167894761Y-92225771D01*
X167894761Y-92225771D02*
X167799523Y-92273390D01*
X167799523Y-92273390D02*
X167751904Y-92321009D01*
X167751904Y-92321009D02*
X167704285Y-92416247D01*
X167704285Y-92416247D02*
X167704285Y-92654342D01*
X167704285Y-92654342D02*
X167751904Y-92749580D01*
X167751904Y-92749580D02*
X167799523Y-92797200D01*
X167799523Y-92797200D02*
X167894761Y-92844819D01*
X167894761Y-92844819D02*
X168180475Y-92844819D01*
X168180475Y-92844819D02*
X168275713Y-92797200D01*
X168275713Y-92797200D02*
X168323332Y-92749580D01*
X163934819Y-94613333D02*
X163458628Y-94280000D01*
X163934819Y-94041905D02*
X162934819Y-94041905D01*
X162934819Y-94041905D02*
X162934819Y-94422857D01*
X162934819Y-94422857D02*
X162982438Y-94518095D01*
X162982438Y-94518095D02*
X163030057Y-94565714D01*
X163030057Y-94565714D02*
X163125295Y-94613333D01*
X163125295Y-94613333D02*
X163268152Y-94613333D01*
X163268152Y-94613333D02*
X163363390Y-94565714D01*
X163363390Y-94565714D02*
X163411009Y-94518095D01*
X163411009Y-94518095D02*
X163458628Y-94422857D01*
X163458628Y-94422857D02*
X163458628Y-94041905D01*
X163268152Y-95470476D02*
X163934819Y-95470476D01*
X162887200Y-95232381D02*
X163601485Y-94994286D01*
X163601485Y-94994286D02*
X163601485Y-95613333D01*
X146594819Y-57536665D02*
X147309104Y-57536665D01*
X147309104Y-57536665D02*
X147451961Y-57489046D01*
X147451961Y-57489046D02*
X147547200Y-57393808D01*
X147547200Y-57393808D02*
X147594819Y-57250951D01*
X147594819Y-57250951D02*
X147594819Y-57155713D01*
X147594819Y-58536665D02*
X147594819Y-57965237D01*
X147594819Y-58250951D02*
X146594819Y-58250951D01*
X146594819Y-58250951D02*
X146737676Y-58155713D01*
X146737676Y-58155713D02*
X146832914Y-58060475D01*
X146832914Y-58060475D02*
X146880533Y-57965237D01*
X161434819Y-86913333D02*
X160958628Y-86580000D01*
X161434819Y-86341905D02*
X160434819Y-86341905D01*
X160434819Y-86341905D02*
X160434819Y-86722857D01*
X160434819Y-86722857D02*
X160482438Y-86818095D01*
X160482438Y-86818095D02*
X160530057Y-86865714D01*
X160530057Y-86865714D02*
X160625295Y-86913333D01*
X160625295Y-86913333D02*
X160768152Y-86913333D01*
X160768152Y-86913333D02*
X160863390Y-86865714D01*
X160863390Y-86865714D02*
X160911009Y-86818095D01*
X160911009Y-86818095D02*
X160958628Y-86722857D01*
X160958628Y-86722857D02*
X160958628Y-86341905D01*
X160434819Y-87246667D02*
X160434819Y-87865714D01*
X160434819Y-87865714D02*
X160815771Y-87532381D01*
X160815771Y-87532381D02*
X160815771Y-87675238D01*
X160815771Y-87675238D02*
X160863390Y-87770476D01*
X160863390Y-87770476D02*
X160911009Y-87818095D01*
X160911009Y-87818095D02*
X161006247Y-87865714D01*
X161006247Y-87865714D02*
X161244342Y-87865714D01*
X161244342Y-87865714D02*
X161339580Y-87818095D01*
X161339580Y-87818095D02*
X161387200Y-87770476D01*
X161387200Y-87770476D02*
X161434819Y-87675238D01*
X161434819Y-87675238D02*
X161434819Y-87389524D01*
X161434819Y-87389524D02*
X161387200Y-87294286D01*
X161387200Y-87294286D02*
X161339580Y-87246667D01*
D11*
%TO.C,D11*%
X115256579Y-76329224D02*
X116406579Y-76329224D01*
X115256579Y-83629224D02*
X115256579Y-76329224D01*
X120756579Y-83629224D02*
X120756579Y-76329224D01*
%TO.C,D18*%
X167481928Y-110262305D02*
X166805975Y-109331935D01*
X170154934Y-101521879D02*
X164249110Y-105812711D01*
X173387752Y-105971473D02*
X167481928Y-110262305D01*
%TO.C,D16*%
X146370908Y-114748802D02*
X146370908Y-113598802D01*
X153670908Y-109248802D02*
X146370908Y-109248802D01*
X153670908Y-114748802D02*
X146370908Y-114748802D01*
%TO.C,D9*%
X119743883Y-62507764D02*
X124034715Y-56601940D01*
X124034715Y-56601940D02*
X124965085Y-57277893D01*
X124193477Y-65740582D02*
X128484309Y-59834758D01*
%TO.C,R1*%
X163372936Y-89985000D02*
X163827064Y-89985000D01*
X163372936Y-91455000D02*
X163827064Y-91455000D01*
%TO.C,D10*%
X115825446Y-72729327D02*
X118081269Y-65786614D01*
X118081269Y-65786614D02*
X119174985Y-66141984D01*
X121056255Y-74428920D02*
X123312078Y-67486207D01*
%TO.C,D17*%
X157279143Y-114170964D02*
X156923774Y-113077250D01*
X162522263Y-106684332D02*
X155579550Y-108940155D01*
X164221856Y-111915141D02*
X157279143Y-114170964D01*
%TO.C,D19*%
X175814986Y-94237863D02*
X171524154Y-100143687D01*
X175973748Y-103376505D02*
X175043378Y-102700552D01*
X180264580Y-97470681D02*
X175973748Y-103376505D01*
%TO.C,C3*%
X168751252Y-89975000D02*
X168228748Y-89975000D01*
X168751252Y-91445000D02*
X168228748Y-91445000D01*
%TO.C,D12*%
X115834763Y-87266219D02*
X116928477Y-86910850D01*
X118090586Y-94208932D02*
X115834763Y-87266219D01*
X123321395Y-92509339D02*
X121065572Y-85566626D01*
%TO.C,D14*%
X126638266Y-105959937D02*
X127314219Y-105029567D01*
X132544090Y-110250769D02*
X126638266Y-105959937D01*
X135776908Y-105801175D02*
X129871084Y-101510343D01*
%TO.C,D8*%
X126627868Y-54043349D02*
X132533692Y-49752517D01*
X129860686Y-58492943D02*
X135766510Y-54202111D01*
X132533692Y-49752517D02*
X133209645Y-50682887D01*
%TO.C,D3*%
X171521165Y-59852443D02*
X175811997Y-65758267D01*
X175970759Y-56619625D02*
X180261591Y-62525449D01*
X180261591Y-62525449D02*
X179331221Y-63201402D01*
%TO.C,R4*%
X161095000Y-94552936D02*
X161095000Y-95007064D01*
X162565000Y-94552936D02*
X162565000Y-95007064D01*
%TO.C,D15*%
X135797004Y-111922701D02*
X136152374Y-110828985D01*
X142739717Y-114178524D02*
X135797004Y-111922701D01*
X144439310Y-108947715D02*
X137496597Y-106691892D01*
%TO.C,D4*%
X164251956Y-54209071D02*
X170157780Y-58499903D01*
X167484774Y-49759477D02*
X173390598Y-54050309D01*
X173390598Y-54050309D02*
X172714645Y-54980679D01*
%TO.C,J1*%
X137139999Y-58819998D02*
X137140000Y-59419999D01*
X137140000Y-59419999D02*
X137740001Y-59120000D01*
X137629998Y-61729999D02*
X137630000Y-60510001D01*
X137629999Y-55230000D02*
X137630000Y-54010000D01*
X137630000Y-54010000D02*
X146050001Y-54009999D01*
X137630000Y-60510001D02*
X139830001Y-60509999D01*
X137740001Y-59120000D02*
X137139999Y-58819998D01*
X139830000Y-55230000D02*
X137629999Y-55230000D01*
X139830000Y-55230000D02*
X144830000Y-55230000D01*
X139830000Y-57789999D02*
X139830000Y-57949999D01*
X139830001Y-54010000D02*
X139830000Y-55230000D01*
X139830001Y-60509999D02*
X144830000Y-60510002D01*
X139830001Y-61730000D02*
X139830001Y-60509999D01*
X140829999Y-56940000D02*
X140830000Y-56620000D01*
X140830000Y-55230001D02*
X140830000Y-60510001D01*
X140830000Y-56299999D02*
X144250001Y-56300001D01*
X140830000Y-56620000D02*
X140830000Y-56299999D01*
X140830000Y-58800000D02*
X144249999Y-58800000D01*
X140830000Y-59120000D02*
X140830000Y-58800000D01*
X140830002Y-59440005D02*
X140830000Y-59120000D01*
X144249999Y-58800000D02*
X144330000Y-59120000D01*
X144250000Y-56940000D02*
X140829999Y-56940000D01*
X144250000Y-59440000D02*
X140830002Y-59440005D01*
X144250001Y-56300001D02*
X144330000Y-56620000D01*
X144330000Y-56620000D02*
X144250000Y-56940000D01*
X144330000Y-59120000D02*
X144250000Y-59440000D01*
X144830000Y-55230000D02*
X144830001Y-54010000D01*
X144830000Y-60510002D02*
X144830000Y-61729999D01*
X146050000Y-61729999D02*
X137629998Y-61729999D01*
X146050001Y-54009999D02*
X146050000Y-61729999D01*
%TO.C,D7*%
X135785483Y-48082400D02*
X142728196Y-45826577D01*
X137485076Y-53313209D02*
X144427789Y-51057386D01*
X142728196Y-45826577D02*
X143083565Y-46920291D01*
%TO.C,D1*%
X179250000Y-76350000D02*
X179250000Y-83650000D01*
X184750000Y-76350000D02*
X184750000Y-83650000D01*
X184750000Y-83650000D02*
X183600000Y-83650000D01*
%TO.C,D20*%
X178966386Y-85570060D02*
X176710563Y-92512773D01*
X181941372Y-94212366D02*
X180847656Y-93856996D01*
X184197195Y-87269653D02*
X181941372Y-94212366D01*
%TO.C,R3*%
X161895000Y-87307064D02*
X161895000Y-86852936D01*
X163365000Y-87307064D02*
X163365000Y-86852936D01*
%TO.C,D13*%
X119751717Y-97453054D02*
X120682087Y-96777101D01*
X124042549Y-103358878D02*
X119751717Y-97453054D01*
X128492143Y-100126060D02*
X124201311Y-94220236D01*
%TO.C,D5*%
X155569470Y-51061226D02*
X162512183Y-53317049D01*
X157269063Y-45830417D02*
X164211776Y-48086240D01*
X164211776Y-48086240D02*
X163856406Y-49179956D01*
%TO.C,D6*%
X146358307Y-45246217D02*
X153658307Y-45246217D01*
X146358307Y-50746217D02*
X153658307Y-50746217D01*
X153658307Y-45246217D02*
X153658307Y-46396217D01*
%TO.C,D2*%
X176678269Y-67492013D02*
X178934092Y-74434726D01*
X181909078Y-65792420D02*
X184164901Y-72735133D01*
X184164901Y-72735133D02*
X183071187Y-73090502D01*
%TD*%
M02*
