%TF.GenerationSoftware,KiCad,Pcbnew,8.0.2*%
%TF.CreationDate,2025-09-10T20:03:04+02:00*%
%TF.ProjectId,LED_Coaster,4c45445f-436f-4617-9374-65722e6b6963,rev?*%
%TF.SameCoordinates,Original*%
%TF.FileFunction,Drillmap*%
%TF.FilePolarity,Positive*%
%FSLAX45Y45*%
G04 Gerber Fmt 4.5, Leading zero omitted, Abs format (unit mm)*
G04 Created by KiCad (PCBNEW 8.0.2) date 2025-09-10 20:03:04*
%MOMM*%
%LPD*%
G01*
G04 APERTURE LIST*
%ADD10C,0.100000*%
%ADD11C,0.200000*%
%ADD12C,0.430000*%
G04 APERTURE END LIST*
D10*
X19500000Y-8000000D02*
G75*
G02*
X10500000Y-8000000I-4500000J0D01*
G01*
X10500000Y-8000000D02*
G75*
G02*
X19500000Y-8000000I4500000J0D01*
G01*
D11*
D10*
X17689000Y-7928000D02*
X17719000Y-7958000D01*
X17719000Y-7928000D02*
X17689000Y-7958000D01*
X17689000Y-8038000D02*
X17719000Y-8068000D01*
X17719000Y-8038000D02*
X17689000Y-8068000D01*
X17744000Y-7873000D02*
X17774000Y-7903000D01*
X17774000Y-7873000D02*
X17744000Y-7903000D01*
X17744000Y-7983000D02*
X17774000Y-8013000D01*
X17774000Y-7983000D02*
X17744000Y-8013000D01*
X17744000Y-8093000D02*
X17774000Y-8123000D01*
X17774000Y-8093000D02*
X17744000Y-8123000D01*
X17799000Y-7928000D02*
X17829000Y-7958000D01*
X17829000Y-7928000D02*
X17799000Y-7958000D01*
X17799000Y-8038000D02*
X17829000Y-8068000D01*
X17829000Y-8038000D02*
X17799000Y-8068000D01*
X17854000Y-7873000D02*
X17884000Y-7903000D01*
X17884000Y-7873000D02*
X17854000Y-7903000D01*
X17854000Y-7983000D02*
X17884000Y-8013000D01*
X17884000Y-7983000D02*
X17854000Y-8013000D01*
X17854000Y-8093000D02*
X17884000Y-8123000D01*
X17884000Y-8093000D02*
X17854000Y-8123000D01*
X17909000Y-7928000D02*
X17939000Y-7958000D01*
X17939000Y-7928000D02*
X17909000Y-7958000D01*
X17909000Y-8038000D02*
X17939000Y-8068000D01*
X17939000Y-8038000D02*
X17909000Y-8068000D01*
X11656000Y-7568000D02*
G75*
G02*
X11616000Y-7568000I-20000J0D01*
G01*
X11616000Y-7568000D02*
G75*
G02*
X11656000Y-7568000I20000J0D01*
G01*
X12183000Y-7738000D02*
G75*
G02*
X12143000Y-7738000I-20000J0D01*
G01*
X12143000Y-7738000D02*
G75*
G02*
X12183000Y-7738000I20000J0D01*
G01*
X12210000Y-8228000D02*
G75*
G02*
X12170000Y-8228000I-20000J0D01*
G01*
X12170000Y-8228000D02*
G75*
G02*
X12210000Y-8228000I20000J0D01*
G01*
X12455000Y-5275000D02*
G75*
G02*
X12415000Y-5275000I-20000J0D01*
G01*
X12415000Y-5275000D02*
G75*
G02*
X12455000Y-5275000I20000J0D01*
G01*
X12478000Y-7748000D02*
G75*
G02*
X12438000Y-7748000I-20000J0D01*
G01*
X12438000Y-7748000D02*
G75*
G02*
X12478000Y-7748000I20000J0D01*
G01*
X12492000Y-7250000D02*
G75*
G02*
X12452000Y-7250000I-20000J0D01*
G01*
X12452000Y-7250000D02*
G75*
G02*
X12492000Y-7250000I20000J0D01*
G01*
X12635549Y-5655448D02*
G75*
G02*
X12595549Y-5655448I-20000J0D01*
G01*
X12595549Y-5655448D02*
G75*
G02*
X12635549Y-5655448I20000J0D01*
G01*
X12663000Y-4803000D02*
G75*
G02*
X12623000Y-4803000I-20000J0D01*
G01*
X12623000Y-4803000D02*
G75*
G02*
X12663000Y-4803000I20000J0D01*
G01*
X12895000Y-4646000D02*
G75*
G02*
X12855000Y-4646000I-20000J0D01*
G01*
X12855000Y-4646000D02*
G75*
G02*
X12895000Y-4646000I20000J0D01*
G01*
X12997000Y-8243000D02*
G75*
G02*
X12957000Y-8243000I-20000J0D01*
G01*
X12957000Y-8243000D02*
G75*
G02*
X12997000Y-8243000I20000J0D01*
G01*
X13281000Y-7245000D02*
G75*
G02*
X13241000Y-7245000I-20000J0D01*
G01*
X13241000Y-7245000D02*
G75*
G02*
X13281000Y-7245000I20000J0D01*
G01*
X13579000Y-5678000D02*
G75*
G02*
X13539000Y-5678000I-20000J0D01*
G01*
X13539000Y-5678000D02*
G75*
G02*
X13579000Y-5678000I20000J0D01*
G01*
X13595000Y-5235000D02*
G75*
G02*
X13555000Y-5235000I-20000J0D01*
G01*
X13555000Y-5235000D02*
G75*
G02*
X13595000Y-5235000I20000J0D01*
G01*
X13740000Y-5433000D02*
G75*
G02*
X13700000Y-5433000I-20000J0D01*
G01*
X13700000Y-5433000D02*
G75*
G02*
X13740000Y-5433000I20000J0D01*
G01*
X13759000Y-9410000D02*
G75*
G02*
X13719000Y-9410000I-20000J0D01*
G01*
X13719000Y-9410000D02*
G75*
G02*
X13759000Y-9410000I20000J0D01*
G01*
X13804000Y-6199000D02*
G75*
G02*
X13764000Y-6199000I-20000J0D01*
G01*
X13764000Y-6199000D02*
G75*
G02*
X13804000Y-6199000I20000J0D01*
G01*
X13848643Y-5189623D02*
G75*
G02*
X13808643Y-5189623I-20000J0D01*
G01*
X13808643Y-5189623D02*
G75*
G02*
X13848643Y-5189623I20000J0D01*
G01*
X14044000Y-6357000D02*
G75*
G02*
X14004000Y-6357000I-20000J0D01*
G01*
X14004000Y-6357000D02*
G75*
G02*
X14044000Y-6357000I20000J0D01*
G01*
X14065000Y-4973000D02*
G75*
G02*
X14025000Y-4973000I-20000J0D01*
G01*
X14025000Y-4973000D02*
G75*
G02*
X14065000Y-4973000I20000J0D01*
G01*
X14549000Y-4453000D02*
G75*
G02*
X14509000Y-4453000I-20000J0D01*
G01*
X14509000Y-4453000D02*
G75*
G02*
X14549000Y-4453000I20000J0D01*
G01*
X14564000Y-5189000D02*
G75*
G02*
X14524000Y-5189000I-20000J0D01*
G01*
X14524000Y-5189000D02*
G75*
G02*
X14564000Y-5189000I20000J0D01*
G01*
X14731000Y-7799000D02*
G75*
G02*
X14691000Y-7799000I-20000J0D01*
G01*
X14691000Y-7799000D02*
G75*
G02*
X14731000Y-7799000I20000J0D01*
G01*
X14763000Y-4370000D02*
G75*
G02*
X14723000Y-4370000I-20000J0D01*
G01*
X14723000Y-4370000D02*
G75*
G02*
X14763000Y-4370000I20000J0D01*
G01*
X14836000Y-9893000D02*
G75*
G02*
X14796000Y-9893000I-20000J0D01*
G01*
X14796000Y-9893000D02*
G75*
G02*
X14836000Y-9893000I20000J0D01*
G01*
X14922500Y-4364093D02*
G75*
G02*
X14882500Y-4364093I-20000J0D01*
G01*
X14882500Y-4364093D02*
G75*
G02*
X14922500Y-4364093I20000J0D01*
G01*
X15068500Y-4366000D02*
G75*
G02*
X15028500Y-4366000I-20000J0D01*
G01*
X15028500Y-4366000D02*
G75*
G02*
X15068500Y-4366000I20000J0D01*
G01*
X15148000Y-6126000D02*
G75*
G02*
X15108000Y-6126000I-20000J0D01*
G01*
X15108000Y-6126000D02*
G75*
G02*
X15148000Y-6126000I20000J0D01*
G01*
X15290000Y-7837000D02*
G75*
G02*
X15250000Y-7837000I-20000J0D01*
G01*
X15250000Y-7837000D02*
G75*
G02*
X15290000Y-7837000I20000J0D01*
G01*
X15779000Y-4063000D02*
G75*
G02*
X15739000Y-4063000I-20000J0D01*
G01*
X15739000Y-4063000D02*
G75*
G02*
X15779000Y-4063000I20000J0D01*
G01*
X15983000Y-9628000D02*
G75*
G02*
X15943000Y-9628000I-20000J0D01*
G01*
X15943000Y-9628000D02*
G75*
G02*
X15983000Y-9628000I20000J0D01*
G01*
X16281000Y-6569000D02*
G75*
G02*
X16241000Y-6569000I-20000J0D01*
G01*
X16241000Y-6569000D02*
G75*
G02*
X16281000Y-6569000I20000J0D01*
G01*
X16283000Y-8931000D02*
G75*
G02*
X16243000Y-8931000I-20000J0D01*
G01*
X16243000Y-8931000D02*
G75*
G02*
X16283000Y-8931000I20000J0D01*
G01*
X16427000Y-8490000D02*
G75*
G02*
X16387000Y-8490000I-20000J0D01*
G01*
X16387000Y-8490000D02*
G75*
G02*
X16427000Y-8490000I20000J0D01*
G01*
X16585000Y-8543000D02*
G75*
G02*
X16545000Y-8543000I-20000J0D01*
G01*
X16545000Y-8543000D02*
G75*
G02*
X16585000Y-8543000I20000J0D01*
G01*
X16635000Y-9205000D02*
G75*
G02*
X16595000Y-9205000I-20000J0D01*
G01*
X16595000Y-9205000D02*
G75*
G02*
X16635000Y-9205000I20000J0D01*
G01*
X16703000Y-8074000D02*
G75*
G02*
X16663000Y-8074000I-20000J0D01*
G01*
X16663000Y-8074000D02*
G75*
G02*
X16703000Y-8074000I20000J0D01*
G01*
X16705000Y-7764000D02*
G75*
G02*
X16665000Y-7764000I-20000J0D01*
G01*
X16665000Y-7764000D02*
G75*
G02*
X16705000Y-7764000I20000J0D01*
G01*
X16760000Y-8763000D02*
G75*
G02*
X16720000Y-8763000I-20000J0D01*
G01*
X16720000Y-8763000D02*
G75*
G02*
X16760000Y-8763000I20000J0D01*
G01*
X16877000Y-7578000D02*
G75*
G02*
X16837000Y-7578000I-20000J0D01*
G01*
X16837000Y-7578000D02*
G75*
G02*
X16877000Y-7578000I20000J0D01*
G01*
X17107000Y-4179000D02*
G75*
G02*
X17067000Y-4179000I-20000J0D01*
G01*
X17067000Y-4179000D02*
G75*
G02*
X17107000Y-4179000I20000J0D01*
G01*
X17245000Y-7182000D02*
G75*
G02*
X17205000Y-7182000I-20000J0D01*
G01*
X17205000Y-7182000D02*
G75*
G02*
X17245000Y-7182000I20000J0D01*
G01*
X17309000Y-9234000D02*
G75*
G02*
X17269000Y-9234000I-20000J0D01*
G01*
X17269000Y-9234000D02*
G75*
G02*
X17309000Y-9234000I20000J0D01*
G01*
X17401000Y-8587000D02*
G75*
G02*
X17361000Y-8587000I-20000J0D01*
G01*
X17361000Y-8587000D02*
G75*
G02*
X17401000Y-8587000I20000J0D01*
G01*
X17404000Y-8963000D02*
G75*
G02*
X17364000Y-8963000I-20000J0D01*
G01*
X17364000Y-8963000D02*
G75*
G02*
X17404000Y-8963000I20000J0D01*
G01*
X17405000Y-7256000D02*
G75*
G02*
X17365000Y-7256000I-20000J0D01*
G01*
X17365000Y-7256000D02*
G75*
G02*
X17405000Y-7256000I20000J0D01*
G01*
X17437000Y-7980000D02*
G75*
G02*
X17397000Y-7980000I-20000J0D01*
G01*
X17397000Y-7980000D02*
G75*
G02*
X17437000Y-7980000I20000J0D01*
G01*
X17447000Y-8411000D02*
G75*
G02*
X17407000Y-8411000I-20000J0D01*
G01*
X17407000Y-8411000D02*
G75*
G02*
X17447000Y-8411000I20000J0D01*
G01*
X17497000Y-6659000D02*
G75*
G02*
X17457000Y-6659000I-20000J0D01*
G01*
X17457000Y-6659000D02*
G75*
G02*
X17497000Y-6659000I20000J0D01*
G01*
X17709000Y-8973000D02*
G75*
G02*
X17669000Y-8973000I-20000J0D01*
G01*
X17669000Y-8973000D02*
G75*
G02*
X17709000Y-8973000I20000J0D01*
G01*
X17782000Y-6636000D02*
G75*
G02*
X17742000Y-6636000I-20000J0D01*
G01*
X17742000Y-6636000D02*
G75*
G02*
X17782000Y-6636000I20000J0D01*
G01*
X17788492Y-9415000D02*
G75*
G02*
X17748492Y-9415000I-20000J0D01*
G01*
X17748492Y-9415000D02*
G75*
G02*
X17788492Y-9415000I20000J0D01*
G01*
X17906000Y-8423000D02*
G75*
G02*
X17866000Y-8423000I-20000J0D01*
G01*
X17866000Y-8423000D02*
G75*
G02*
X17906000Y-8423000I20000J0D01*
G01*
X18029000Y-9471000D02*
G75*
G02*
X17989000Y-9471000I-20000J0D01*
G01*
X17989000Y-9471000D02*
G75*
G02*
X18029000Y-9471000I20000J0D01*
G01*
X18073000Y-7572000D02*
G75*
G02*
X18033000Y-7572000I-20000J0D01*
G01*
X18033000Y-7572000D02*
G75*
G02*
X18073000Y-7572000I20000J0D01*
G01*
X18207000Y-8512000D02*
G75*
G02*
X18167000Y-8512000I-20000J0D01*
G01*
X18167000Y-8512000D02*
G75*
G02*
X18207000Y-8512000I20000J0D01*
G01*
X18365000Y-6772000D02*
G75*
G02*
X18325000Y-6772000I-20000J0D01*
G01*
X18325000Y-6772000D02*
G75*
G02*
X18365000Y-6772000I20000J0D01*
G01*
X12925558Y-6223658D02*
X12925558Y-6283658D01*
X12895558Y-6253658D02*
X12955558Y-6253658D01*
X12925558Y-9716158D02*
X12925558Y-9776158D01*
X12895558Y-9746158D02*
X12955558Y-9746158D01*
X13020016Y-5995616D02*
X13020016Y-6055616D01*
X12990016Y-6025616D02*
X13050016Y-6025616D01*
X13020016Y-6451700D02*
X13020016Y-6511700D01*
X12990016Y-6481700D02*
X13050016Y-6481700D01*
X13020016Y-9488116D02*
X13020016Y-9548116D01*
X12990016Y-9518116D02*
X13050016Y-9518116D01*
X13020016Y-9944200D02*
X13020016Y-10004200D01*
X12990016Y-9974200D02*
X13050016Y-9974200D01*
X13248058Y-5901158D02*
X13248058Y-5961158D01*
X13218058Y-5931158D02*
X13278058Y-5931158D01*
X13248058Y-6546158D02*
X13248058Y-6606158D01*
X13218058Y-6576158D02*
X13278058Y-6576158D01*
X13248058Y-9393658D02*
X13248058Y-9453658D01*
X13218058Y-9423658D02*
X13278058Y-9423658D01*
X13248058Y-10038658D02*
X13248058Y-10098658D01*
X13218058Y-10068658D02*
X13278058Y-10068658D01*
X13476100Y-5995616D02*
X13476100Y-6055616D01*
X13446100Y-6025616D02*
X13506100Y-6025616D01*
X13476100Y-6451700D02*
X13476100Y-6511700D01*
X13446100Y-6481700D02*
X13506100Y-6481700D01*
X13476100Y-9488116D02*
X13476100Y-9548116D01*
X13446100Y-9518116D02*
X13506100Y-9518116D01*
X13476100Y-9944200D02*
X13476100Y-10004200D01*
X13446100Y-9974200D02*
X13506100Y-9974200D01*
X13570558Y-6223658D02*
X13570558Y-6283658D01*
X13540558Y-6253658D02*
X13600558Y-6253658D01*
X13570558Y-9716158D02*
X13570558Y-9776158D01*
X13540558Y-9746158D02*
X13600558Y-9746158D01*
X14563000Y-4086000D02*
X14563000Y-4146000D01*
X14533000Y-4116000D02*
X14593000Y-4116000D01*
X14593000Y-4171000D02*
X14593000Y-4061000D01*
X14533000Y-4061000D02*
G75*
G02*
X14593000Y-4061000I30000J0D01*
G01*
X14533000Y-4061000D02*
X14533000Y-4171000D01*
X14533000Y-4171000D02*
G75*
G03*
X14593000Y-4171000I30000J0D01*
G01*
X14563000Y-3668000D02*
X14563000Y-3728000D01*
X14533000Y-3698000D02*
X14593000Y-3698000D01*
X14593000Y-3728000D02*
X14593000Y-3668000D01*
X14533000Y-3668000D02*
G75*
G02*
X14593000Y-3668000I30000J0D01*
G01*
X14533000Y-3668000D02*
X14533000Y-3728000D01*
X14533000Y-3728000D02*
G75*
G03*
X14593000Y-3728000I30000J0D01*
G01*
X15427000Y-4086000D02*
X15427000Y-4146000D01*
X15397000Y-4116000D02*
X15457000Y-4116000D01*
X15457000Y-4171000D02*
X15457000Y-4061000D01*
X15397000Y-4061000D02*
G75*
G02*
X15457000Y-4061000I30000J0D01*
G01*
X15397000Y-4061000D02*
X15397000Y-4171000D01*
X15397000Y-4171000D02*
G75*
G03*
X15457000Y-4171000I30000J0D01*
G01*
X15427000Y-3668000D02*
X15427000Y-3728000D01*
X15397000Y-3698000D02*
X15457000Y-3698000D01*
X15457000Y-3728000D02*
X15457000Y-3668000D01*
X15397000Y-3668000D02*
G75*
G02*
X15457000Y-3668000I30000J0D01*
G01*
X15397000Y-3668000D02*
X15397000Y-3728000D01*
X15397000Y-3728000D02*
G75*
G03*
X15457000Y-3728000I30000J0D01*
G01*
X16429642Y-9728858D02*
X16429642Y-9788858D01*
X16399642Y-9758858D02*
X16459642Y-9758858D01*
X16524100Y-9500816D02*
X16524100Y-9560816D01*
X16494100Y-9530816D02*
X16554100Y-9530816D01*
X16524100Y-9956900D02*
X16524100Y-10016900D01*
X16494100Y-9986900D02*
X16554100Y-9986900D01*
X16752142Y-9406358D02*
X16752142Y-9466358D01*
X16722142Y-9436358D02*
X16782142Y-9436358D01*
X16752142Y-10051358D02*
X16752142Y-10111358D01*
X16722142Y-10081358D02*
X16782142Y-10081358D01*
X16980184Y-9500816D02*
X16980184Y-9560816D01*
X16950184Y-9530816D02*
X17010184Y-9530816D01*
X16980184Y-9956900D02*
X16980184Y-10016900D01*
X16950184Y-9986900D02*
X17010184Y-9986900D01*
X17074642Y-9728858D02*
X17074642Y-9788858D01*
X17044642Y-9758858D02*
X17104642Y-9758858D01*
X11146356Y-7720356D02*
X11146356Y-7649644D01*
X11075644Y-7649644D01*
X11075644Y-7720356D01*
X11146356Y-7720356D01*
X11146356Y-7974356D02*
X11146356Y-7903644D01*
X11075644Y-7903644D01*
X11075644Y-7974356D01*
X11146356Y-7974356D01*
X11146356Y-8228356D02*
X11146356Y-8157644D01*
X11075644Y-8157644D01*
X11075644Y-8228356D01*
X11146356Y-8228356D01*
X11146356Y-8482356D02*
X11146356Y-8411644D01*
X11075644Y-8411644D01*
X11075644Y-8482356D01*
X11146356Y-8482356D01*
X11149356Y-9099856D02*
X11149356Y-9029144D01*
X11078644Y-9029144D01*
X11078644Y-9099856D01*
X11149356Y-9099856D01*
X11149356Y-9353856D02*
X11149356Y-9283144D01*
X11078644Y-9283144D01*
X11078644Y-9353856D01*
X11149356Y-9353856D01*
X13959356Y-5697356D02*
X13959356Y-5626644D01*
X13888644Y-5626644D01*
X13888644Y-5697356D01*
X13959356Y-5697356D01*
X13959356Y-5947356D02*
X13959356Y-5876644D01*
X13888644Y-5876644D01*
X13888644Y-5947356D01*
X13959356Y-5947356D01*
D12*
X13248058Y-6468658D02*
X13463058Y-6253658D01*
X13248058Y-6038658D01*
X13033058Y-6253658D01*
X13248058Y-6468658D01*
X13248058Y-9961158D02*
X13463058Y-9746158D01*
X13248058Y-9531158D01*
X13033058Y-9746158D01*
X13248058Y-9961158D01*
X16752142Y-9973858D02*
X16967142Y-9758858D01*
X16752142Y-9543858D01*
X16537142Y-9758858D01*
X16752142Y-9973858D01*
D11*
X10755777Y-12816484D02*
X10755777Y-12616484D01*
X10755777Y-12616484D02*
X10803396Y-12616484D01*
X10803396Y-12616484D02*
X10831967Y-12626008D01*
X10831967Y-12626008D02*
X10851015Y-12645055D01*
X10851015Y-12645055D02*
X10860539Y-12664103D01*
X10860539Y-12664103D02*
X10870063Y-12702198D01*
X10870063Y-12702198D02*
X10870063Y-12730769D01*
X10870063Y-12730769D02*
X10860539Y-12768865D01*
X10860539Y-12768865D02*
X10851015Y-12787912D01*
X10851015Y-12787912D02*
X10831967Y-12806960D01*
X10831967Y-12806960D02*
X10803396Y-12816484D01*
X10803396Y-12816484D02*
X10755777Y-12816484D01*
X10955777Y-12816484D02*
X10955777Y-12683150D01*
X10955777Y-12721246D02*
X10965301Y-12702198D01*
X10965301Y-12702198D02*
X10974824Y-12692674D01*
X10974824Y-12692674D02*
X10993872Y-12683150D01*
X10993872Y-12683150D02*
X11012920Y-12683150D01*
X11079586Y-12816484D02*
X11079586Y-12683150D01*
X11079586Y-12616484D02*
X11070063Y-12626008D01*
X11070063Y-12626008D02*
X11079586Y-12635531D01*
X11079586Y-12635531D02*
X11089110Y-12626008D01*
X11089110Y-12626008D02*
X11079586Y-12616484D01*
X11079586Y-12616484D02*
X11079586Y-12635531D01*
X11203396Y-12816484D02*
X11184348Y-12806960D01*
X11184348Y-12806960D02*
X11174824Y-12787912D01*
X11174824Y-12787912D02*
X11174824Y-12616484D01*
X11308158Y-12816484D02*
X11289110Y-12806960D01*
X11289110Y-12806960D02*
X11279586Y-12787912D01*
X11279586Y-12787912D02*
X11279586Y-12616484D01*
X11536729Y-12816484D02*
X11536729Y-12616484D01*
X11536729Y-12616484D02*
X11603396Y-12759341D01*
X11603396Y-12759341D02*
X11670062Y-12616484D01*
X11670062Y-12616484D02*
X11670062Y-12816484D01*
X11851015Y-12816484D02*
X11851015Y-12711722D01*
X11851015Y-12711722D02*
X11841491Y-12692674D01*
X11841491Y-12692674D02*
X11822443Y-12683150D01*
X11822443Y-12683150D02*
X11784348Y-12683150D01*
X11784348Y-12683150D02*
X11765301Y-12692674D01*
X11851015Y-12806960D02*
X11831967Y-12816484D01*
X11831967Y-12816484D02*
X11784348Y-12816484D01*
X11784348Y-12816484D02*
X11765301Y-12806960D01*
X11765301Y-12806960D02*
X11755777Y-12787912D01*
X11755777Y-12787912D02*
X11755777Y-12768865D01*
X11755777Y-12768865D02*
X11765301Y-12749817D01*
X11765301Y-12749817D02*
X11784348Y-12740293D01*
X11784348Y-12740293D02*
X11831967Y-12740293D01*
X11831967Y-12740293D02*
X11851015Y-12730769D01*
X11946253Y-12683150D02*
X11946253Y-12883150D01*
X11946253Y-12692674D02*
X11965301Y-12683150D01*
X11965301Y-12683150D02*
X12003396Y-12683150D01*
X12003396Y-12683150D02*
X12022443Y-12692674D01*
X12022443Y-12692674D02*
X12031967Y-12702198D01*
X12031967Y-12702198D02*
X12041491Y-12721246D01*
X12041491Y-12721246D02*
X12041491Y-12778388D01*
X12041491Y-12778388D02*
X12031967Y-12797436D01*
X12031967Y-12797436D02*
X12022443Y-12806960D01*
X12022443Y-12806960D02*
X12003396Y-12816484D01*
X12003396Y-12816484D02*
X11965301Y-12816484D01*
X11965301Y-12816484D02*
X11946253Y-12806960D01*
X12127205Y-12797436D02*
X12136729Y-12806960D01*
X12136729Y-12806960D02*
X12127205Y-12816484D01*
X12127205Y-12816484D02*
X12117682Y-12806960D01*
X12117682Y-12806960D02*
X12127205Y-12797436D01*
X12127205Y-12797436D02*
X12127205Y-12816484D01*
X12127205Y-12692674D02*
X12136729Y-12702198D01*
X12136729Y-12702198D02*
X12127205Y-12711722D01*
X12127205Y-12711722D02*
X12117682Y-12702198D01*
X12117682Y-12702198D02*
X12127205Y-12692674D01*
X12127205Y-12692674D02*
X12127205Y-12711722D01*
D10*
X10465000Y-13130000D02*
X10495000Y-13160000D01*
X10495000Y-13130000D02*
X10465000Y-13160000D01*
D11*
X10793872Y-13036484D02*
X10812920Y-13036484D01*
X10812920Y-13036484D02*
X10831967Y-13046008D01*
X10831967Y-13046008D02*
X10841491Y-13055531D01*
X10841491Y-13055531D02*
X10851015Y-13074579D01*
X10851015Y-13074579D02*
X10860539Y-13112674D01*
X10860539Y-13112674D02*
X10860539Y-13160293D01*
X10860539Y-13160293D02*
X10851015Y-13198388D01*
X10851015Y-13198388D02*
X10841491Y-13217436D01*
X10841491Y-13217436D02*
X10831967Y-13226960D01*
X10831967Y-13226960D02*
X10812920Y-13236484D01*
X10812920Y-13236484D02*
X10793872Y-13236484D01*
X10793872Y-13236484D02*
X10774824Y-13226960D01*
X10774824Y-13226960D02*
X10765301Y-13217436D01*
X10765301Y-13217436D02*
X10755777Y-13198388D01*
X10755777Y-13198388D02*
X10746253Y-13160293D01*
X10746253Y-13160293D02*
X10746253Y-13112674D01*
X10746253Y-13112674D02*
X10755777Y-13074579D01*
X10755777Y-13074579D02*
X10765301Y-13055531D01*
X10765301Y-13055531D02*
X10774824Y-13046008D01*
X10774824Y-13046008D02*
X10793872Y-13036484D01*
X10946253Y-13217436D02*
X10955777Y-13226960D01*
X10955777Y-13226960D02*
X10946253Y-13236484D01*
X10946253Y-13236484D02*
X10936729Y-13226960D01*
X10936729Y-13226960D02*
X10946253Y-13217436D01*
X10946253Y-13217436D02*
X10946253Y-13236484D01*
X11022444Y-13036484D02*
X11146253Y-13036484D01*
X11146253Y-13036484D02*
X11079586Y-13112674D01*
X11079586Y-13112674D02*
X11108158Y-13112674D01*
X11108158Y-13112674D02*
X11127205Y-13122198D01*
X11127205Y-13122198D02*
X11136729Y-13131722D01*
X11136729Y-13131722D02*
X11146253Y-13150769D01*
X11146253Y-13150769D02*
X11146253Y-13198388D01*
X11146253Y-13198388D02*
X11136729Y-13217436D01*
X11136729Y-13217436D02*
X11127205Y-13226960D01*
X11127205Y-13226960D02*
X11108158Y-13236484D01*
X11108158Y-13236484D02*
X11051015Y-13236484D01*
X11051015Y-13236484D02*
X11031967Y-13226960D01*
X11031967Y-13226960D02*
X11022444Y-13217436D01*
X11270062Y-13036484D02*
X11289110Y-13036484D01*
X11289110Y-13036484D02*
X11308158Y-13046008D01*
X11308158Y-13046008D02*
X11317682Y-13055531D01*
X11317682Y-13055531D02*
X11327205Y-13074579D01*
X11327205Y-13074579D02*
X11336729Y-13112674D01*
X11336729Y-13112674D02*
X11336729Y-13160293D01*
X11336729Y-13160293D02*
X11327205Y-13198388D01*
X11327205Y-13198388D02*
X11317682Y-13217436D01*
X11317682Y-13217436D02*
X11308158Y-13226960D01*
X11308158Y-13226960D02*
X11289110Y-13236484D01*
X11289110Y-13236484D02*
X11270062Y-13236484D01*
X11270062Y-13236484D02*
X11251015Y-13226960D01*
X11251015Y-13226960D02*
X11241491Y-13217436D01*
X11241491Y-13217436D02*
X11231967Y-13198388D01*
X11231967Y-13198388D02*
X11222443Y-13160293D01*
X11222443Y-13160293D02*
X11222443Y-13112674D01*
X11222443Y-13112674D02*
X11231967Y-13074579D01*
X11231967Y-13074579D02*
X11241491Y-13055531D01*
X11241491Y-13055531D02*
X11251015Y-13046008D01*
X11251015Y-13046008D02*
X11270062Y-13036484D01*
X11460539Y-13036484D02*
X11479586Y-13036484D01*
X11479586Y-13036484D02*
X11498634Y-13046008D01*
X11498634Y-13046008D02*
X11508158Y-13055531D01*
X11508158Y-13055531D02*
X11517682Y-13074579D01*
X11517682Y-13074579D02*
X11527205Y-13112674D01*
X11527205Y-13112674D02*
X11527205Y-13160293D01*
X11527205Y-13160293D02*
X11517682Y-13198388D01*
X11517682Y-13198388D02*
X11508158Y-13217436D01*
X11508158Y-13217436D02*
X11498634Y-13226960D01*
X11498634Y-13226960D02*
X11479586Y-13236484D01*
X11479586Y-13236484D02*
X11460539Y-13236484D01*
X11460539Y-13236484D02*
X11441491Y-13226960D01*
X11441491Y-13226960D02*
X11431967Y-13217436D01*
X11431967Y-13217436D02*
X11422443Y-13198388D01*
X11422443Y-13198388D02*
X11412920Y-13160293D01*
X11412920Y-13160293D02*
X11412920Y-13112674D01*
X11412920Y-13112674D02*
X11422443Y-13074579D01*
X11422443Y-13074579D02*
X11431967Y-13055531D01*
X11431967Y-13055531D02*
X11441491Y-13046008D01*
X11441491Y-13046008D02*
X11460539Y-13036484D01*
X11612920Y-13236484D02*
X11612920Y-13103150D01*
X11612920Y-13122198D02*
X11622443Y-13112674D01*
X11622443Y-13112674D02*
X11641491Y-13103150D01*
X11641491Y-13103150D02*
X11670063Y-13103150D01*
X11670063Y-13103150D02*
X11689110Y-13112674D01*
X11689110Y-13112674D02*
X11698634Y-13131722D01*
X11698634Y-13131722D02*
X11698634Y-13236484D01*
X11698634Y-13131722D02*
X11708158Y-13112674D01*
X11708158Y-13112674D02*
X11727205Y-13103150D01*
X11727205Y-13103150D02*
X11755777Y-13103150D01*
X11755777Y-13103150D02*
X11774824Y-13112674D01*
X11774824Y-13112674D02*
X11784348Y-13131722D01*
X11784348Y-13131722D02*
X11784348Y-13236484D01*
X11879586Y-13236484D02*
X11879586Y-13103150D01*
X11879586Y-13122198D02*
X11889110Y-13112674D01*
X11889110Y-13112674D02*
X11908158Y-13103150D01*
X11908158Y-13103150D02*
X11936729Y-13103150D01*
X11936729Y-13103150D02*
X11955777Y-13112674D01*
X11955777Y-13112674D02*
X11965301Y-13131722D01*
X11965301Y-13131722D02*
X11965301Y-13236484D01*
X11965301Y-13131722D02*
X11974824Y-13112674D01*
X11974824Y-13112674D02*
X11993872Y-13103150D01*
X11993872Y-13103150D02*
X12022443Y-13103150D01*
X12022443Y-13103150D02*
X12041491Y-13112674D01*
X12041491Y-13112674D02*
X12051015Y-13131722D01*
X12051015Y-13131722D02*
X12051015Y-13236484D01*
X12441491Y-13026960D02*
X12270063Y-13284103D01*
X12698634Y-13036484D02*
X12717682Y-13036484D01*
X12717682Y-13036484D02*
X12736729Y-13046008D01*
X12736729Y-13046008D02*
X12746253Y-13055531D01*
X12746253Y-13055531D02*
X12755777Y-13074579D01*
X12755777Y-13074579D02*
X12765301Y-13112674D01*
X12765301Y-13112674D02*
X12765301Y-13160293D01*
X12765301Y-13160293D02*
X12755777Y-13198388D01*
X12755777Y-13198388D02*
X12746253Y-13217436D01*
X12746253Y-13217436D02*
X12736729Y-13226960D01*
X12736729Y-13226960D02*
X12717682Y-13236484D01*
X12717682Y-13236484D02*
X12698634Y-13236484D01*
X12698634Y-13236484D02*
X12679586Y-13226960D01*
X12679586Y-13226960D02*
X12670063Y-13217436D01*
X12670063Y-13217436D02*
X12660539Y-13198388D01*
X12660539Y-13198388D02*
X12651015Y-13160293D01*
X12651015Y-13160293D02*
X12651015Y-13112674D01*
X12651015Y-13112674D02*
X12660539Y-13074579D01*
X12660539Y-13074579D02*
X12670063Y-13055531D01*
X12670063Y-13055531D02*
X12679586Y-13046008D01*
X12679586Y-13046008D02*
X12698634Y-13036484D01*
X12851015Y-13217436D02*
X12860539Y-13226960D01*
X12860539Y-13226960D02*
X12851015Y-13236484D01*
X12851015Y-13236484D02*
X12841491Y-13226960D01*
X12841491Y-13226960D02*
X12851015Y-13217436D01*
X12851015Y-13217436D02*
X12851015Y-13236484D01*
X12984348Y-13036484D02*
X13003396Y-13036484D01*
X13003396Y-13036484D02*
X13022444Y-13046008D01*
X13022444Y-13046008D02*
X13031967Y-13055531D01*
X13031967Y-13055531D02*
X13041491Y-13074579D01*
X13041491Y-13074579D02*
X13051015Y-13112674D01*
X13051015Y-13112674D02*
X13051015Y-13160293D01*
X13051015Y-13160293D02*
X13041491Y-13198388D01*
X13041491Y-13198388D02*
X13031967Y-13217436D01*
X13031967Y-13217436D02*
X13022444Y-13226960D01*
X13022444Y-13226960D02*
X13003396Y-13236484D01*
X13003396Y-13236484D02*
X12984348Y-13236484D01*
X12984348Y-13236484D02*
X12965301Y-13226960D01*
X12965301Y-13226960D02*
X12955777Y-13217436D01*
X12955777Y-13217436D02*
X12946253Y-13198388D01*
X12946253Y-13198388D02*
X12936729Y-13160293D01*
X12936729Y-13160293D02*
X12936729Y-13112674D01*
X12936729Y-13112674D02*
X12946253Y-13074579D01*
X12946253Y-13074579D02*
X12955777Y-13055531D01*
X12955777Y-13055531D02*
X12965301Y-13046008D01*
X12965301Y-13046008D02*
X12984348Y-13036484D01*
X13241491Y-13236484D02*
X13127206Y-13236484D01*
X13184348Y-13236484D02*
X13184348Y-13036484D01*
X13184348Y-13036484D02*
X13165301Y-13065055D01*
X13165301Y-13065055D02*
X13146253Y-13084103D01*
X13146253Y-13084103D02*
X13127206Y-13093627D01*
X13431967Y-13236484D02*
X13317682Y-13236484D01*
X13374825Y-13236484D02*
X13374825Y-13036484D01*
X13374825Y-13036484D02*
X13355777Y-13065055D01*
X13355777Y-13065055D02*
X13336729Y-13084103D01*
X13336729Y-13084103D02*
X13317682Y-13093627D01*
X13546253Y-13122198D02*
X13527206Y-13112674D01*
X13527206Y-13112674D02*
X13517682Y-13103150D01*
X13517682Y-13103150D02*
X13508158Y-13084103D01*
X13508158Y-13084103D02*
X13508158Y-13074579D01*
X13508158Y-13074579D02*
X13517682Y-13055531D01*
X13517682Y-13055531D02*
X13527206Y-13046008D01*
X13527206Y-13046008D02*
X13546253Y-13036484D01*
X13546253Y-13036484D02*
X13584348Y-13036484D01*
X13584348Y-13036484D02*
X13603396Y-13046008D01*
X13603396Y-13046008D02*
X13612920Y-13055531D01*
X13612920Y-13055531D02*
X13622444Y-13074579D01*
X13622444Y-13074579D02*
X13622444Y-13084103D01*
X13622444Y-13084103D02*
X13612920Y-13103150D01*
X13612920Y-13103150D02*
X13603396Y-13112674D01*
X13603396Y-13112674D02*
X13584348Y-13122198D01*
X13584348Y-13122198D02*
X13546253Y-13122198D01*
X13546253Y-13122198D02*
X13527206Y-13131722D01*
X13527206Y-13131722D02*
X13517682Y-13141246D01*
X13517682Y-13141246D02*
X13508158Y-13160293D01*
X13508158Y-13160293D02*
X13508158Y-13198388D01*
X13508158Y-13198388D02*
X13517682Y-13217436D01*
X13517682Y-13217436D02*
X13527206Y-13226960D01*
X13527206Y-13226960D02*
X13546253Y-13236484D01*
X13546253Y-13236484D02*
X13584348Y-13236484D01*
X13584348Y-13236484D02*
X13603396Y-13226960D01*
X13603396Y-13226960D02*
X13612920Y-13217436D01*
X13612920Y-13217436D02*
X13622444Y-13198388D01*
X13622444Y-13198388D02*
X13622444Y-13160293D01*
X13622444Y-13160293D02*
X13612920Y-13141246D01*
X13612920Y-13141246D02*
X13603396Y-13131722D01*
X13603396Y-13131722D02*
X13584348Y-13122198D01*
X13698634Y-13036484D02*
X13698634Y-13074579D01*
X13774825Y-13036484D02*
X13774825Y-13074579D01*
X14070063Y-13312674D02*
X14060539Y-13303150D01*
X14060539Y-13303150D02*
X14041491Y-13274579D01*
X14041491Y-13274579D02*
X14031968Y-13255531D01*
X14031968Y-13255531D02*
X14022444Y-13226960D01*
X14022444Y-13226960D02*
X14012920Y-13179341D01*
X14012920Y-13179341D02*
X14012920Y-13141246D01*
X14012920Y-13141246D02*
X14022444Y-13093627D01*
X14022444Y-13093627D02*
X14031968Y-13065055D01*
X14031968Y-13065055D02*
X14041491Y-13046008D01*
X14041491Y-13046008D02*
X14060539Y-13017436D01*
X14060539Y-13017436D02*
X14070063Y-13007912D01*
X14251015Y-13236484D02*
X14136729Y-13236484D01*
X14193872Y-13236484D02*
X14193872Y-13036484D01*
X14193872Y-13036484D02*
X14174825Y-13065055D01*
X14174825Y-13065055D02*
X14155777Y-13084103D01*
X14155777Y-13084103D02*
X14136729Y-13093627D01*
X14327206Y-13055531D02*
X14336729Y-13046008D01*
X14336729Y-13046008D02*
X14355777Y-13036484D01*
X14355777Y-13036484D02*
X14403396Y-13036484D01*
X14403396Y-13036484D02*
X14422444Y-13046008D01*
X14422444Y-13046008D02*
X14431968Y-13055531D01*
X14431968Y-13055531D02*
X14441491Y-13074579D01*
X14441491Y-13074579D02*
X14441491Y-13093627D01*
X14441491Y-13093627D02*
X14431968Y-13122198D01*
X14431968Y-13122198D02*
X14317682Y-13236484D01*
X14317682Y-13236484D02*
X14441491Y-13236484D01*
X14679587Y-13236484D02*
X14679587Y-13036484D01*
X14765301Y-13236484D02*
X14765301Y-13131722D01*
X14765301Y-13131722D02*
X14755777Y-13112674D01*
X14755777Y-13112674D02*
X14736730Y-13103150D01*
X14736730Y-13103150D02*
X14708158Y-13103150D01*
X14708158Y-13103150D02*
X14689110Y-13112674D01*
X14689110Y-13112674D02*
X14679587Y-13122198D01*
X14889110Y-13236484D02*
X14870063Y-13226960D01*
X14870063Y-13226960D02*
X14860539Y-13217436D01*
X14860539Y-13217436D02*
X14851015Y-13198388D01*
X14851015Y-13198388D02*
X14851015Y-13141246D01*
X14851015Y-13141246D02*
X14860539Y-13122198D01*
X14860539Y-13122198D02*
X14870063Y-13112674D01*
X14870063Y-13112674D02*
X14889110Y-13103150D01*
X14889110Y-13103150D02*
X14917682Y-13103150D01*
X14917682Y-13103150D02*
X14936730Y-13112674D01*
X14936730Y-13112674D02*
X14946253Y-13122198D01*
X14946253Y-13122198D02*
X14955777Y-13141246D01*
X14955777Y-13141246D02*
X14955777Y-13198388D01*
X14955777Y-13198388D02*
X14946253Y-13217436D01*
X14946253Y-13217436D02*
X14936730Y-13226960D01*
X14936730Y-13226960D02*
X14917682Y-13236484D01*
X14917682Y-13236484D02*
X14889110Y-13236484D01*
X15070063Y-13236484D02*
X15051015Y-13226960D01*
X15051015Y-13226960D02*
X15041491Y-13207912D01*
X15041491Y-13207912D02*
X15041491Y-13036484D01*
X15222444Y-13226960D02*
X15203396Y-13236484D01*
X15203396Y-13236484D02*
X15165301Y-13236484D01*
X15165301Y-13236484D02*
X15146253Y-13226960D01*
X15146253Y-13226960D02*
X15136730Y-13207912D01*
X15136730Y-13207912D02*
X15136730Y-13131722D01*
X15136730Y-13131722D02*
X15146253Y-13112674D01*
X15146253Y-13112674D02*
X15165301Y-13103150D01*
X15165301Y-13103150D02*
X15203396Y-13103150D01*
X15203396Y-13103150D02*
X15222444Y-13112674D01*
X15222444Y-13112674D02*
X15231968Y-13131722D01*
X15231968Y-13131722D02*
X15231968Y-13150769D01*
X15231968Y-13150769D02*
X15136730Y-13169817D01*
X15308158Y-13226960D02*
X15327206Y-13236484D01*
X15327206Y-13236484D02*
X15365301Y-13236484D01*
X15365301Y-13236484D02*
X15384349Y-13226960D01*
X15384349Y-13226960D02*
X15393872Y-13207912D01*
X15393872Y-13207912D02*
X15393872Y-13198388D01*
X15393872Y-13198388D02*
X15384349Y-13179341D01*
X15384349Y-13179341D02*
X15365301Y-13169817D01*
X15365301Y-13169817D02*
X15336730Y-13169817D01*
X15336730Y-13169817D02*
X15317682Y-13160293D01*
X15317682Y-13160293D02*
X15308158Y-13141246D01*
X15308158Y-13141246D02*
X15308158Y-13131722D01*
X15308158Y-13131722D02*
X15317682Y-13112674D01*
X15317682Y-13112674D02*
X15336730Y-13103150D01*
X15336730Y-13103150D02*
X15365301Y-13103150D01*
X15365301Y-13103150D02*
X15384349Y-13112674D01*
X15460539Y-13312674D02*
X15470063Y-13303150D01*
X15470063Y-13303150D02*
X15489111Y-13274579D01*
X15489111Y-13274579D02*
X15498634Y-13255531D01*
X15498634Y-13255531D02*
X15508158Y-13226960D01*
X15508158Y-13226960D02*
X15517682Y-13179341D01*
X15517682Y-13179341D02*
X15517682Y-13141246D01*
X15517682Y-13141246D02*
X15508158Y-13093627D01*
X15508158Y-13093627D02*
X15498634Y-13065055D01*
X15498634Y-13065055D02*
X15489111Y-13046008D01*
X15489111Y-13046008D02*
X15470063Y-13017436D01*
X15470063Y-13017436D02*
X15460539Y-13007912D01*
D10*
X10495000Y-13409000D02*
G75*
G02*
X10455000Y-13409000I-20000J0D01*
G01*
X10455000Y-13409000D02*
G75*
G02*
X10495000Y-13409000I20000J0D01*
G01*
D11*
X10793872Y-13300484D02*
X10812920Y-13300484D01*
X10812920Y-13300484D02*
X10831967Y-13310008D01*
X10831967Y-13310008D02*
X10841491Y-13319531D01*
X10841491Y-13319531D02*
X10851015Y-13338579D01*
X10851015Y-13338579D02*
X10860539Y-13376674D01*
X10860539Y-13376674D02*
X10860539Y-13424293D01*
X10860539Y-13424293D02*
X10851015Y-13462388D01*
X10851015Y-13462388D02*
X10841491Y-13481436D01*
X10841491Y-13481436D02*
X10831967Y-13490960D01*
X10831967Y-13490960D02*
X10812920Y-13500484D01*
X10812920Y-13500484D02*
X10793872Y-13500484D01*
X10793872Y-13500484D02*
X10774824Y-13490960D01*
X10774824Y-13490960D02*
X10765301Y-13481436D01*
X10765301Y-13481436D02*
X10755777Y-13462388D01*
X10755777Y-13462388D02*
X10746253Y-13424293D01*
X10746253Y-13424293D02*
X10746253Y-13376674D01*
X10746253Y-13376674D02*
X10755777Y-13338579D01*
X10755777Y-13338579D02*
X10765301Y-13319531D01*
X10765301Y-13319531D02*
X10774824Y-13310008D01*
X10774824Y-13310008D02*
X10793872Y-13300484D01*
X10946253Y-13481436D02*
X10955777Y-13490960D01*
X10955777Y-13490960D02*
X10946253Y-13500484D01*
X10946253Y-13500484D02*
X10936729Y-13490960D01*
X10936729Y-13490960D02*
X10946253Y-13481436D01*
X10946253Y-13481436D02*
X10946253Y-13500484D01*
X11127205Y-13367150D02*
X11127205Y-13500484D01*
X11079586Y-13290960D02*
X11031967Y-13433817D01*
X11031967Y-13433817D02*
X11155777Y-13433817D01*
X11270062Y-13300484D02*
X11289110Y-13300484D01*
X11289110Y-13300484D02*
X11308158Y-13310008D01*
X11308158Y-13310008D02*
X11317682Y-13319531D01*
X11317682Y-13319531D02*
X11327205Y-13338579D01*
X11327205Y-13338579D02*
X11336729Y-13376674D01*
X11336729Y-13376674D02*
X11336729Y-13424293D01*
X11336729Y-13424293D02*
X11327205Y-13462388D01*
X11327205Y-13462388D02*
X11317682Y-13481436D01*
X11317682Y-13481436D02*
X11308158Y-13490960D01*
X11308158Y-13490960D02*
X11289110Y-13500484D01*
X11289110Y-13500484D02*
X11270062Y-13500484D01*
X11270062Y-13500484D02*
X11251015Y-13490960D01*
X11251015Y-13490960D02*
X11241491Y-13481436D01*
X11241491Y-13481436D02*
X11231967Y-13462388D01*
X11231967Y-13462388D02*
X11222443Y-13424293D01*
X11222443Y-13424293D02*
X11222443Y-13376674D01*
X11222443Y-13376674D02*
X11231967Y-13338579D01*
X11231967Y-13338579D02*
X11241491Y-13319531D01*
X11241491Y-13319531D02*
X11251015Y-13310008D01*
X11251015Y-13310008D02*
X11270062Y-13300484D01*
X11460539Y-13300484D02*
X11479586Y-13300484D01*
X11479586Y-13300484D02*
X11498634Y-13310008D01*
X11498634Y-13310008D02*
X11508158Y-13319531D01*
X11508158Y-13319531D02*
X11517682Y-13338579D01*
X11517682Y-13338579D02*
X11527205Y-13376674D01*
X11527205Y-13376674D02*
X11527205Y-13424293D01*
X11527205Y-13424293D02*
X11517682Y-13462388D01*
X11517682Y-13462388D02*
X11508158Y-13481436D01*
X11508158Y-13481436D02*
X11498634Y-13490960D01*
X11498634Y-13490960D02*
X11479586Y-13500484D01*
X11479586Y-13500484D02*
X11460539Y-13500484D01*
X11460539Y-13500484D02*
X11441491Y-13490960D01*
X11441491Y-13490960D02*
X11431967Y-13481436D01*
X11431967Y-13481436D02*
X11422443Y-13462388D01*
X11422443Y-13462388D02*
X11412920Y-13424293D01*
X11412920Y-13424293D02*
X11412920Y-13376674D01*
X11412920Y-13376674D02*
X11422443Y-13338579D01*
X11422443Y-13338579D02*
X11431967Y-13319531D01*
X11431967Y-13319531D02*
X11441491Y-13310008D01*
X11441491Y-13310008D02*
X11460539Y-13300484D01*
X11612920Y-13500484D02*
X11612920Y-13367150D01*
X11612920Y-13386198D02*
X11622443Y-13376674D01*
X11622443Y-13376674D02*
X11641491Y-13367150D01*
X11641491Y-13367150D02*
X11670063Y-13367150D01*
X11670063Y-13367150D02*
X11689110Y-13376674D01*
X11689110Y-13376674D02*
X11698634Y-13395722D01*
X11698634Y-13395722D02*
X11698634Y-13500484D01*
X11698634Y-13395722D02*
X11708158Y-13376674D01*
X11708158Y-13376674D02*
X11727205Y-13367150D01*
X11727205Y-13367150D02*
X11755777Y-13367150D01*
X11755777Y-13367150D02*
X11774824Y-13376674D01*
X11774824Y-13376674D02*
X11784348Y-13395722D01*
X11784348Y-13395722D02*
X11784348Y-13500484D01*
X11879586Y-13500484D02*
X11879586Y-13367150D01*
X11879586Y-13386198D02*
X11889110Y-13376674D01*
X11889110Y-13376674D02*
X11908158Y-13367150D01*
X11908158Y-13367150D02*
X11936729Y-13367150D01*
X11936729Y-13367150D02*
X11955777Y-13376674D01*
X11955777Y-13376674D02*
X11965301Y-13395722D01*
X11965301Y-13395722D02*
X11965301Y-13500484D01*
X11965301Y-13395722D02*
X11974824Y-13376674D01*
X11974824Y-13376674D02*
X11993872Y-13367150D01*
X11993872Y-13367150D02*
X12022443Y-13367150D01*
X12022443Y-13367150D02*
X12041491Y-13376674D01*
X12041491Y-13376674D02*
X12051015Y-13395722D01*
X12051015Y-13395722D02*
X12051015Y-13500484D01*
X12441491Y-13290960D02*
X12270063Y-13548103D01*
X12698634Y-13300484D02*
X12717682Y-13300484D01*
X12717682Y-13300484D02*
X12736729Y-13310008D01*
X12736729Y-13310008D02*
X12746253Y-13319531D01*
X12746253Y-13319531D02*
X12755777Y-13338579D01*
X12755777Y-13338579D02*
X12765301Y-13376674D01*
X12765301Y-13376674D02*
X12765301Y-13424293D01*
X12765301Y-13424293D02*
X12755777Y-13462388D01*
X12755777Y-13462388D02*
X12746253Y-13481436D01*
X12746253Y-13481436D02*
X12736729Y-13490960D01*
X12736729Y-13490960D02*
X12717682Y-13500484D01*
X12717682Y-13500484D02*
X12698634Y-13500484D01*
X12698634Y-13500484D02*
X12679586Y-13490960D01*
X12679586Y-13490960D02*
X12670063Y-13481436D01*
X12670063Y-13481436D02*
X12660539Y-13462388D01*
X12660539Y-13462388D02*
X12651015Y-13424293D01*
X12651015Y-13424293D02*
X12651015Y-13376674D01*
X12651015Y-13376674D02*
X12660539Y-13338579D01*
X12660539Y-13338579D02*
X12670063Y-13319531D01*
X12670063Y-13319531D02*
X12679586Y-13310008D01*
X12679586Y-13310008D02*
X12698634Y-13300484D01*
X12851015Y-13481436D02*
X12860539Y-13490960D01*
X12860539Y-13490960D02*
X12851015Y-13500484D01*
X12851015Y-13500484D02*
X12841491Y-13490960D01*
X12841491Y-13490960D02*
X12851015Y-13481436D01*
X12851015Y-13481436D02*
X12851015Y-13500484D01*
X12984348Y-13300484D02*
X13003396Y-13300484D01*
X13003396Y-13300484D02*
X13022444Y-13310008D01*
X13022444Y-13310008D02*
X13031967Y-13319531D01*
X13031967Y-13319531D02*
X13041491Y-13338579D01*
X13041491Y-13338579D02*
X13051015Y-13376674D01*
X13051015Y-13376674D02*
X13051015Y-13424293D01*
X13051015Y-13424293D02*
X13041491Y-13462388D01*
X13041491Y-13462388D02*
X13031967Y-13481436D01*
X13031967Y-13481436D02*
X13022444Y-13490960D01*
X13022444Y-13490960D02*
X13003396Y-13500484D01*
X13003396Y-13500484D02*
X12984348Y-13500484D01*
X12984348Y-13500484D02*
X12965301Y-13490960D01*
X12965301Y-13490960D02*
X12955777Y-13481436D01*
X12955777Y-13481436D02*
X12946253Y-13462388D01*
X12946253Y-13462388D02*
X12936729Y-13424293D01*
X12936729Y-13424293D02*
X12936729Y-13376674D01*
X12936729Y-13376674D02*
X12946253Y-13338579D01*
X12946253Y-13338579D02*
X12955777Y-13319531D01*
X12955777Y-13319531D02*
X12965301Y-13310008D01*
X12965301Y-13310008D02*
X12984348Y-13300484D01*
X13241491Y-13500484D02*
X13127206Y-13500484D01*
X13184348Y-13500484D02*
X13184348Y-13300484D01*
X13184348Y-13300484D02*
X13165301Y-13329055D01*
X13165301Y-13329055D02*
X13146253Y-13348103D01*
X13146253Y-13348103D02*
X13127206Y-13357627D01*
X13422444Y-13300484D02*
X13327206Y-13300484D01*
X13327206Y-13300484D02*
X13317682Y-13395722D01*
X13317682Y-13395722D02*
X13327206Y-13386198D01*
X13327206Y-13386198D02*
X13346253Y-13376674D01*
X13346253Y-13376674D02*
X13393872Y-13376674D01*
X13393872Y-13376674D02*
X13412920Y-13386198D01*
X13412920Y-13386198D02*
X13422444Y-13395722D01*
X13422444Y-13395722D02*
X13431967Y-13414769D01*
X13431967Y-13414769D02*
X13431967Y-13462388D01*
X13431967Y-13462388D02*
X13422444Y-13481436D01*
X13422444Y-13481436D02*
X13412920Y-13490960D01*
X13412920Y-13490960D02*
X13393872Y-13500484D01*
X13393872Y-13500484D02*
X13346253Y-13500484D01*
X13346253Y-13500484D02*
X13327206Y-13490960D01*
X13327206Y-13490960D02*
X13317682Y-13481436D01*
X13498634Y-13300484D02*
X13631967Y-13300484D01*
X13631967Y-13300484D02*
X13546253Y-13500484D01*
X13698634Y-13300484D02*
X13698634Y-13338579D01*
X13774825Y-13300484D02*
X13774825Y-13338579D01*
X14070063Y-13576674D02*
X14060539Y-13567150D01*
X14060539Y-13567150D02*
X14041491Y-13538579D01*
X14041491Y-13538579D02*
X14031968Y-13519531D01*
X14031968Y-13519531D02*
X14022444Y-13490960D01*
X14022444Y-13490960D02*
X14012920Y-13443341D01*
X14012920Y-13443341D02*
X14012920Y-13405246D01*
X14012920Y-13405246D02*
X14022444Y-13357627D01*
X14022444Y-13357627D02*
X14031968Y-13329055D01*
X14031968Y-13329055D02*
X14041491Y-13310008D01*
X14041491Y-13310008D02*
X14060539Y-13281436D01*
X14060539Y-13281436D02*
X14070063Y-13271912D01*
X14241491Y-13300484D02*
X14146253Y-13300484D01*
X14146253Y-13300484D02*
X14136729Y-13395722D01*
X14136729Y-13395722D02*
X14146253Y-13386198D01*
X14146253Y-13386198D02*
X14165301Y-13376674D01*
X14165301Y-13376674D02*
X14212920Y-13376674D01*
X14212920Y-13376674D02*
X14231968Y-13386198D01*
X14231968Y-13386198D02*
X14241491Y-13395722D01*
X14241491Y-13395722D02*
X14251015Y-13414769D01*
X14251015Y-13414769D02*
X14251015Y-13462388D01*
X14251015Y-13462388D02*
X14241491Y-13481436D01*
X14241491Y-13481436D02*
X14231968Y-13490960D01*
X14231968Y-13490960D02*
X14212920Y-13500484D01*
X14212920Y-13500484D02*
X14165301Y-13500484D01*
X14165301Y-13500484D02*
X14146253Y-13490960D01*
X14146253Y-13490960D02*
X14136729Y-13481436D01*
X14422444Y-13300484D02*
X14384348Y-13300484D01*
X14384348Y-13300484D02*
X14365301Y-13310008D01*
X14365301Y-13310008D02*
X14355777Y-13319531D01*
X14355777Y-13319531D02*
X14336729Y-13348103D01*
X14336729Y-13348103D02*
X14327206Y-13386198D01*
X14327206Y-13386198D02*
X14327206Y-13462388D01*
X14327206Y-13462388D02*
X14336729Y-13481436D01*
X14336729Y-13481436D02*
X14346253Y-13490960D01*
X14346253Y-13490960D02*
X14365301Y-13500484D01*
X14365301Y-13500484D02*
X14403396Y-13500484D01*
X14403396Y-13500484D02*
X14422444Y-13490960D01*
X14422444Y-13490960D02*
X14431968Y-13481436D01*
X14431968Y-13481436D02*
X14441491Y-13462388D01*
X14441491Y-13462388D02*
X14441491Y-13414769D01*
X14441491Y-13414769D02*
X14431968Y-13395722D01*
X14431968Y-13395722D02*
X14422444Y-13386198D01*
X14422444Y-13386198D02*
X14403396Y-13376674D01*
X14403396Y-13376674D02*
X14365301Y-13376674D01*
X14365301Y-13376674D02*
X14346253Y-13386198D01*
X14346253Y-13386198D02*
X14336729Y-13395722D01*
X14336729Y-13395722D02*
X14327206Y-13414769D01*
X14679587Y-13500484D02*
X14679587Y-13300484D01*
X14765301Y-13500484D02*
X14765301Y-13395722D01*
X14765301Y-13395722D02*
X14755777Y-13376674D01*
X14755777Y-13376674D02*
X14736730Y-13367150D01*
X14736730Y-13367150D02*
X14708158Y-13367150D01*
X14708158Y-13367150D02*
X14689110Y-13376674D01*
X14689110Y-13376674D02*
X14679587Y-13386198D01*
X14889110Y-13500484D02*
X14870063Y-13490960D01*
X14870063Y-13490960D02*
X14860539Y-13481436D01*
X14860539Y-13481436D02*
X14851015Y-13462388D01*
X14851015Y-13462388D02*
X14851015Y-13405246D01*
X14851015Y-13405246D02*
X14860539Y-13386198D01*
X14860539Y-13386198D02*
X14870063Y-13376674D01*
X14870063Y-13376674D02*
X14889110Y-13367150D01*
X14889110Y-13367150D02*
X14917682Y-13367150D01*
X14917682Y-13367150D02*
X14936730Y-13376674D01*
X14936730Y-13376674D02*
X14946253Y-13386198D01*
X14946253Y-13386198D02*
X14955777Y-13405246D01*
X14955777Y-13405246D02*
X14955777Y-13462388D01*
X14955777Y-13462388D02*
X14946253Y-13481436D01*
X14946253Y-13481436D02*
X14936730Y-13490960D01*
X14936730Y-13490960D02*
X14917682Y-13500484D01*
X14917682Y-13500484D02*
X14889110Y-13500484D01*
X15070063Y-13500484D02*
X15051015Y-13490960D01*
X15051015Y-13490960D02*
X15041491Y-13471912D01*
X15041491Y-13471912D02*
X15041491Y-13300484D01*
X15222444Y-13490960D02*
X15203396Y-13500484D01*
X15203396Y-13500484D02*
X15165301Y-13500484D01*
X15165301Y-13500484D02*
X15146253Y-13490960D01*
X15146253Y-13490960D02*
X15136730Y-13471912D01*
X15136730Y-13471912D02*
X15136730Y-13395722D01*
X15136730Y-13395722D02*
X15146253Y-13376674D01*
X15146253Y-13376674D02*
X15165301Y-13367150D01*
X15165301Y-13367150D02*
X15203396Y-13367150D01*
X15203396Y-13367150D02*
X15222444Y-13376674D01*
X15222444Y-13376674D02*
X15231968Y-13395722D01*
X15231968Y-13395722D02*
X15231968Y-13414769D01*
X15231968Y-13414769D02*
X15136730Y-13433817D01*
X15308158Y-13490960D02*
X15327206Y-13500484D01*
X15327206Y-13500484D02*
X15365301Y-13500484D01*
X15365301Y-13500484D02*
X15384349Y-13490960D01*
X15384349Y-13490960D02*
X15393872Y-13471912D01*
X15393872Y-13471912D02*
X15393872Y-13462388D01*
X15393872Y-13462388D02*
X15384349Y-13443341D01*
X15384349Y-13443341D02*
X15365301Y-13433817D01*
X15365301Y-13433817D02*
X15336730Y-13433817D01*
X15336730Y-13433817D02*
X15317682Y-13424293D01*
X15317682Y-13424293D02*
X15308158Y-13405246D01*
X15308158Y-13405246D02*
X15308158Y-13395722D01*
X15308158Y-13395722D02*
X15317682Y-13376674D01*
X15317682Y-13376674D02*
X15336730Y-13367150D01*
X15336730Y-13367150D02*
X15365301Y-13367150D01*
X15365301Y-13367150D02*
X15384349Y-13376674D01*
X15460539Y-13576674D02*
X15470063Y-13567150D01*
X15470063Y-13567150D02*
X15489111Y-13538579D01*
X15489111Y-13538579D02*
X15498634Y-13519531D01*
X15498634Y-13519531D02*
X15508158Y-13490960D01*
X15508158Y-13490960D02*
X15517682Y-13443341D01*
X15517682Y-13443341D02*
X15517682Y-13405246D01*
X15517682Y-13405246D02*
X15508158Y-13357627D01*
X15508158Y-13357627D02*
X15498634Y-13329055D01*
X15498634Y-13329055D02*
X15489111Y-13310008D01*
X15489111Y-13310008D02*
X15470063Y-13281436D01*
X15470063Y-13281436D02*
X15460539Y-13271912D01*
D10*
X10465000Y-13643000D02*
X10465000Y-13703000D01*
X10435000Y-13673000D02*
X10495000Y-13673000D01*
D11*
X10793872Y-13564484D02*
X10812920Y-13564484D01*
X10812920Y-13564484D02*
X10831967Y-13574008D01*
X10831967Y-13574008D02*
X10841491Y-13583531D01*
X10841491Y-13583531D02*
X10851015Y-13602579D01*
X10851015Y-13602579D02*
X10860539Y-13640674D01*
X10860539Y-13640674D02*
X10860539Y-13688293D01*
X10860539Y-13688293D02*
X10851015Y-13726388D01*
X10851015Y-13726388D02*
X10841491Y-13745436D01*
X10841491Y-13745436D02*
X10831967Y-13754960D01*
X10831967Y-13754960D02*
X10812920Y-13764484D01*
X10812920Y-13764484D02*
X10793872Y-13764484D01*
X10793872Y-13764484D02*
X10774824Y-13754960D01*
X10774824Y-13754960D02*
X10765301Y-13745436D01*
X10765301Y-13745436D02*
X10755777Y-13726388D01*
X10755777Y-13726388D02*
X10746253Y-13688293D01*
X10746253Y-13688293D02*
X10746253Y-13640674D01*
X10746253Y-13640674D02*
X10755777Y-13602579D01*
X10755777Y-13602579D02*
X10765301Y-13583531D01*
X10765301Y-13583531D02*
X10774824Y-13574008D01*
X10774824Y-13574008D02*
X10793872Y-13564484D01*
X10946253Y-13745436D02*
X10955777Y-13754960D01*
X10955777Y-13754960D02*
X10946253Y-13764484D01*
X10946253Y-13764484D02*
X10936729Y-13754960D01*
X10936729Y-13754960D02*
X10946253Y-13745436D01*
X10946253Y-13745436D02*
X10946253Y-13764484D01*
X11127205Y-13564484D02*
X11089110Y-13564484D01*
X11089110Y-13564484D02*
X11070063Y-13574008D01*
X11070063Y-13574008D02*
X11060539Y-13583531D01*
X11060539Y-13583531D02*
X11041491Y-13612103D01*
X11041491Y-13612103D02*
X11031967Y-13650198D01*
X11031967Y-13650198D02*
X11031967Y-13726388D01*
X11031967Y-13726388D02*
X11041491Y-13745436D01*
X11041491Y-13745436D02*
X11051015Y-13754960D01*
X11051015Y-13754960D02*
X11070063Y-13764484D01*
X11070063Y-13764484D02*
X11108158Y-13764484D01*
X11108158Y-13764484D02*
X11127205Y-13754960D01*
X11127205Y-13754960D02*
X11136729Y-13745436D01*
X11136729Y-13745436D02*
X11146253Y-13726388D01*
X11146253Y-13726388D02*
X11146253Y-13678769D01*
X11146253Y-13678769D02*
X11136729Y-13659722D01*
X11136729Y-13659722D02*
X11127205Y-13650198D01*
X11127205Y-13650198D02*
X11108158Y-13640674D01*
X11108158Y-13640674D02*
X11070063Y-13640674D01*
X11070063Y-13640674D02*
X11051015Y-13650198D01*
X11051015Y-13650198D02*
X11041491Y-13659722D01*
X11041491Y-13659722D02*
X11031967Y-13678769D01*
X11270062Y-13564484D02*
X11289110Y-13564484D01*
X11289110Y-13564484D02*
X11308158Y-13574008D01*
X11308158Y-13574008D02*
X11317682Y-13583531D01*
X11317682Y-13583531D02*
X11327205Y-13602579D01*
X11327205Y-13602579D02*
X11336729Y-13640674D01*
X11336729Y-13640674D02*
X11336729Y-13688293D01*
X11336729Y-13688293D02*
X11327205Y-13726388D01*
X11327205Y-13726388D02*
X11317682Y-13745436D01*
X11317682Y-13745436D02*
X11308158Y-13754960D01*
X11308158Y-13754960D02*
X11289110Y-13764484D01*
X11289110Y-13764484D02*
X11270062Y-13764484D01*
X11270062Y-13764484D02*
X11251015Y-13754960D01*
X11251015Y-13754960D02*
X11241491Y-13745436D01*
X11241491Y-13745436D02*
X11231967Y-13726388D01*
X11231967Y-13726388D02*
X11222443Y-13688293D01*
X11222443Y-13688293D02*
X11222443Y-13640674D01*
X11222443Y-13640674D02*
X11231967Y-13602579D01*
X11231967Y-13602579D02*
X11241491Y-13583531D01*
X11241491Y-13583531D02*
X11251015Y-13574008D01*
X11251015Y-13574008D02*
X11270062Y-13564484D01*
X11460539Y-13564484D02*
X11479586Y-13564484D01*
X11479586Y-13564484D02*
X11498634Y-13574008D01*
X11498634Y-13574008D02*
X11508158Y-13583531D01*
X11508158Y-13583531D02*
X11517682Y-13602579D01*
X11517682Y-13602579D02*
X11527205Y-13640674D01*
X11527205Y-13640674D02*
X11527205Y-13688293D01*
X11527205Y-13688293D02*
X11517682Y-13726388D01*
X11517682Y-13726388D02*
X11508158Y-13745436D01*
X11508158Y-13745436D02*
X11498634Y-13754960D01*
X11498634Y-13754960D02*
X11479586Y-13764484D01*
X11479586Y-13764484D02*
X11460539Y-13764484D01*
X11460539Y-13764484D02*
X11441491Y-13754960D01*
X11441491Y-13754960D02*
X11431967Y-13745436D01*
X11431967Y-13745436D02*
X11422443Y-13726388D01*
X11422443Y-13726388D02*
X11412920Y-13688293D01*
X11412920Y-13688293D02*
X11412920Y-13640674D01*
X11412920Y-13640674D02*
X11422443Y-13602579D01*
X11422443Y-13602579D02*
X11431967Y-13583531D01*
X11431967Y-13583531D02*
X11441491Y-13574008D01*
X11441491Y-13574008D02*
X11460539Y-13564484D01*
X11612920Y-13764484D02*
X11612920Y-13631150D01*
X11612920Y-13650198D02*
X11622443Y-13640674D01*
X11622443Y-13640674D02*
X11641491Y-13631150D01*
X11641491Y-13631150D02*
X11670063Y-13631150D01*
X11670063Y-13631150D02*
X11689110Y-13640674D01*
X11689110Y-13640674D02*
X11698634Y-13659722D01*
X11698634Y-13659722D02*
X11698634Y-13764484D01*
X11698634Y-13659722D02*
X11708158Y-13640674D01*
X11708158Y-13640674D02*
X11727205Y-13631150D01*
X11727205Y-13631150D02*
X11755777Y-13631150D01*
X11755777Y-13631150D02*
X11774824Y-13640674D01*
X11774824Y-13640674D02*
X11784348Y-13659722D01*
X11784348Y-13659722D02*
X11784348Y-13764484D01*
X11879586Y-13764484D02*
X11879586Y-13631150D01*
X11879586Y-13650198D02*
X11889110Y-13640674D01*
X11889110Y-13640674D02*
X11908158Y-13631150D01*
X11908158Y-13631150D02*
X11936729Y-13631150D01*
X11936729Y-13631150D02*
X11955777Y-13640674D01*
X11955777Y-13640674D02*
X11965301Y-13659722D01*
X11965301Y-13659722D02*
X11965301Y-13764484D01*
X11965301Y-13659722D02*
X11974824Y-13640674D01*
X11974824Y-13640674D02*
X11993872Y-13631150D01*
X11993872Y-13631150D02*
X12022443Y-13631150D01*
X12022443Y-13631150D02*
X12041491Y-13640674D01*
X12041491Y-13640674D02*
X12051015Y-13659722D01*
X12051015Y-13659722D02*
X12051015Y-13764484D01*
X12441491Y-13554960D02*
X12270063Y-13812103D01*
X12698634Y-13564484D02*
X12717682Y-13564484D01*
X12717682Y-13564484D02*
X12736729Y-13574008D01*
X12736729Y-13574008D02*
X12746253Y-13583531D01*
X12746253Y-13583531D02*
X12755777Y-13602579D01*
X12755777Y-13602579D02*
X12765301Y-13640674D01*
X12765301Y-13640674D02*
X12765301Y-13688293D01*
X12765301Y-13688293D02*
X12755777Y-13726388D01*
X12755777Y-13726388D02*
X12746253Y-13745436D01*
X12746253Y-13745436D02*
X12736729Y-13754960D01*
X12736729Y-13754960D02*
X12717682Y-13764484D01*
X12717682Y-13764484D02*
X12698634Y-13764484D01*
X12698634Y-13764484D02*
X12679586Y-13754960D01*
X12679586Y-13754960D02*
X12670063Y-13745436D01*
X12670063Y-13745436D02*
X12660539Y-13726388D01*
X12660539Y-13726388D02*
X12651015Y-13688293D01*
X12651015Y-13688293D02*
X12651015Y-13640674D01*
X12651015Y-13640674D02*
X12660539Y-13602579D01*
X12660539Y-13602579D02*
X12670063Y-13583531D01*
X12670063Y-13583531D02*
X12679586Y-13574008D01*
X12679586Y-13574008D02*
X12698634Y-13564484D01*
X12851015Y-13745436D02*
X12860539Y-13754960D01*
X12860539Y-13754960D02*
X12851015Y-13764484D01*
X12851015Y-13764484D02*
X12841491Y-13754960D01*
X12841491Y-13754960D02*
X12851015Y-13745436D01*
X12851015Y-13745436D02*
X12851015Y-13764484D01*
X12984348Y-13564484D02*
X13003396Y-13564484D01*
X13003396Y-13564484D02*
X13022444Y-13574008D01*
X13022444Y-13574008D02*
X13031967Y-13583531D01*
X13031967Y-13583531D02*
X13041491Y-13602579D01*
X13041491Y-13602579D02*
X13051015Y-13640674D01*
X13051015Y-13640674D02*
X13051015Y-13688293D01*
X13051015Y-13688293D02*
X13041491Y-13726388D01*
X13041491Y-13726388D02*
X13031967Y-13745436D01*
X13031967Y-13745436D02*
X13022444Y-13754960D01*
X13022444Y-13754960D02*
X13003396Y-13764484D01*
X13003396Y-13764484D02*
X12984348Y-13764484D01*
X12984348Y-13764484D02*
X12965301Y-13754960D01*
X12965301Y-13754960D02*
X12955777Y-13745436D01*
X12955777Y-13745436D02*
X12946253Y-13726388D01*
X12946253Y-13726388D02*
X12936729Y-13688293D01*
X12936729Y-13688293D02*
X12936729Y-13640674D01*
X12936729Y-13640674D02*
X12946253Y-13602579D01*
X12946253Y-13602579D02*
X12955777Y-13583531D01*
X12955777Y-13583531D02*
X12965301Y-13574008D01*
X12965301Y-13574008D02*
X12984348Y-13564484D01*
X13127206Y-13583531D02*
X13136729Y-13574008D01*
X13136729Y-13574008D02*
X13155777Y-13564484D01*
X13155777Y-13564484D02*
X13203396Y-13564484D01*
X13203396Y-13564484D02*
X13222444Y-13574008D01*
X13222444Y-13574008D02*
X13231967Y-13583531D01*
X13231967Y-13583531D02*
X13241491Y-13602579D01*
X13241491Y-13602579D02*
X13241491Y-13621627D01*
X13241491Y-13621627D02*
X13231967Y-13650198D01*
X13231967Y-13650198D02*
X13117682Y-13764484D01*
X13117682Y-13764484D02*
X13241491Y-13764484D01*
X13308158Y-13564484D02*
X13431967Y-13564484D01*
X13431967Y-13564484D02*
X13365301Y-13640674D01*
X13365301Y-13640674D02*
X13393872Y-13640674D01*
X13393872Y-13640674D02*
X13412920Y-13650198D01*
X13412920Y-13650198D02*
X13422444Y-13659722D01*
X13422444Y-13659722D02*
X13431967Y-13678769D01*
X13431967Y-13678769D02*
X13431967Y-13726388D01*
X13431967Y-13726388D02*
X13422444Y-13745436D01*
X13422444Y-13745436D02*
X13412920Y-13754960D01*
X13412920Y-13754960D02*
X13393872Y-13764484D01*
X13393872Y-13764484D02*
X13336729Y-13764484D01*
X13336729Y-13764484D02*
X13317682Y-13754960D01*
X13317682Y-13754960D02*
X13308158Y-13745436D01*
X13603396Y-13564484D02*
X13565301Y-13564484D01*
X13565301Y-13564484D02*
X13546253Y-13574008D01*
X13546253Y-13574008D02*
X13536729Y-13583531D01*
X13536729Y-13583531D02*
X13517682Y-13612103D01*
X13517682Y-13612103D02*
X13508158Y-13650198D01*
X13508158Y-13650198D02*
X13508158Y-13726388D01*
X13508158Y-13726388D02*
X13517682Y-13745436D01*
X13517682Y-13745436D02*
X13527206Y-13754960D01*
X13527206Y-13754960D02*
X13546253Y-13764484D01*
X13546253Y-13764484D02*
X13584348Y-13764484D01*
X13584348Y-13764484D02*
X13603396Y-13754960D01*
X13603396Y-13754960D02*
X13612920Y-13745436D01*
X13612920Y-13745436D02*
X13622444Y-13726388D01*
X13622444Y-13726388D02*
X13622444Y-13678769D01*
X13622444Y-13678769D02*
X13612920Y-13659722D01*
X13612920Y-13659722D02*
X13603396Y-13650198D01*
X13603396Y-13650198D02*
X13584348Y-13640674D01*
X13584348Y-13640674D02*
X13546253Y-13640674D01*
X13546253Y-13640674D02*
X13527206Y-13650198D01*
X13527206Y-13650198D02*
X13517682Y-13659722D01*
X13517682Y-13659722D02*
X13508158Y-13678769D01*
X13698634Y-13564484D02*
X13698634Y-13602579D01*
X13774825Y-13564484D02*
X13774825Y-13602579D01*
X14070063Y-13840674D02*
X14060539Y-13831150D01*
X14060539Y-13831150D02*
X14041491Y-13802579D01*
X14041491Y-13802579D02*
X14031968Y-13783531D01*
X14031968Y-13783531D02*
X14022444Y-13754960D01*
X14022444Y-13754960D02*
X14012920Y-13707341D01*
X14012920Y-13707341D02*
X14012920Y-13669246D01*
X14012920Y-13669246D02*
X14022444Y-13621627D01*
X14022444Y-13621627D02*
X14031968Y-13593055D01*
X14031968Y-13593055D02*
X14041491Y-13574008D01*
X14041491Y-13574008D02*
X14060539Y-13545436D01*
X14060539Y-13545436D02*
X14070063Y-13535912D01*
X14136729Y-13583531D02*
X14146253Y-13574008D01*
X14146253Y-13574008D02*
X14165301Y-13564484D01*
X14165301Y-13564484D02*
X14212920Y-13564484D01*
X14212920Y-13564484D02*
X14231968Y-13574008D01*
X14231968Y-13574008D02*
X14241491Y-13583531D01*
X14241491Y-13583531D02*
X14251015Y-13602579D01*
X14251015Y-13602579D02*
X14251015Y-13621627D01*
X14251015Y-13621627D02*
X14241491Y-13650198D01*
X14241491Y-13650198D02*
X14127206Y-13764484D01*
X14127206Y-13764484D02*
X14251015Y-13764484D01*
X14422444Y-13631150D02*
X14422444Y-13764484D01*
X14374825Y-13554960D02*
X14327206Y-13697817D01*
X14327206Y-13697817D02*
X14451015Y-13697817D01*
X14679587Y-13764484D02*
X14679587Y-13564484D01*
X14765301Y-13764484D02*
X14765301Y-13659722D01*
X14765301Y-13659722D02*
X14755777Y-13640674D01*
X14755777Y-13640674D02*
X14736730Y-13631150D01*
X14736730Y-13631150D02*
X14708158Y-13631150D01*
X14708158Y-13631150D02*
X14689110Y-13640674D01*
X14689110Y-13640674D02*
X14679587Y-13650198D01*
X14889110Y-13764484D02*
X14870063Y-13754960D01*
X14870063Y-13754960D02*
X14860539Y-13745436D01*
X14860539Y-13745436D02*
X14851015Y-13726388D01*
X14851015Y-13726388D02*
X14851015Y-13669246D01*
X14851015Y-13669246D02*
X14860539Y-13650198D01*
X14860539Y-13650198D02*
X14870063Y-13640674D01*
X14870063Y-13640674D02*
X14889110Y-13631150D01*
X14889110Y-13631150D02*
X14917682Y-13631150D01*
X14917682Y-13631150D02*
X14936730Y-13640674D01*
X14936730Y-13640674D02*
X14946253Y-13650198D01*
X14946253Y-13650198D02*
X14955777Y-13669246D01*
X14955777Y-13669246D02*
X14955777Y-13726388D01*
X14955777Y-13726388D02*
X14946253Y-13745436D01*
X14946253Y-13745436D02*
X14936730Y-13754960D01*
X14936730Y-13754960D02*
X14917682Y-13764484D01*
X14917682Y-13764484D02*
X14889110Y-13764484D01*
X15070063Y-13764484D02*
X15051015Y-13754960D01*
X15051015Y-13754960D02*
X15041491Y-13735912D01*
X15041491Y-13735912D02*
X15041491Y-13564484D01*
X15222444Y-13754960D02*
X15203396Y-13764484D01*
X15203396Y-13764484D02*
X15165301Y-13764484D01*
X15165301Y-13764484D02*
X15146253Y-13754960D01*
X15146253Y-13754960D02*
X15136730Y-13735912D01*
X15136730Y-13735912D02*
X15136730Y-13659722D01*
X15136730Y-13659722D02*
X15146253Y-13640674D01*
X15146253Y-13640674D02*
X15165301Y-13631150D01*
X15165301Y-13631150D02*
X15203396Y-13631150D01*
X15203396Y-13631150D02*
X15222444Y-13640674D01*
X15222444Y-13640674D02*
X15231968Y-13659722D01*
X15231968Y-13659722D02*
X15231968Y-13678769D01*
X15231968Y-13678769D02*
X15136730Y-13697817D01*
X15308158Y-13754960D02*
X15327206Y-13764484D01*
X15327206Y-13764484D02*
X15365301Y-13764484D01*
X15365301Y-13764484D02*
X15384349Y-13754960D01*
X15384349Y-13754960D02*
X15393872Y-13735912D01*
X15393872Y-13735912D02*
X15393872Y-13726388D01*
X15393872Y-13726388D02*
X15384349Y-13707341D01*
X15384349Y-13707341D02*
X15365301Y-13697817D01*
X15365301Y-13697817D02*
X15336730Y-13697817D01*
X15336730Y-13697817D02*
X15317682Y-13688293D01*
X15317682Y-13688293D02*
X15308158Y-13669246D01*
X15308158Y-13669246D02*
X15308158Y-13659722D01*
X15308158Y-13659722D02*
X15317682Y-13640674D01*
X15317682Y-13640674D02*
X15336730Y-13631150D01*
X15336730Y-13631150D02*
X15365301Y-13631150D01*
X15365301Y-13631150D02*
X15384349Y-13640674D01*
X15631968Y-13688293D02*
X15784349Y-13688293D01*
X15708158Y-13764484D02*
X15708158Y-13612103D01*
X16117682Y-13631150D02*
X16117682Y-13764484D01*
X16070063Y-13554960D02*
X16022444Y-13697817D01*
X16022444Y-13697817D02*
X16146253Y-13697817D01*
X16365301Y-13754960D02*
X16384349Y-13764484D01*
X16384349Y-13764484D02*
X16422444Y-13764484D01*
X16422444Y-13764484D02*
X16441492Y-13754960D01*
X16441492Y-13754960D02*
X16451015Y-13735912D01*
X16451015Y-13735912D02*
X16451015Y-13726388D01*
X16451015Y-13726388D02*
X16441492Y-13707341D01*
X16441492Y-13707341D02*
X16422444Y-13697817D01*
X16422444Y-13697817D02*
X16393873Y-13697817D01*
X16393873Y-13697817D02*
X16374825Y-13688293D01*
X16374825Y-13688293D02*
X16365301Y-13669246D01*
X16365301Y-13669246D02*
X16365301Y-13659722D01*
X16365301Y-13659722D02*
X16374825Y-13640674D01*
X16374825Y-13640674D02*
X16393873Y-13631150D01*
X16393873Y-13631150D02*
X16422444Y-13631150D01*
X16422444Y-13631150D02*
X16441492Y-13640674D01*
X16565301Y-13764484D02*
X16546254Y-13754960D01*
X16546254Y-13754960D02*
X16536730Y-13735912D01*
X16536730Y-13735912D02*
X16536730Y-13564484D01*
X16670063Y-13764484D02*
X16651015Y-13754960D01*
X16651015Y-13754960D02*
X16641492Y-13745436D01*
X16641492Y-13745436D02*
X16631968Y-13726388D01*
X16631968Y-13726388D02*
X16631968Y-13669246D01*
X16631968Y-13669246D02*
X16641492Y-13650198D01*
X16641492Y-13650198D02*
X16651015Y-13640674D01*
X16651015Y-13640674D02*
X16670063Y-13631150D01*
X16670063Y-13631150D02*
X16698635Y-13631150D01*
X16698635Y-13631150D02*
X16717682Y-13640674D01*
X16717682Y-13640674D02*
X16727206Y-13650198D01*
X16727206Y-13650198D02*
X16736730Y-13669246D01*
X16736730Y-13669246D02*
X16736730Y-13726388D01*
X16736730Y-13726388D02*
X16727206Y-13745436D01*
X16727206Y-13745436D02*
X16717682Y-13754960D01*
X16717682Y-13754960D02*
X16698635Y-13764484D01*
X16698635Y-13764484D02*
X16670063Y-13764484D01*
X16793873Y-13631150D02*
X16870063Y-13631150D01*
X16822444Y-13564484D02*
X16822444Y-13735912D01*
X16822444Y-13735912D02*
X16831968Y-13754960D01*
X16831968Y-13754960D02*
X16851016Y-13764484D01*
X16851016Y-13764484D02*
X16870063Y-13764484D01*
X16927206Y-13754960D02*
X16946254Y-13764484D01*
X16946254Y-13764484D02*
X16984349Y-13764484D01*
X16984349Y-13764484D02*
X17003397Y-13754960D01*
X17003397Y-13754960D02*
X17012920Y-13735912D01*
X17012920Y-13735912D02*
X17012920Y-13726388D01*
X17012920Y-13726388D02*
X17003397Y-13707341D01*
X17003397Y-13707341D02*
X16984349Y-13697817D01*
X16984349Y-13697817D02*
X16955777Y-13697817D01*
X16955777Y-13697817D02*
X16936730Y-13688293D01*
X16936730Y-13688293D02*
X16927206Y-13669246D01*
X16927206Y-13669246D02*
X16927206Y-13659722D01*
X16927206Y-13659722D02*
X16936730Y-13640674D01*
X16936730Y-13640674D02*
X16955777Y-13631150D01*
X16955777Y-13631150D02*
X16984349Y-13631150D01*
X16984349Y-13631150D02*
X17003397Y-13640674D01*
X17079587Y-13840674D02*
X17089111Y-13831150D01*
X17089111Y-13831150D02*
X17108158Y-13802579D01*
X17108158Y-13802579D02*
X17117682Y-13783531D01*
X17117682Y-13783531D02*
X17127206Y-13754960D01*
X17127206Y-13754960D02*
X17136730Y-13707341D01*
X17136730Y-13707341D02*
X17136730Y-13669246D01*
X17136730Y-13669246D02*
X17127206Y-13621627D01*
X17127206Y-13621627D02*
X17117682Y-13593055D01*
X17117682Y-13593055D02*
X17108158Y-13574008D01*
X17108158Y-13574008D02*
X17089111Y-13545436D01*
X17089111Y-13545436D02*
X17079587Y-13535912D01*
D10*
X10480356Y-13972356D02*
X10480356Y-13901644D01*
X10409644Y-13901644D01*
X10409644Y-13972356D01*
X10480356Y-13972356D01*
D11*
X10860539Y-14028484D02*
X10746253Y-14028484D01*
X10803396Y-14028484D02*
X10803396Y-13828484D01*
X10803396Y-13828484D02*
X10784348Y-13857055D01*
X10784348Y-13857055D02*
X10765301Y-13876103D01*
X10765301Y-13876103D02*
X10746253Y-13885627D01*
X10946253Y-14009436D02*
X10955777Y-14018960D01*
X10955777Y-14018960D02*
X10946253Y-14028484D01*
X10946253Y-14028484D02*
X10936729Y-14018960D01*
X10936729Y-14018960D02*
X10946253Y-14009436D01*
X10946253Y-14009436D02*
X10946253Y-14028484D01*
X11079586Y-13828484D02*
X11098634Y-13828484D01*
X11098634Y-13828484D02*
X11117682Y-13838008D01*
X11117682Y-13838008D02*
X11127205Y-13847531D01*
X11127205Y-13847531D02*
X11136729Y-13866579D01*
X11136729Y-13866579D02*
X11146253Y-13904674D01*
X11146253Y-13904674D02*
X11146253Y-13952293D01*
X11146253Y-13952293D02*
X11136729Y-13990388D01*
X11136729Y-13990388D02*
X11127205Y-14009436D01*
X11127205Y-14009436D02*
X11117682Y-14018960D01*
X11117682Y-14018960D02*
X11098634Y-14028484D01*
X11098634Y-14028484D02*
X11079586Y-14028484D01*
X11079586Y-14028484D02*
X11060539Y-14018960D01*
X11060539Y-14018960D02*
X11051015Y-14009436D01*
X11051015Y-14009436D02*
X11041491Y-13990388D01*
X11041491Y-13990388D02*
X11031967Y-13952293D01*
X11031967Y-13952293D02*
X11031967Y-13904674D01*
X11031967Y-13904674D02*
X11041491Y-13866579D01*
X11041491Y-13866579D02*
X11051015Y-13847531D01*
X11051015Y-13847531D02*
X11060539Y-13838008D01*
X11060539Y-13838008D02*
X11079586Y-13828484D01*
X11270062Y-13828484D02*
X11289110Y-13828484D01*
X11289110Y-13828484D02*
X11308158Y-13838008D01*
X11308158Y-13838008D02*
X11317682Y-13847531D01*
X11317682Y-13847531D02*
X11327205Y-13866579D01*
X11327205Y-13866579D02*
X11336729Y-13904674D01*
X11336729Y-13904674D02*
X11336729Y-13952293D01*
X11336729Y-13952293D02*
X11327205Y-13990388D01*
X11327205Y-13990388D02*
X11317682Y-14009436D01*
X11317682Y-14009436D02*
X11308158Y-14018960D01*
X11308158Y-14018960D02*
X11289110Y-14028484D01*
X11289110Y-14028484D02*
X11270062Y-14028484D01*
X11270062Y-14028484D02*
X11251015Y-14018960D01*
X11251015Y-14018960D02*
X11241491Y-14009436D01*
X11241491Y-14009436D02*
X11231967Y-13990388D01*
X11231967Y-13990388D02*
X11222443Y-13952293D01*
X11222443Y-13952293D02*
X11222443Y-13904674D01*
X11222443Y-13904674D02*
X11231967Y-13866579D01*
X11231967Y-13866579D02*
X11241491Y-13847531D01*
X11241491Y-13847531D02*
X11251015Y-13838008D01*
X11251015Y-13838008D02*
X11270062Y-13828484D01*
X11460539Y-13828484D02*
X11479586Y-13828484D01*
X11479586Y-13828484D02*
X11498634Y-13838008D01*
X11498634Y-13838008D02*
X11508158Y-13847531D01*
X11508158Y-13847531D02*
X11517682Y-13866579D01*
X11517682Y-13866579D02*
X11527205Y-13904674D01*
X11527205Y-13904674D02*
X11527205Y-13952293D01*
X11527205Y-13952293D02*
X11517682Y-13990388D01*
X11517682Y-13990388D02*
X11508158Y-14009436D01*
X11508158Y-14009436D02*
X11498634Y-14018960D01*
X11498634Y-14018960D02*
X11479586Y-14028484D01*
X11479586Y-14028484D02*
X11460539Y-14028484D01*
X11460539Y-14028484D02*
X11441491Y-14018960D01*
X11441491Y-14018960D02*
X11431967Y-14009436D01*
X11431967Y-14009436D02*
X11422443Y-13990388D01*
X11422443Y-13990388D02*
X11412920Y-13952293D01*
X11412920Y-13952293D02*
X11412920Y-13904674D01*
X11412920Y-13904674D02*
X11422443Y-13866579D01*
X11422443Y-13866579D02*
X11431967Y-13847531D01*
X11431967Y-13847531D02*
X11441491Y-13838008D01*
X11441491Y-13838008D02*
X11460539Y-13828484D01*
X11612920Y-14028484D02*
X11612920Y-13895150D01*
X11612920Y-13914198D02*
X11622443Y-13904674D01*
X11622443Y-13904674D02*
X11641491Y-13895150D01*
X11641491Y-13895150D02*
X11670063Y-13895150D01*
X11670063Y-13895150D02*
X11689110Y-13904674D01*
X11689110Y-13904674D02*
X11698634Y-13923722D01*
X11698634Y-13923722D02*
X11698634Y-14028484D01*
X11698634Y-13923722D02*
X11708158Y-13904674D01*
X11708158Y-13904674D02*
X11727205Y-13895150D01*
X11727205Y-13895150D02*
X11755777Y-13895150D01*
X11755777Y-13895150D02*
X11774824Y-13904674D01*
X11774824Y-13904674D02*
X11784348Y-13923722D01*
X11784348Y-13923722D02*
X11784348Y-14028484D01*
X11879586Y-14028484D02*
X11879586Y-13895150D01*
X11879586Y-13914198D02*
X11889110Y-13904674D01*
X11889110Y-13904674D02*
X11908158Y-13895150D01*
X11908158Y-13895150D02*
X11936729Y-13895150D01*
X11936729Y-13895150D02*
X11955777Y-13904674D01*
X11955777Y-13904674D02*
X11965301Y-13923722D01*
X11965301Y-13923722D02*
X11965301Y-14028484D01*
X11965301Y-13923722D02*
X11974824Y-13904674D01*
X11974824Y-13904674D02*
X11993872Y-13895150D01*
X11993872Y-13895150D02*
X12022443Y-13895150D01*
X12022443Y-13895150D02*
X12041491Y-13904674D01*
X12041491Y-13904674D02*
X12051015Y-13923722D01*
X12051015Y-13923722D02*
X12051015Y-14028484D01*
X12441491Y-13818960D02*
X12270063Y-14076103D01*
X12698634Y-13828484D02*
X12717682Y-13828484D01*
X12717682Y-13828484D02*
X12736729Y-13838008D01*
X12736729Y-13838008D02*
X12746253Y-13847531D01*
X12746253Y-13847531D02*
X12755777Y-13866579D01*
X12755777Y-13866579D02*
X12765301Y-13904674D01*
X12765301Y-13904674D02*
X12765301Y-13952293D01*
X12765301Y-13952293D02*
X12755777Y-13990388D01*
X12755777Y-13990388D02*
X12746253Y-14009436D01*
X12746253Y-14009436D02*
X12736729Y-14018960D01*
X12736729Y-14018960D02*
X12717682Y-14028484D01*
X12717682Y-14028484D02*
X12698634Y-14028484D01*
X12698634Y-14028484D02*
X12679586Y-14018960D01*
X12679586Y-14018960D02*
X12670063Y-14009436D01*
X12670063Y-14009436D02*
X12660539Y-13990388D01*
X12660539Y-13990388D02*
X12651015Y-13952293D01*
X12651015Y-13952293D02*
X12651015Y-13904674D01*
X12651015Y-13904674D02*
X12660539Y-13866579D01*
X12660539Y-13866579D02*
X12670063Y-13847531D01*
X12670063Y-13847531D02*
X12679586Y-13838008D01*
X12679586Y-13838008D02*
X12698634Y-13828484D01*
X12851015Y-14009436D02*
X12860539Y-14018960D01*
X12860539Y-14018960D02*
X12851015Y-14028484D01*
X12851015Y-14028484D02*
X12841491Y-14018960D01*
X12841491Y-14018960D02*
X12851015Y-14009436D01*
X12851015Y-14009436D02*
X12851015Y-14028484D01*
X12984348Y-13828484D02*
X13003396Y-13828484D01*
X13003396Y-13828484D02*
X13022444Y-13838008D01*
X13022444Y-13838008D02*
X13031967Y-13847531D01*
X13031967Y-13847531D02*
X13041491Y-13866579D01*
X13041491Y-13866579D02*
X13051015Y-13904674D01*
X13051015Y-13904674D02*
X13051015Y-13952293D01*
X13051015Y-13952293D02*
X13041491Y-13990388D01*
X13041491Y-13990388D02*
X13031967Y-14009436D01*
X13031967Y-14009436D02*
X13022444Y-14018960D01*
X13022444Y-14018960D02*
X13003396Y-14028484D01*
X13003396Y-14028484D02*
X12984348Y-14028484D01*
X12984348Y-14028484D02*
X12965301Y-14018960D01*
X12965301Y-14018960D02*
X12955777Y-14009436D01*
X12955777Y-14009436D02*
X12946253Y-13990388D01*
X12946253Y-13990388D02*
X12936729Y-13952293D01*
X12936729Y-13952293D02*
X12936729Y-13904674D01*
X12936729Y-13904674D02*
X12946253Y-13866579D01*
X12946253Y-13866579D02*
X12955777Y-13847531D01*
X12955777Y-13847531D02*
X12965301Y-13838008D01*
X12965301Y-13838008D02*
X12984348Y-13828484D01*
X13117682Y-13828484D02*
X13241491Y-13828484D01*
X13241491Y-13828484D02*
X13174825Y-13904674D01*
X13174825Y-13904674D02*
X13203396Y-13904674D01*
X13203396Y-13904674D02*
X13222444Y-13914198D01*
X13222444Y-13914198D02*
X13231967Y-13923722D01*
X13231967Y-13923722D02*
X13241491Y-13942769D01*
X13241491Y-13942769D02*
X13241491Y-13990388D01*
X13241491Y-13990388D02*
X13231967Y-14009436D01*
X13231967Y-14009436D02*
X13222444Y-14018960D01*
X13222444Y-14018960D02*
X13203396Y-14028484D01*
X13203396Y-14028484D02*
X13146253Y-14028484D01*
X13146253Y-14028484D02*
X13127206Y-14018960D01*
X13127206Y-14018960D02*
X13117682Y-14009436D01*
X13336729Y-14028484D02*
X13374825Y-14028484D01*
X13374825Y-14028484D02*
X13393872Y-14018960D01*
X13393872Y-14018960D02*
X13403396Y-14009436D01*
X13403396Y-14009436D02*
X13422444Y-13980865D01*
X13422444Y-13980865D02*
X13431967Y-13942769D01*
X13431967Y-13942769D02*
X13431967Y-13866579D01*
X13431967Y-13866579D02*
X13422444Y-13847531D01*
X13422444Y-13847531D02*
X13412920Y-13838008D01*
X13412920Y-13838008D02*
X13393872Y-13828484D01*
X13393872Y-13828484D02*
X13355777Y-13828484D01*
X13355777Y-13828484D02*
X13336729Y-13838008D01*
X13336729Y-13838008D02*
X13327206Y-13847531D01*
X13327206Y-13847531D02*
X13317682Y-13866579D01*
X13317682Y-13866579D02*
X13317682Y-13914198D01*
X13317682Y-13914198D02*
X13327206Y-13933246D01*
X13327206Y-13933246D02*
X13336729Y-13942769D01*
X13336729Y-13942769D02*
X13355777Y-13952293D01*
X13355777Y-13952293D02*
X13393872Y-13952293D01*
X13393872Y-13952293D02*
X13412920Y-13942769D01*
X13412920Y-13942769D02*
X13422444Y-13933246D01*
X13422444Y-13933246D02*
X13431967Y-13914198D01*
X13603396Y-13895150D02*
X13603396Y-14028484D01*
X13555777Y-13818960D02*
X13508158Y-13961817D01*
X13508158Y-13961817D02*
X13631967Y-13961817D01*
X13698634Y-13828484D02*
X13698634Y-13866579D01*
X13774825Y-13828484D02*
X13774825Y-13866579D01*
X14070063Y-14104674D02*
X14060539Y-14095150D01*
X14060539Y-14095150D02*
X14041491Y-14066579D01*
X14041491Y-14066579D02*
X14031968Y-14047531D01*
X14031968Y-14047531D02*
X14022444Y-14018960D01*
X14022444Y-14018960D02*
X14012920Y-13971341D01*
X14012920Y-13971341D02*
X14012920Y-13933246D01*
X14012920Y-13933246D02*
X14022444Y-13885627D01*
X14022444Y-13885627D02*
X14031968Y-13857055D01*
X14031968Y-13857055D02*
X14041491Y-13838008D01*
X14041491Y-13838008D02*
X14060539Y-13809436D01*
X14060539Y-13809436D02*
X14070063Y-13799912D01*
X14174825Y-13914198D02*
X14155777Y-13904674D01*
X14155777Y-13904674D02*
X14146253Y-13895150D01*
X14146253Y-13895150D02*
X14136729Y-13876103D01*
X14136729Y-13876103D02*
X14136729Y-13866579D01*
X14136729Y-13866579D02*
X14146253Y-13847531D01*
X14146253Y-13847531D02*
X14155777Y-13838008D01*
X14155777Y-13838008D02*
X14174825Y-13828484D01*
X14174825Y-13828484D02*
X14212920Y-13828484D01*
X14212920Y-13828484D02*
X14231968Y-13838008D01*
X14231968Y-13838008D02*
X14241491Y-13847531D01*
X14241491Y-13847531D02*
X14251015Y-13866579D01*
X14251015Y-13866579D02*
X14251015Y-13876103D01*
X14251015Y-13876103D02*
X14241491Y-13895150D01*
X14241491Y-13895150D02*
X14231968Y-13904674D01*
X14231968Y-13904674D02*
X14212920Y-13914198D01*
X14212920Y-13914198D02*
X14174825Y-13914198D01*
X14174825Y-13914198D02*
X14155777Y-13923722D01*
X14155777Y-13923722D02*
X14146253Y-13933246D01*
X14146253Y-13933246D02*
X14136729Y-13952293D01*
X14136729Y-13952293D02*
X14136729Y-13990388D01*
X14136729Y-13990388D02*
X14146253Y-14009436D01*
X14146253Y-14009436D02*
X14155777Y-14018960D01*
X14155777Y-14018960D02*
X14174825Y-14028484D01*
X14174825Y-14028484D02*
X14212920Y-14028484D01*
X14212920Y-14028484D02*
X14231968Y-14018960D01*
X14231968Y-14018960D02*
X14241491Y-14009436D01*
X14241491Y-14009436D02*
X14251015Y-13990388D01*
X14251015Y-13990388D02*
X14251015Y-13952293D01*
X14251015Y-13952293D02*
X14241491Y-13933246D01*
X14241491Y-13933246D02*
X14231968Y-13923722D01*
X14231968Y-13923722D02*
X14212920Y-13914198D01*
X14489110Y-14028484D02*
X14489110Y-13828484D01*
X14574825Y-14028484D02*
X14574825Y-13923722D01*
X14574825Y-13923722D02*
X14565301Y-13904674D01*
X14565301Y-13904674D02*
X14546253Y-13895150D01*
X14546253Y-13895150D02*
X14517682Y-13895150D01*
X14517682Y-13895150D02*
X14498634Y-13904674D01*
X14498634Y-13904674D02*
X14489110Y-13914198D01*
X14698634Y-14028484D02*
X14679587Y-14018960D01*
X14679587Y-14018960D02*
X14670063Y-14009436D01*
X14670063Y-14009436D02*
X14660539Y-13990388D01*
X14660539Y-13990388D02*
X14660539Y-13933246D01*
X14660539Y-13933246D02*
X14670063Y-13914198D01*
X14670063Y-13914198D02*
X14679587Y-13904674D01*
X14679587Y-13904674D02*
X14698634Y-13895150D01*
X14698634Y-13895150D02*
X14727206Y-13895150D01*
X14727206Y-13895150D02*
X14746253Y-13904674D01*
X14746253Y-13904674D02*
X14755777Y-13914198D01*
X14755777Y-13914198D02*
X14765301Y-13933246D01*
X14765301Y-13933246D02*
X14765301Y-13990388D01*
X14765301Y-13990388D02*
X14755777Y-14009436D01*
X14755777Y-14009436D02*
X14746253Y-14018960D01*
X14746253Y-14018960D02*
X14727206Y-14028484D01*
X14727206Y-14028484D02*
X14698634Y-14028484D01*
X14879587Y-14028484D02*
X14860539Y-14018960D01*
X14860539Y-14018960D02*
X14851015Y-13999912D01*
X14851015Y-13999912D02*
X14851015Y-13828484D01*
X15031968Y-14018960D02*
X15012920Y-14028484D01*
X15012920Y-14028484D02*
X14974825Y-14028484D01*
X14974825Y-14028484D02*
X14955777Y-14018960D01*
X14955777Y-14018960D02*
X14946253Y-13999912D01*
X14946253Y-13999912D02*
X14946253Y-13923722D01*
X14946253Y-13923722D02*
X14955777Y-13904674D01*
X14955777Y-13904674D02*
X14974825Y-13895150D01*
X14974825Y-13895150D02*
X15012920Y-13895150D01*
X15012920Y-13895150D02*
X15031968Y-13904674D01*
X15031968Y-13904674D02*
X15041491Y-13923722D01*
X15041491Y-13923722D02*
X15041491Y-13942769D01*
X15041491Y-13942769D02*
X14946253Y-13961817D01*
X15117682Y-14018960D02*
X15136730Y-14028484D01*
X15136730Y-14028484D02*
X15174825Y-14028484D01*
X15174825Y-14028484D02*
X15193872Y-14018960D01*
X15193872Y-14018960D02*
X15203396Y-13999912D01*
X15203396Y-13999912D02*
X15203396Y-13990388D01*
X15203396Y-13990388D02*
X15193872Y-13971341D01*
X15193872Y-13971341D02*
X15174825Y-13961817D01*
X15174825Y-13961817D02*
X15146253Y-13961817D01*
X15146253Y-13961817D02*
X15127206Y-13952293D01*
X15127206Y-13952293D02*
X15117682Y-13933246D01*
X15117682Y-13933246D02*
X15117682Y-13923722D01*
X15117682Y-13923722D02*
X15127206Y-13904674D01*
X15127206Y-13904674D02*
X15146253Y-13895150D01*
X15146253Y-13895150D02*
X15174825Y-13895150D01*
X15174825Y-13895150D02*
X15193872Y-13904674D01*
X15270063Y-14104674D02*
X15279587Y-14095150D01*
X15279587Y-14095150D02*
X15298634Y-14066579D01*
X15298634Y-14066579D02*
X15308158Y-14047531D01*
X15308158Y-14047531D02*
X15317682Y-14018960D01*
X15317682Y-14018960D02*
X15327206Y-13971341D01*
X15327206Y-13971341D02*
X15327206Y-13933246D01*
X15327206Y-13933246D02*
X15317682Y-13885627D01*
X15317682Y-13885627D02*
X15308158Y-13857055D01*
X15308158Y-13857055D02*
X15298634Y-13838008D01*
X15298634Y-13838008D02*
X15279587Y-13809436D01*
X15279587Y-13809436D02*
X15270063Y-13799912D01*
X10395000Y-14301000D02*
X10495000Y-14201000D01*
X10395000Y-14101000D01*
X10295000Y-14201000D01*
X10395000Y-14301000D01*
X10841491Y-14159150D02*
X10841491Y-14292484D01*
X10793872Y-14082960D02*
X10746253Y-14225817D01*
X10746253Y-14225817D02*
X10870063Y-14225817D01*
X10946253Y-14273436D02*
X10955777Y-14282960D01*
X10955777Y-14282960D02*
X10946253Y-14292484D01*
X10946253Y-14292484D02*
X10936729Y-14282960D01*
X10936729Y-14282960D02*
X10946253Y-14273436D01*
X10946253Y-14273436D02*
X10946253Y-14292484D01*
X11022444Y-14092484D02*
X11146253Y-14092484D01*
X11146253Y-14092484D02*
X11079586Y-14168674D01*
X11079586Y-14168674D02*
X11108158Y-14168674D01*
X11108158Y-14168674D02*
X11127205Y-14178198D01*
X11127205Y-14178198D02*
X11136729Y-14187722D01*
X11136729Y-14187722D02*
X11146253Y-14206769D01*
X11146253Y-14206769D02*
X11146253Y-14254388D01*
X11146253Y-14254388D02*
X11136729Y-14273436D01*
X11136729Y-14273436D02*
X11127205Y-14282960D01*
X11127205Y-14282960D02*
X11108158Y-14292484D01*
X11108158Y-14292484D02*
X11051015Y-14292484D01*
X11051015Y-14292484D02*
X11031967Y-14282960D01*
X11031967Y-14282960D02*
X11022444Y-14273436D01*
X11270062Y-14092484D02*
X11289110Y-14092484D01*
X11289110Y-14092484D02*
X11308158Y-14102008D01*
X11308158Y-14102008D02*
X11317682Y-14111531D01*
X11317682Y-14111531D02*
X11327205Y-14130579D01*
X11327205Y-14130579D02*
X11336729Y-14168674D01*
X11336729Y-14168674D02*
X11336729Y-14216293D01*
X11336729Y-14216293D02*
X11327205Y-14254388D01*
X11327205Y-14254388D02*
X11317682Y-14273436D01*
X11317682Y-14273436D02*
X11308158Y-14282960D01*
X11308158Y-14282960D02*
X11289110Y-14292484D01*
X11289110Y-14292484D02*
X11270062Y-14292484D01*
X11270062Y-14292484D02*
X11251015Y-14282960D01*
X11251015Y-14282960D02*
X11241491Y-14273436D01*
X11241491Y-14273436D02*
X11231967Y-14254388D01*
X11231967Y-14254388D02*
X11222443Y-14216293D01*
X11222443Y-14216293D02*
X11222443Y-14168674D01*
X11222443Y-14168674D02*
X11231967Y-14130579D01*
X11231967Y-14130579D02*
X11241491Y-14111531D01*
X11241491Y-14111531D02*
X11251015Y-14102008D01*
X11251015Y-14102008D02*
X11270062Y-14092484D01*
X11460539Y-14092484D02*
X11479586Y-14092484D01*
X11479586Y-14092484D02*
X11498634Y-14102008D01*
X11498634Y-14102008D02*
X11508158Y-14111531D01*
X11508158Y-14111531D02*
X11517682Y-14130579D01*
X11517682Y-14130579D02*
X11527205Y-14168674D01*
X11527205Y-14168674D02*
X11527205Y-14216293D01*
X11527205Y-14216293D02*
X11517682Y-14254388D01*
X11517682Y-14254388D02*
X11508158Y-14273436D01*
X11508158Y-14273436D02*
X11498634Y-14282960D01*
X11498634Y-14282960D02*
X11479586Y-14292484D01*
X11479586Y-14292484D02*
X11460539Y-14292484D01*
X11460539Y-14292484D02*
X11441491Y-14282960D01*
X11441491Y-14282960D02*
X11431967Y-14273436D01*
X11431967Y-14273436D02*
X11422443Y-14254388D01*
X11422443Y-14254388D02*
X11412920Y-14216293D01*
X11412920Y-14216293D02*
X11412920Y-14168674D01*
X11412920Y-14168674D02*
X11422443Y-14130579D01*
X11422443Y-14130579D02*
X11431967Y-14111531D01*
X11431967Y-14111531D02*
X11441491Y-14102008D01*
X11441491Y-14102008D02*
X11460539Y-14092484D01*
X11612920Y-14292484D02*
X11612920Y-14159150D01*
X11612920Y-14178198D02*
X11622443Y-14168674D01*
X11622443Y-14168674D02*
X11641491Y-14159150D01*
X11641491Y-14159150D02*
X11670063Y-14159150D01*
X11670063Y-14159150D02*
X11689110Y-14168674D01*
X11689110Y-14168674D02*
X11698634Y-14187722D01*
X11698634Y-14187722D02*
X11698634Y-14292484D01*
X11698634Y-14187722D02*
X11708158Y-14168674D01*
X11708158Y-14168674D02*
X11727205Y-14159150D01*
X11727205Y-14159150D02*
X11755777Y-14159150D01*
X11755777Y-14159150D02*
X11774824Y-14168674D01*
X11774824Y-14168674D02*
X11784348Y-14187722D01*
X11784348Y-14187722D02*
X11784348Y-14292484D01*
X11879586Y-14292484D02*
X11879586Y-14159150D01*
X11879586Y-14178198D02*
X11889110Y-14168674D01*
X11889110Y-14168674D02*
X11908158Y-14159150D01*
X11908158Y-14159150D02*
X11936729Y-14159150D01*
X11936729Y-14159150D02*
X11955777Y-14168674D01*
X11955777Y-14168674D02*
X11965301Y-14187722D01*
X11965301Y-14187722D02*
X11965301Y-14292484D01*
X11965301Y-14187722D02*
X11974824Y-14168674D01*
X11974824Y-14168674D02*
X11993872Y-14159150D01*
X11993872Y-14159150D02*
X12022443Y-14159150D01*
X12022443Y-14159150D02*
X12041491Y-14168674D01*
X12041491Y-14168674D02*
X12051015Y-14187722D01*
X12051015Y-14187722D02*
X12051015Y-14292484D01*
X12441491Y-14082960D02*
X12270063Y-14340103D01*
X12698634Y-14092484D02*
X12717682Y-14092484D01*
X12717682Y-14092484D02*
X12736729Y-14102008D01*
X12736729Y-14102008D02*
X12746253Y-14111531D01*
X12746253Y-14111531D02*
X12755777Y-14130579D01*
X12755777Y-14130579D02*
X12765301Y-14168674D01*
X12765301Y-14168674D02*
X12765301Y-14216293D01*
X12765301Y-14216293D02*
X12755777Y-14254388D01*
X12755777Y-14254388D02*
X12746253Y-14273436D01*
X12746253Y-14273436D02*
X12736729Y-14282960D01*
X12736729Y-14282960D02*
X12717682Y-14292484D01*
X12717682Y-14292484D02*
X12698634Y-14292484D01*
X12698634Y-14292484D02*
X12679586Y-14282960D01*
X12679586Y-14282960D02*
X12670063Y-14273436D01*
X12670063Y-14273436D02*
X12660539Y-14254388D01*
X12660539Y-14254388D02*
X12651015Y-14216293D01*
X12651015Y-14216293D02*
X12651015Y-14168674D01*
X12651015Y-14168674D02*
X12660539Y-14130579D01*
X12660539Y-14130579D02*
X12670063Y-14111531D01*
X12670063Y-14111531D02*
X12679586Y-14102008D01*
X12679586Y-14102008D02*
X12698634Y-14092484D01*
X12851015Y-14273436D02*
X12860539Y-14282960D01*
X12860539Y-14282960D02*
X12851015Y-14292484D01*
X12851015Y-14292484D02*
X12841491Y-14282960D01*
X12841491Y-14282960D02*
X12851015Y-14273436D01*
X12851015Y-14273436D02*
X12851015Y-14292484D01*
X13051015Y-14292484D02*
X12936729Y-14292484D01*
X12993872Y-14292484D02*
X12993872Y-14092484D01*
X12993872Y-14092484D02*
X12974825Y-14121055D01*
X12974825Y-14121055D02*
X12955777Y-14140103D01*
X12955777Y-14140103D02*
X12936729Y-14149627D01*
X13222444Y-14092484D02*
X13184348Y-14092484D01*
X13184348Y-14092484D02*
X13165301Y-14102008D01*
X13165301Y-14102008D02*
X13155777Y-14111531D01*
X13155777Y-14111531D02*
X13136729Y-14140103D01*
X13136729Y-14140103D02*
X13127206Y-14178198D01*
X13127206Y-14178198D02*
X13127206Y-14254388D01*
X13127206Y-14254388D02*
X13136729Y-14273436D01*
X13136729Y-14273436D02*
X13146253Y-14282960D01*
X13146253Y-14282960D02*
X13165301Y-14292484D01*
X13165301Y-14292484D02*
X13203396Y-14292484D01*
X13203396Y-14292484D02*
X13222444Y-14282960D01*
X13222444Y-14282960D02*
X13231967Y-14273436D01*
X13231967Y-14273436D02*
X13241491Y-14254388D01*
X13241491Y-14254388D02*
X13241491Y-14206769D01*
X13241491Y-14206769D02*
X13231967Y-14187722D01*
X13231967Y-14187722D02*
X13222444Y-14178198D01*
X13222444Y-14178198D02*
X13203396Y-14168674D01*
X13203396Y-14168674D02*
X13165301Y-14168674D01*
X13165301Y-14168674D02*
X13146253Y-14178198D01*
X13146253Y-14178198D02*
X13136729Y-14187722D01*
X13136729Y-14187722D02*
X13127206Y-14206769D01*
X13336729Y-14292484D02*
X13374825Y-14292484D01*
X13374825Y-14292484D02*
X13393872Y-14282960D01*
X13393872Y-14282960D02*
X13403396Y-14273436D01*
X13403396Y-14273436D02*
X13422444Y-14244865D01*
X13422444Y-14244865D02*
X13431967Y-14206769D01*
X13431967Y-14206769D02*
X13431967Y-14130579D01*
X13431967Y-14130579D02*
X13422444Y-14111531D01*
X13422444Y-14111531D02*
X13412920Y-14102008D01*
X13412920Y-14102008D02*
X13393872Y-14092484D01*
X13393872Y-14092484D02*
X13355777Y-14092484D01*
X13355777Y-14092484D02*
X13336729Y-14102008D01*
X13336729Y-14102008D02*
X13327206Y-14111531D01*
X13327206Y-14111531D02*
X13317682Y-14130579D01*
X13317682Y-14130579D02*
X13317682Y-14178198D01*
X13317682Y-14178198D02*
X13327206Y-14197246D01*
X13327206Y-14197246D02*
X13336729Y-14206769D01*
X13336729Y-14206769D02*
X13355777Y-14216293D01*
X13355777Y-14216293D02*
X13393872Y-14216293D01*
X13393872Y-14216293D02*
X13412920Y-14206769D01*
X13412920Y-14206769D02*
X13422444Y-14197246D01*
X13422444Y-14197246D02*
X13431967Y-14178198D01*
X13498634Y-14092484D02*
X13622444Y-14092484D01*
X13622444Y-14092484D02*
X13555777Y-14168674D01*
X13555777Y-14168674D02*
X13584348Y-14168674D01*
X13584348Y-14168674D02*
X13603396Y-14178198D01*
X13603396Y-14178198D02*
X13612920Y-14187722D01*
X13612920Y-14187722D02*
X13622444Y-14206769D01*
X13622444Y-14206769D02*
X13622444Y-14254388D01*
X13622444Y-14254388D02*
X13612920Y-14273436D01*
X13612920Y-14273436D02*
X13603396Y-14282960D01*
X13603396Y-14282960D02*
X13584348Y-14292484D01*
X13584348Y-14292484D02*
X13527206Y-14292484D01*
X13527206Y-14292484D02*
X13508158Y-14282960D01*
X13508158Y-14282960D02*
X13498634Y-14273436D01*
X13698634Y-14092484D02*
X13698634Y-14130579D01*
X13774825Y-14092484D02*
X13774825Y-14130579D01*
X14070063Y-14368674D02*
X14060539Y-14359150D01*
X14060539Y-14359150D02*
X14041491Y-14330579D01*
X14041491Y-14330579D02*
X14031968Y-14311531D01*
X14031968Y-14311531D02*
X14022444Y-14282960D01*
X14022444Y-14282960D02*
X14012920Y-14235341D01*
X14012920Y-14235341D02*
X14012920Y-14197246D01*
X14012920Y-14197246D02*
X14022444Y-14149627D01*
X14022444Y-14149627D02*
X14031968Y-14121055D01*
X14031968Y-14121055D02*
X14041491Y-14102008D01*
X14041491Y-14102008D02*
X14060539Y-14073436D01*
X14060539Y-14073436D02*
X14070063Y-14063912D01*
X14127206Y-14092484D02*
X14251015Y-14092484D01*
X14251015Y-14092484D02*
X14184348Y-14168674D01*
X14184348Y-14168674D02*
X14212920Y-14168674D01*
X14212920Y-14168674D02*
X14231968Y-14178198D01*
X14231968Y-14178198D02*
X14241491Y-14187722D01*
X14241491Y-14187722D02*
X14251015Y-14206769D01*
X14251015Y-14206769D02*
X14251015Y-14254388D01*
X14251015Y-14254388D02*
X14241491Y-14273436D01*
X14241491Y-14273436D02*
X14231968Y-14282960D01*
X14231968Y-14282960D02*
X14212920Y-14292484D01*
X14212920Y-14292484D02*
X14155777Y-14292484D01*
X14155777Y-14292484D02*
X14136729Y-14282960D01*
X14136729Y-14282960D02*
X14127206Y-14273436D01*
X14489110Y-14292484D02*
X14489110Y-14092484D01*
X14574825Y-14292484D02*
X14574825Y-14187722D01*
X14574825Y-14187722D02*
X14565301Y-14168674D01*
X14565301Y-14168674D02*
X14546253Y-14159150D01*
X14546253Y-14159150D02*
X14517682Y-14159150D01*
X14517682Y-14159150D02*
X14498634Y-14168674D01*
X14498634Y-14168674D02*
X14489110Y-14178198D01*
X14698634Y-14292484D02*
X14679587Y-14282960D01*
X14679587Y-14282960D02*
X14670063Y-14273436D01*
X14670063Y-14273436D02*
X14660539Y-14254388D01*
X14660539Y-14254388D02*
X14660539Y-14197246D01*
X14660539Y-14197246D02*
X14670063Y-14178198D01*
X14670063Y-14178198D02*
X14679587Y-14168674D01*
X14679587Y-14168674D02*
X14698634Y-14159150D01*
X14698634Y-14159150D02*
X14727206Y-14159150D01*
X14727206Y-14159150D02*
X14746253Y-14168674D01*
X14746253Y-14168674D02*
X14755777Y-14178198D01*
X14755777Y-14178198D02*
X14765301Y-14197246D01*
X14765301Y-14197246D02*
X14765301Y-14254388D01*
X14765301Y-14254388D02*
X14755777Y-14273436D01*
X14755777Y-14273436D02*
X14746253Y-14282960D01*
X14746253Y-14282960D02*
X14727206Y-14292484D01*
X14727206Y-14292484D02*
X14698634Y-14292484D01*
X14879587Y-14292484D02*
X14860539Y-14282960D01*
X14860539Y-14282960D02*
X14851015Y-14263912D01*
X14851015Y-14263912D02*
X14851015Y-14092484D01*
X15031968Y-14282960D02*
X15012920Y-14292484D01*
X15012920Y-14292484D02*
X14974825Y-14292484D01*
X14974825Y-14292484D02*
X14955777Y-14282960D01*
X14955777Y-14282960D02*
X14946253Y-14263912D01*
X14946253Y-14263912D02*
X14946253Y-14187722D01*
X14946253Y-14187722D02*
X14955777Y-14168674D01*
X14955777Y-14168674D02*
X14974825Y-14159150D01*
X14974825Y-14159150D02*
X15012920Y-14159150D01*
X15012920Y-14159150D02*
X15031968Y-14168674D01*
X15031968Y-14168674D02*
X15041491Y-14187722D01*
X15041491Y-14187722D02*
X15041491Y-14206769D01*
X15041491Y-14206769D02*
X14946253Y-14225817D01*
X15117682Y-14282960D02*
X15136730Y-14292484D01*
X15136730Y-14292484D02*
X15174825Y-14292484D01*
X15174825Y-14292484D02*
X15193872Y-14282960D01*
X15193872Y-14282960D02*
X15203396Y-14263912D01*
X15203396Y-14263912D02*
X15203396Y-14254388D01*
X15203396Y-14254388D02*
X15193872Y-14235341D01*
X15193872Y-14235341D02*
X15174825Y-14225817D01*
X15174825Y-14225817D02*
X15146253Y-14225817D01*
X15146253Y-14225817D02*
X15127206Y-14216293D01*
X15127206Y-14216293D02*
X15117682Y-14197246D01*
X15117682Y-14197246D02*
X15117682Y-14187722D01*
X15117682Y-14187722D02*
X15127206Y-14168674D01*
X15127206Y-14168674D02*
X15146253Y-14159150D01*
X15146253Y-14159150D02*
X15174825Y-14159150D01*
X15174825Y-14159150D02*
X15193872Y-14168674D01*
X15270063Y-14368674D02*
X15279587Y-14359150D01*
X15279587Y-14359150D02*
X15298634Y-14330579D01*
X15298634Y-14330579D02*
X15308158Y-14311531D01*
X15308158Y-14311531D02*
X15317682Y-14282960D01*
X15317682Y-14282960D02*
X15327206Y-14235341D01*
X15327206Y-14235341D02*
X15327206Y-14197246D01*
X15327206Y-14197246D02*
X15317682Y-14149627D01*
X15317682Y-14149627D02*
X15308158Y-14121055D01*
X15308158Y-14121055D02*
X15298634Y-14102008D01*
X15298634Y-14102008D02*
X15279587Y-14073436D01*
X15279587Y-14073436D02*
X15270063Y-14063912D01*
M02*
