M48
; DRILL file {KiCad 8.0.2} date 2025-09-10T20:03:13+0200
; FORMAT={-:-/ absolute / inch / decimal}
; #@! TF.CreationDate,2025-09-10T20:03:13+02:00
; #@! TF.GenerationSoftware,Kicad,Pcbnew,8.0.2
; #@! TF.FileFunction,Plated,1,2,PTH
FMAT,2
INCH
; #@! TA.AperFunction,Plated,PTH,ComponentDrill
T1C0.0118
; #@! TA.AperFunction,Plated,PTH,ViaDrill
T2C0.0157
; #@! TA.AperFunction,Plated,PTH,ComponentDrill
T3C0.0236
; #@! TA.AperFunction,Plated,PTH,ComponentDrill
T4C0.0394
; #@! TA.AperFunction,Plated,PTH,ComponentDrill
T5C0.1693
%
G90
G05
T1
X6.9701Y-3.1272
X6.9701Y-3.1705
X6.9917Y-3.1055
X6.9917Y-3.1488
X6.9917Y-3.1921
X7.0134Y-3.1272
X7.0134Y-3.1705
X7.035Y-3.1055
X7.035Y-3.1488
X7.035Y-3.1921
X7.0567Y-3.1272
X7.0567Y-3.1705
T2
X4.5811Y-2.9795
X4.7886Y-3.0465
X4.7992Y-3.2394
X4.8957Y-2.0768
X4.9047Y-3.0504
X4.9102Y-2.8543
X4.9668Y-2.2266
X4.9776Y-1.8909
X5.0689Y-1.8291
X5.1091Y-3.2453
X5.2209Y-2.8524
X5.3382Y-2.2354
X5.3445Y-2.061
X5.4016Y-2.139
X5.4091Y-3.7047
X5.4268Y-2.4406
X5.4443Y-2.0432
X5.5213Y-2.5028
X5.5295Y-1.9579
X5.7201Y-1.7531
X5.726Y-2.0429
X5.7917Y-3.0705
X5.8043Y-1.7205
X5.8331Y-3.8949
X5.8671Y-1.7181
X5.9246Y-1.7189
X5.9559Y-2.4118
X6.0118Y-3.0854
X6.2043Y-1.5996
X6.2846Y-3.7906
X6.402Y-2.5862
X6.4028Y-3.5161
X6.4594Y-3.3425
X6.5217Y-3.3634
X6.5413Y-3.624
X6.5681Y-3.1787
X6.5689Y-3.0567
X6.5906Y-3.45
X6.6366Y-2.9835
X6.7272Y-1.6453
X6.7815Y-2.8276
X6.8067Y-3.6354
X6.8429Y-3.3807
X6.8441Y-3.5287
X6.8445Y-2.8567
X6.8571Y-3.1417
X6.861Y-3.3114
X6.8807Y-2.6217
X6.9642Y-3.5327
X6.9929Y-2.6126
X6.9955Y-3.7067
X7.0417Y-3.3161
X7.0902Y-3.7287
X7.1075Y-2.9811
X7.1602Y-3.3512
X7.2224Y-2.6661
T3
X5.0888Y-2.4621
X5.0888Y-3.8371
X5.126Y-2.3723
X5.126Y-2.5519
X5.126Y-3.7473
X5.126Y-3.9269
X5.2158Y-2.3351
X5.2158Y-2.589
X5.2158Y-3.7101
X5.2158Y-3.964
X5.3056Y-2.3723
X5.3056Y-2.5519
X5.3056Y-3.7473
X5.3056Y-3.9269
X5.3427Y-2.4621
X5.3427Y-3.8371
X6.4684Y-3.8421
X6.5056Y-3.7523
X6.5056Y-3.9319
X6.5953Y-3.7151
X6.5953Y-3.969
X6.6851Y-3.7523
X6.6851Y-3.9319
X6.7223Y-3.8421
T4
X4.3744Y-3.0256
X4.3744Y-3.1256
X4.3744Y-3.2256
X4.3744Y-3.3256
X4.3756Y-3.5687
X4.3756Y-3.6687
X5.4819Y-2.2291
X5.4819Y-2.3276
T5
X5.2158Y-2.4621
X5.2158Y-3.8371
X6.5953Y-3.8421
T3
G00X5.7335Y-1.6421
M15
G01X5.7335Y-1.5988
M16
G05
G00X5.7335Y-1.4677
M15
G01X5.7335Y-1.4441
M16
G05
G00X6.0736Y-1.6421
M15
G01X6.0736Y-1.5988
M16
G05
G00X6.0736Y-1.4677
M15
G01X6.0736Y-1.4441
M16
G05
M30
