%TF.GenerationSoftware,KiCad,Pcbnew,8.0.2*%
%TF.CreationDate,2025-09-10T20:02:56+02:00*%
%TF.ProjectId,LED_Coaster,4c45445f-436f-4617-9374-65722e6b6963,rev?*%
%TF.SameCoordinates,Original*%
%TF.FileFunction,Soldermask,Top*%
%TF.FilePolarity,Negative*%
%FSLAX46Y46*%
G04 Gerber Fmt 4.6, Leading zero omitted, Abs format (unit mm)*
G04 Created by KiCad (PCBNEW 8.0.2) date 2025-09-10 20:02:56*
%MOMM*%
%LPD*%
G01*
G04 APERTURE LIST*
G04 Aperture macros list*
%AMRoundRect*
0 Rectangle with rounded corners*
0 $1 Rounding radius*
0 $2 $3 $4 $5 $6 $7 $8 $9 X,Y pos of 4 corners*
0 Add a 4 corners polygon primitive as box body*
4,1,4,$2,$3,$4,$5,$6,$7,$8,$9,$2,$3,0*
0 Add four circle primitives for the rounded corners*
1,1,$1+$1,$2,$3*
1,1,$1+$1,$4,$5*
1,1,$1+$1,$6,$7*
1,1,$1+$1,$8,$9*
0 Add four rect primitives between the rounded corners*
20,1,$1+$1,$2,$3,$4,$5,0*
20,1,$1+$1,$4,$5,$6,$7,0*
20,1,$1+$1,$6,$7,$8,$9,0*
20,1,$1+$1,$8,$9,$2,$3,0*%
%AMRotRect*
0 Rectangle, with rotation*
0 The origin of the aperture is its center*
0 $1 length*
0 $2 width*
0 $3 Rotation angle, in degrees counterclockwise*
0 Add horizontal line*
21,1,$1,$2,0,0,$3*%
G04 Aperture macros list end*
%ADD10RoundRect,0.250000X-0.325000X-0.450000X0.325000X-0.450000X0.325000X0.450000X-0.325000X0.450000X0*%
%ADD11RoundRect,0.100000X0.117183X0.208745X-0.234740X-0.046942X-0.117183X-0.208745X0.234740X0.046942X0*%
%ADD12RotRect,1.500000X0.900000X18.000000*%
%ADD13C,0.900000*%
%ADD14C,8.600000*%
%ADD15RoundRect,0.250000X0.337500X0.475000X-0.337500X0.475000X-0.337500X-0.475000X0.337500X-0.475000X0*%
%ADD16RoundRect,0.100000X-0.100000X0.217500X-0.100000X-0.217500X0.100000X-0.217500X0.100000X0.217500X0*%
%ADD17RotRect,1.000000X0.800000X198.000000*%
%ADD18RotRect,0.700000X1.500000X198.000000*%
%ADD19RotRect,1.500000X0.900000X342.000000*%
%ADD20RotRect,1.500000X0.900000X234.000000*%
%ADD21RoundRect,0.100000X-0.208745X0.117183X0.046942X-0.234740X0.208745X-0.117183X-0.046942X0.234740X0*%
%ADD22RotRect,1.500000X0.900000X162.000000*%
%ADD23RoundRect,0.100000X0.100000X-0.217500X0.100000X0.217500X-0.100000X0.217500X-0.100000X-0.217500X0*%
%ADD24RotRect,1.500000X0.900000X198.000000*%
%ADD25RotRect,1.500000X0.900000X126.000000*%
%ADD26RoundRect,0.250000X-0.547659X-0.158333X0.018653X-0.569782X0.547659X0.158333X-0.018653X0.569782X0*%
%ADD27RotRect,1.800000X1.100000X324.000000*%
%ADD28R,1.700000X1.700000*%
%ADD29O,1.700000X1.700000*%
%ADD30RotRect,1.500000X0.900000X306.000000*%
%ADD31RoundRect,0.375000X0.285216X0.670747X-0.726055X-0.063984X-0.285216X-0.670747X0.726055X0.063984X0*%
%ADD32RoundRect,0.500000X-0.418391X1.426516X-1.227408X0.838731X0.418391X-1.426516X1.227408X-0.838731X0*%
%ADD33RotRect,1.800000X1.100000X234.000000*%
%ADD34RoundRect,0.150000X-0.326453X-0.422592X0.502789X0.179887X0.326453X0.422592X-0.502789X-0.179887X0*%
%ADD35RoundRect,0.102000X-0.450000X0.750000X-0.450000X-0.750000X0.450000X-0.750000X0.450000X0.750000X0*%
%ADD36RoundRect,0.102000X-0.350000X0.350000X-0.350000X-0.350000X0.350000X-0.350000X0.350000X0.350000X0*%
%ADD37RotRect,1.800000X1.100000X342.000000*%
%ADD38RoundRect,0.250000X-0.337500X-0.475000X0.337500X-0.475000X0.337500X0.475000X-0.337500X0.475000X0*%
%ADD39R,0.900000X1.500000*%
%ADD40C,0.650000*%
%ADD41R,0.600000X1.450000*%
%ADD42R,0.300000X1.450000*%
%ADD43O,1.000000X1.600000*%
%ADD44O,1.000000X2.100000*%
%ADD45RotRect,1.500000X0.900000X54.000000*%
%ADD46RoundRect,0.250000X0.750000X-0.600000X0.750000X0.600000X-0.750000X0.600000X-0.750000X-0.600000X0*%
%ADD47O,2.000000X1.700000*%
G04 APERTURE END LIST*
D10*
%TO.C,F1*%
X145385000Y-47940000D03*
X147435000Y-47940000D03*
%TD*%
D11*
%TO.C,R2*%
X134569674Y-56290479D03*
X133910326Y-56769521D03*
%TD*%
D12*
%TO.C,D29*%
X152392549Y-95272046D03*
X153412306Y-98410534D03*
X158072483Y-96896352D03*
X157052726Y-93757864D03*
%TD*%
D13*
%TO.C,H3*%
X132480581Y-100686581D03*
X130200162Y-99742000D03*
X134761000Y-99742000D03*
X129255581Y-97461581D03*
D14*
X132480581Y-97461581D03*
D13*
X135705581Y-97461581D03*
X130200162Y-95181162D03*
X134761000Y-95181162D03*
X132480581Y-94236581D03*
%TD*%
D15*
%TO.C,C1*%
X122497500Y-78890000D03*
X120422500Y-78890000D03*
%TD*%
D13*
%TO.C,H4*%
X167521419Y-100813581D03*
X165241000Y-99869000D03*
X169801838Y-99869000D03*
X164296419Y-97588581D03*
D14*
X167521419Y-97588581D03*
D13*
X170746419Y-97588581D03*
X165241000Y-95308162D03*
X169801838Y-95308162D03*
X167521419Y-94363581D03*
%TD*%
D16*
%TO.C,R6*%
X151210001Y-44562501D03*
X151209999Y-45377499D03*
%TD*%
D17*
%TO.C,SW4*%
X140538315Y-39107480D03*
X139855385Y-37005644D03*
D13*
X138150532Y-38716192D03*
X135297363Y-39643243D03*
D17*
X133595601Y-41363302D03*
X132912673Y-39261468D03*
D18*
X139407694Y-40158289D03*
X136554525Y-41085339D03*
X135127940Y-41548865D03*
%TD*%
D19*
%TO.C,D28*%
X142955423Y-93734505D03*
X141935666Y-96872993D03*
X146595843Y-98387175D03*
X147615600Y-95248687D03*
%TD*%
D20*
%TO.C,D25*%
X139124101Y-69069965D03*
X136454345Y-67130274D03*
X133574197Y-71094457D03*
X136243953Y-73034148D03*
%TD*%
D21*
%TO.C,C6*%
X124880477Y-53510327D03*
X125359523Y-54169673D03*
%TD*%
D22*
%TO.C,D23*%
X157044467Y-66255033D03*
X158064224Y-63116545D03*
X153404047Y-61602363D03*
X152384290Y-64740851D03*
%TD*%
D23*
%TO.C,R5*%
X147069998Y-80165000D03*
X147070002Y-79350000D03*
%TD*%
D24*
%TO.C,D24*%
X147610955Y-64743371D03*
X146591198Y-61604883D03*
X141931021Y-63119065D03*
X142950778Y-66257553D03*
%TD*%
D10*
%TO.C,D33*%
X149235000Y-79820000D03*
X151285000Y-79820000D03*
%TD*%
D25*
%TO.C,D22*%
X163783155Y-73003996D03*
X166452911Y-71064305D03*
X163572763Y-67100122D03*
X160903007Y-69039813D03*
%TD*%
D26*
%TO.C,R9*%
X178940983Y-97302215D03*
X180559017Y-98477785D03*
%TD*%
D27*
%TO.C,Enable1*%
X172789450Y-42601184D03*
X177805356Y-46245453D03*
X170614644Y-45594547D03*
X175630550Y-49238816D03*
%TD*%
D28*
%TO.C,J4*%
X111110000Y-84470000D03*
D29*
X111110000Y-81930000D03*
X111110000Y-79390000D03*
X111110000Y-76850000D03*
%TD*%
D30*
%TO.C,D27*%
X136215656Y-86990312D03*
X133545900Y-88930003D03*
X136426048Y-92894186D03*
X139095804Y-90954495D03*
%TD*%
D16*
%TO.C,R7*%
X148190000Y-44660000D03*
X148189998Y-45474998D03*
%TD*%
D31*
%TO.C,U2*%
X131410309Y-47189215D03*
X130058403Y-45328476D03*
D32*
X124961597Y-49031524D03*
D31*
X128706497Y-43467737D03*
%TD*%
D33*
%TO.C,Btn2*%
X190868816Y-93219450D03*
X187224547Y-98235356D03*
X187875453Y-91044644D03*
X184231184Y-96060550D03*
%TD*%
D34*
%TO.C,U3*%
X130622778Y-53280828D03*
X131181174Y-54049395D03*
X131739570Y-54817961D03*
X133580084Y-53480750D03*
X132463292Y-51943617D03*
%TD*%
D28*
%TO.C,J2*%
X111140000Y-90645000D03*
D29*
X111140000Y-93185000D03*
%TD*%
D35*
%TO.C,U1*%
X184340001Y-70269999D03*
X182840000Y-70269999D03*
X181339999Y-70270000D03*
X179840001Y-70269998D03*
X178340001Y-70270000D03*
X176839999Y-70270000D03*
X175339999Y-70270001D03*
X173839999Y-70269999D03*
X172340000Y-70270001D03*
X172339999Y-87770001D03*
X173839999Y-87770001D03*
X175340001Y-87770000D03*
X176839999Y-87770000D03*
X178340001Y-87770000D03*
X179840001Y-87770001D03*
X181340000Y-87770000D03*
X182840000Y-87769999D03*
X184339999Y-87770001D03*
D36*
X179240000Y-78879999D03*
X179239999Y-79980001D03*
X179240000Y-81080000D03*
X178140000Y-78880000D03*
X178140000Y-79980001D03*
X178140000Y-81080001D03*
X177040000Y-78879999D03*
X177040000Y-79980000D03*
X177039999Y-81080001D03*
%TD*%
D21*
%TO.C,C7*%
X126570478Y-55860325D03*
X127049522Y-56519675D03*
%TD*%
D13*
%TO.C,H1*%
X132480581Y-65761581D03*
X130200162Y-64817000D03*
X134761000Y-64817000D03*
X129255581Y-62536581D03*
D14*
X132480581Y-62536581D03*
D13*
X135705581Y-62536581D03*
X130200162Y-60256162D03*
X134761000Y-60256162D03*
X132480581Y-59311581D03*
%TD*%
D37*
%TO.C,Boot1*%
X160573406Y-37642593D03*
X166469957Y-39558498D03*
X159430043Y-41161502D03*
X165326594Y-43077407D03*
%TD*%
D38*
%TO.C,C4*%
X120462500Y-74150000D03*
X122537500Y-74150000D03*
%TD*%
D33*
%TO.C,Btn1*%
X185758816Y-101659450D03*
X182114547Y-106675356D03*
X182765453Y-99484644D03*
X179121184Y-104500550D03*
%TD*%
D26*
%TO.C,R8*%
X182650000Y-91210000D03*
X184268034Y-92385570D03*
%TD*%
D39*
%TO.C,D21*%
X165250000Y-82450000D03*
X168550000Y-82450000D03*
X168550000Y-77550000D03*
X165250000Y-77550000D03*
%TD*%
D38*
%TO.C,C5*%
X124762500Y-74110000D03*
X126837500Y-74110000D03*
%TD*%
D40*
%TO.C,J3*%
X152839998Y-40630003D03*
X147060000Y-40630002D03*
D41*
X153199999Y-42075000D03*
X152399999Y-42075003D03*
D42*
X151199998Y-42075001D03*
X150199998Y-42075001D03*
X149699999Y-42075001D03*
X148699998Y-42075001D03*
D41*
X147499998Y-42075000D03*
X146699997Y-42075002D03*
X146699997Y-42075002D03*
X147499998Y-42075000D03*
D42*
X148200000Y-42075002D03*
X149199998Y-42075000D03*
X150699997Y-42075002D03*
X151699997Y-42075003D03*
D41*
X152399999Y-42075003D03*
X153199999Y-42075000D03*
D43*
X154270000Y-36980003D03*
D44*
X154269996Y-41160001D03*
D43*
X145630000Y-36980000D03*
D44*
X145629999Y-41159999D03*
%TD*%
D39*
%TO.C,D26*%
X134760886Y-77523211D03*
X131460886Y-77523211D03*
X131460886Y-82423211D03*
X134760886Y-82423211D03*
%TD*%
D45*
%TO.C,D30*%
X160898305Y-90930330D03*
X163568061Y-92870021D03*
X166448209Y-88905838D03*
X163778453Y-86966147D03*
%TD*%
D38*
%TO.C,C2*%
X124552500Y-78930000D03*
X126627500Y-78930000D03*
%TD*%
D46*
%TO.C,J1*%
X139240000Y-59120000D03*
D47*
X139239999Y-56619999D03*
%TD*%
M02*
